<svg xmlns="http://www.w3.org/2000/svg" viewBox="0 0 664 162.61"><defs><style>.cls-1{fill:#9619d1;}.cls-2{fill:#f1e73a;}</style></defs><title>logo</title><g id="Camada_3" data-name="Camada 3"><rect class="cls-1" x="24.56" y="2.7" width="138.34" height="114.39" rx="36.48" ry="36.48"/><path class="cls-2" d="M106.42,22.7H41A36.58,36.58,0,0,0,4.56,59.17V100.6A36.59,36.59,0,0,0,41,137.08H46.2v22.83s12.49-15.56,32.74-22.83h27.48A36.58,36.58,0,0,0,142.9,100.6V59.17A36.58,36.58,0,0,0,106.42,22.7Z"/><path class="cls-1" d="M103.55,49.37H43.91a4.86,4.86,0,0,0-4.84,4.84v15A4.86,4.86,0,0,0,43.91,74h59.64a4.86,4.86,0,0,0,4.85-4.84v-15A4.86,4.86,0,0,0,103.55,49.37ZM79.36,62.91a.79.79,0,0,1-.79.79H68.9a.79.79,0,0,1-.79-.79V60.49a.79.79,0,0,1,.79-.79h9.67a.79.79,0,0,1,.79.79Z"/><path class="cls-1" d="M103.55,78H43.91a4.86,4.86,0,0,0-4.84,4.85v15a4.86,4.86,0,0,0,4.84,4.85h1l-1.74,5.78a1.5,1.5,0,1,0,2.87.86l2-6.64H99.47l2,6.64a1.5,1.5,0,0,0,2.88-.86l-1.74-5.78h1a4.86,4.86,0,0,0,4.85-4.85v-15A4.86,4.86,0,0,0,103.55,78ZM79.36,91.58a.8.8,0,0,1-.79.79H68.9a.8.8,0,0,1-.79-.79V89.15a.79.79,0,0,1,.79-.78h9.67a.79.79,0,0,1,.79.78Z"/><path class="cls-1" d="M255.2,79.23v44H238.52V82.54c0-6.63-3-10-8.62-10-4,0-8.62,3-10.72,6.86v43.82H202.49V39.56h16.69V65.19h.44a22.92,22.92,0,0,1,16.47-6.74C248.24,58.45,255.2,65.19,255.2,79.23Z"/><path class="cls-1" d="M314.44,116.3c-4.86,4-10.94,7-22.88,7-19.67,0-29.73-11-29.73-32.6,0-20.23,11.28-32.27,29.29-32.27,15.91,0,25.09,10.05,25.09,25.3a74.73,74.73,0,0,1-.78,11.17H278.19c.22,9.83,4.64,15.25,15.25,15.25a18.92,18.92,0,0,0,13.7-5.64ZM278.52,83.81h22V82.16c0-7.3-3.09-11.17-9.83-11.17C283.16,71,278.74,76.52,278.52,83.81Z"/><path class="cls-1" d="M339.55,39.5v62.88c0,4.64,2.1,6.19,5.19,6.19a10,10,0,0,0,2.32-.22V121.5a20.24,20.24,0,0,1-7.95,1.55c-10.17,0-16.25-6-16.25-16.36V39.5Z"/><path class="cls-1" d="M370.38,39.5v62.88c0,4.64,2.1,6.19,5.19,6.19a10.22,10.22,0,0,0,2.33-.22V121.5a20.25,20.25,0,0,1-8,1.55c-10.17,0-16.25-6-16.25-16.36V39.5Z"/><path class="cls-1" d="M384.61,91.11c0-19.23,8.07-32.6,28.73-32.6,21.55,0,28.29,12.82,28.29,32.16s-8.17,32.6-28.84,32.6C391.35,123.27,384.61,110.45,384.61,91.11Zm28.73,19.12c8.51,0,11.16-6.19,11.16-18.9,0-12.93-3.2-19.78-11.82-19.78-7.62,0-10.94,6.19-10.94,18.89C401.74,103.38,404.94,110.23,413.34,110.23Z"/><path class="cls-1" d="M516,58.4c12.27,0,19.23,6.52,19.23,20.77v44.1H518.56V82.16c0-7.3-3.75-9.73-8.06-9.73a11.64,11.64,0,0,0-10.39,7.19v43.65H483.42V83.37c0-7.29-3.09-10.94-8.84-10.94-4.09,0-8.07,3.32-9.62,7.41v43.43H448.28V58.4H465v7.29h.24c3.86-5,10.27-7.29,16.46-7.29,9.51,0,13.37,4,15.58,8.4h.45C500.88,62.49,507.18,58.4,516,58.4Z"/><path class="cls-1" d="M541.9,91.11c0-19.23,8.06-32.6,28.73-32.6,21.55,0,28.29,12.82,28.29,32.16s-8.18,32.6-28.84,32.6C548.64,123.27,541.9,110.45,541.9,91.11Zm28.73,19.12c8.51,0,11.16-6.19,11.16-18.9,0-12.93-3.2-19.78-11.82-19.78-7.63,0-10.94,6.19-10.94,18.89C559,103.38,562.23,110.23,570.63,110.23Z"/><path class="cls-1" d="M605.56,39.34H622l.22,22.58.43.07a22.62,22.62,0,0,1,12.17-3.8c14.15,0,24.59,8.55,24.59,31.53,0,19-11.33,33.49-32.11,33.49-10.27,0-16.46-1.55-21.77-4ZM642.7,91.05c0-13.92-4.87-18.34-12.05-18.34a11.19,11.19,0,0,0-8.4,3.31v33a18.72,18.72,0,0,0,6.3.89C637.39,110,642.7,104.31,642.7,91.05Z"/></g></svg>