<svg xmlns="http://www.w3.org/2000/svg" viewBox="0 0 463.47 259.37"><defs><style>.cls-1{fill:#9619d1;}.cls-2{fill:#f1e73a;}</style></defs><title>logo</title><g id="Camada_3" data-name="Camada 3"><rect class="cls-1" x="227.44" y="2.32" width="138.34" height="114.39" rx="36.48" ry="36.48"/><path class="cls-2" d="M309.3,22.32H243.92A36.59,36.59,0,0,0,207.44,58.8v41.42a36.59,36.59,0,0,0,36.48,36.48h5.15v22.83s12.5-15.56,32.75-22.83H309.3a36.58,36.58,0,0,0,36.48-36.48V58.8A36.58,36.58,0,0,0,309.3,22.32Z"/><path class="cls-1" d="M306.43,49H246.79a4.87,4.87,0,0,0-4.85,4.84v15a4.87,4.87,0,0,0,4.85,4.84h59.64a4.86,4.86,0,0,0,4.85-4.84v-15A4.86,4.86,0,0,0,306.43,49Zm-24.2,13.54a.78.78,0,0,1-.78.79h-9.67a.79.79,0,0,1-.79-.79V60.11a.79.79,0,0,1,.79-.79h9.67a.78.78,0,0,1,.78.79Z"/><path class="cls-1" d="M306.43,77.65H246.79a4.87,4.87,0,0,0-4.85,4.85v15a4.87,4.87,0,0,0,4.85,4.85h1L246,108.1a1.5,1.5,0,1,0,2.87.86l2-6.64h51.47l2,6.64a1.5,1.5,0,1,0,2.87-.86l-1.73-5.78h.95a4.86,4.86,0,0,0,4.85-4.85v-15A4.86,4.86,0,0,0,306.43,77.65ZM282.23,91.2a.79.79,0,0,1-.78.79h-9.67a.79.79,0,0,1-.79-.79V88.77a.78.78,0,0,1,.79-.78h9.67a.78.78,0,0,1,.78.78Z"/><path class="cls-1" d="M56,213v44.05H39.29V216.32c0-6.63-3-9.95-8.62-9.95-4,0-8.62,3-10.72,6.86v43.82H3.26V173.34H20V199h.44a22.94,22.94,0,0,1,16.47-6.74C49,192.23,56,199,56,213Z"/><path class="cls-1" d="M115.21,250.08c-4.86,4-10.94,7-22.88,7-19.67,0-29.72-11.05-29.72-32.6,0-20.23,11.27-32.27,29.28-32.27,15.92,0,25.09,10,25.09,25.3a75.88,75.88,0,0,1-.77,11.17H79c.22,9.83,4.64,15.25,15.25,15.25a18.94,18.94,0,0,0,13.71-5.64ZM79.29,217.59h22v-1.65c0-7.3-3.1-11.17-9.84-11.17C83.94,204.77,79.52,210.3,79.29,217.59Z"/><path class="cls-1" d="M140.32,173.28v62.88c0,4.64,2.1,6.19,5.19,6.19a10.22,10.22,0,0,0,2.33-.22v13.15a20.29,20.29,0,0,1-8,1.55c-10.17,0-16.25-6-16.25-16.36V173.28Z"/><path class="cls-1" d="M171.15,173.28v62.88c0,4.64,2.1,6.19,5.2,6.19a10.11,10.11,0,0,0,2.32-.22v13.15a20.25,20.25,0,0,1-8,1.55c-10.17,0-16.24-6-16.24-16.36V173.28Z"/><path class="cls-1" d="M185.38,224.89c0-19.23,8.07-32.6,28.74-32.6,21.55,0,28.29,12.82,28.29,32.16s-8.18,32.6-28.85,32.6C192.12,257.05,185.38,244.23,185.38,224.89ZM214.12,244c8.51,0,11.16-6.19,11.16-18.9,0-12.93-3.21-19.78-11.83-19.78-7.62,0-10.94,6.19-10.94,18.89C202.51,237.15,205.72,244,214.12,244Z"/><path class="cls-1" d="M316.79,192.18c12.27,0,19.23,6.52,19.23,20.77v44.1H319.34V215.94c0-7.3-3.76-9.73-8.07-9.73a11.65,11.65,0,0,0-10.39,7.18v43.66H284.19v-39.9c0-7.29-3.09-10.94-8.84-10.94-4.09,0-8.07,3.32-9.61,7.41v43.43H249.05V192.18h16.67v7.29H266c3.87-5,10.28-7.29,16.46-7.29,9.51,0,13.38,4,15.59,8.39h.44C301.65,196.26,308,192.18,316.79,192.18Z"/><path class="cls-1" d="M342.67,224.89c0-19.23,8.07-32.6,28.73-32.6,21.55,0,28.29,12.82,28.29,32.16s-8.17,32.6-28.84,32.6C349.41,257.05,342.67,244.23,342.67,224.89ZM371.4,244c8.51,0,11.17-6.19,11.17-18.9,0-12.93-3.21-19.78-11.83-19.78-7.63,0-10.94,6.19-10.94,18.89C359.8,237.15,363,244,371.4,244Z"/><path class="cls-1" d="M406.34,173.12H422.8L423,195.7l.42.07a22.62,22.62,0,0,1,12.17-3.8c14.15,0,24.59,8.55,24.59,31.53,0,19-11.33,33.49-32.1,33.49-10.28,0-16.47-1.55-21.77-4Zm37.13,51.71c0-13.92-4.86-18.34-12.05-18.34a11.21,11.21,0,0,0-8.4,3.31v33a18.72,18.72,0,0,0,6.3.89C438.16,243.73,443.47,238.09,443.47,224.83Z"/></g></svg>