<?xml version="1.0" encoding="utf-8"?>
<!-- Generator: Adobe Illustrator 23.0.0, SVG Export Plug-In . SVG Version: 6.00 Build 0)  -->
<svg version="1.1" id="Camada_1" xmlns="http://www.w3.org/2000/svg" xmlns:xlink="http://www.w3.org/1999/xlink" x="0px" y="0px"
	 viewBox="0 0 519 308.4" style="enable-background:new 0 0 519 308.4;" xml:space="preserve">
<style type="text/css">
	.st0{fill:#1F86A7;}
</style>
<title>logo</title>
<path class="st0" d="M356,98.3c-15.1-7.6-33.7-8.8-46.2-3.1v43.4h76.1C381.4,115.6,367.3,104,356,98.3z"/>
<path class="st0" d="M420.7,178.8v-3.5c0.1-8.2-3.2-16.1-9-21.9c-6-5.7-13.9-8.8-22.1-8.8h-79.7v65l80.2-0.2
	C407,209.4,420.7,195.7,420.7,178.8C420.7,178.8,420.7,178.8,420.7,178.8z"/>
<path class="st0" d="M303.9,93.4L303.9,93.4c-0.1-8.7-6.6-23.8-18.9-35.8c-12.3-12.2-28.9-19.1-46.2-19.1h-5.4v100.2h70.5V93.4z"/>
<path class="st0" d="M151.2,209.7h76.2v-39.2H100.1C106.4,193.6,127.3,209.7,151.2,209.7z"/>
<path class="st0" d="M227.4,38.7c-36.3,2.3-61.2,30-67.7,57.2h67.7V38.7z"/>
<path class="st0" d="M227.4,101.9h-77.7c-28.8,0.1-51.4,23.5-51.4,53.2v1.7c0,2.6,0.2,5.2,0.6,7.7c0.2,0,0.3-0.1,0.5-0.1h128V101.9z
	"/>
<rect x="233.4" y="144.7" class="st0" width="70.5" height="65"/>
<path class="st0" d="M134.4,239.9c0.2,0.2,0.4,0.4,0.4,0.6c0,0.2-0.1,0.3-0.2,0.5l-0.2,0.2c-0.1,0.1-0.2,0.2-0.3,0.4l-0.3,0.3
	c-0.1,0.1-0.2,0.2-0.3,0.2h-0.3c-0.1,0-0.2-0.1-0.3-0.1c-1.3-1-2.6-1.7-4.1-2.3c-1.5-0.5-3-0.8-4.6-0.8c-1.3,0-2.6,0.2-3.9,0.5
	c-1.2,0.3-2.4,0.8-3.5,1.5c-1.1,0.6-2.1,1.4-2.9,2.3c-0.9,0.9-1.6,1.8-2.2,2.9c-0.6,1.1-1.1,2.2-1.4,3.4c-0.7,2.5-0.7,5,0,7.5
	c0.3,1.2,0.8,2.4,1.5,3.4c0.6,1.1,1.4,2.1,2.3,2.9c0.9,0.9,1.8,1.6,2.9,2.2c1.1,0.6,2.2,1.1,3.4,1.4c1.2,0.3,2.5,0.5,3.7,0.5
	c3.1,0,6.2-1.1,8.7-3l0.5-0.3c0.1-0.1,0.3-0.1,0.4-0.1c0.1,0,0.2,0.1,0.4,0.2l0.4,0.4c0.1,0.2,0.2,0.3,0.3,0.5
	c0.1,0.2,0.1,0.3,0.1,0.5c0,0.1,0,0.2-0.1,0.3l-0.3,0.3c-1.4,1.1-3.1,2-4.8,2.6c-1.8,0.6-3.7,0.9-5.6,0.9c-2.2,0-4.5-0.4-6.5-1.3
	c-4-1.7-7.2-4.9-8.9-8.9c-0.9-2-1.3-4.3-1.3-6.5c0-1.5,0.2-3,0.6-4.4c0.4-1.4,1-2.7,1.7-4c0.7-1.2,1.6-2.4,2.6-3.4
	c1-1,2.1-1.9,3.4-2.6c1.3-0.7,2.6-1.3,4-1.7c1.4-0.4,2.9-0.6,4.4-0.6c1.9,0,3.8,0.3,5.5,1C131.4,237.9,133,238.8,134.4,239.9z"/>
<path class="st0" d="M136.4,253.1c0-1.5,0.2-3,0.6-4.4c0.4-1.4,1-2.7,1.7-4c0.7-1.2,1.6-2.4,2.6-3.4c1-1,2.1-1.9,3.4-2.6
	c1.3-0.7,2.6-1.3,4-1.7c2.9-0.8,5.9-0.8,8.8,0c1.4,0.4,2.7,1,4,1.7c1.2,0.7,2.4,1.6,3.4,2.6c1,1,1.9,2.1,2.6,3.4
	c0.7,1.3,1.3,2.6,1.7,4c0.8,2.9,0.8,5.9,0,8.8c-0.4,1.4-1,2.7-1.7,4c-0.7,1.2-1.6,2.4-2.6,3.4c-1,1-2.1,1.9-3.4,2.6
	c-1.3,0.7-2.6,1.3-4,1.7c-2.9,0.8-5.9,0.8-8.8,0c-1.4-0.4-2.7-1-4-1.7c-1.2-0.7-2.4-1.6-3.4-2.6c-1-1-1.9-2.1-2.6-3.4
	c-0.7-1.3-1.3-2.6-1.7-4C136.6,256.1,136.4,254.6,136.4,253.1z M138.8,253.1c0,1.9,0.4,3.8,1.1,5.5c0.7,1.7,1.8,3.2,3.1,4.5
	c1.3,1.3,2.8,2.3,4.5,3.1c1.7,0.7,3.6,1.1,5.5,1.1c1.3,0,2.6-0.2,3.8-0.5c1.2-0.3,2.3-0.8,3.4-1.4c1-0.6,2-1.4,2.9-2.2
	c0.9-0.9,1.6-1.8,2.2-2.9c0.6-1.1,1.1-2.2,1.4-3.4c0.3-1.2,0.5-2.5,0.5-3.8c0-1.9-0.4-3.8-1.1-5.5c-0.7-1.7-1.8-3.2-3.1-4.5
	c-1.3-1.3-2.8-2.3-4.5-3.1c-1.7-0.8-3.6-1.1-5.5-1.1c-1.3,0-2.6,0.2-3.8,0.5c-1.2,0.3-2.3,0.8-3.4,1.4c-1,0.6-2,1.4-2.9,2.2
	c-0.9,0.9-1.6,1.8-2.2,2.9c-0.6,1.1-1.1,2.2-1.4,3.4C139,250.5,138.8,251.8,138.8,253.1L138.8,253.1z"/>
<path class="st0" d="M199.6,249c0,1-0.1,2-0.4,3c-0.2,1-0.6,1.9-1.1,2.8c-0.5,0.9-1.1,1.7-1.8,2.5c-0.7,0.8-1.5,1.4-2.4,2l4.2,8.9
	v0.4c0,0.2-0.1,0.3-0.2,0.4c-0.1,0.1-0.3,0.2-0.5,0.2h-1.3c-0.3,0-0.5-0.2-0.6-0.5l-4-8.4c-1.5,0.5-3.1,0.8-4.7,0.8h-9v7.2
	c0,0.6-0.3,0.8-0.9,0.8h-0.8c-0.6,0-0.8-0.3-0.8-0.8v-30.9c0-0.2,0.1-0.4,0.2-0.6c0.2-0.2,0.3-0.3,0.5-0.3h10.7c1.8,0,3.6,0.3,5.2,1
	c1.5,0.6,2.9,1.6,4,2.8c1,1.1,1.9,2.5,2.5,3.9C199.2,245.7,199.6,247.3,199.6,249z M187,258.8c1.5,0,2.9-0.3,4.3-0.8
	c1.2-0.5,2.3-1.3,3.2-2.2c0.8-0.9,1.5-2,2-3.1c0.5-1.1,0.7-2.4,0.7-3.6c0-1.2-0.2-2.5-0.7-3.6c-0.5-1.2-1.1-2.3-2-3.2
	c-0.9-1-2-1.7-3.2-2.2c-1.4-0.6-2.8-0.9-4.3-0.8h-9v19.6L187,258.8z"/>
<path class="st0" d="M225.6,236.7c0.2,0,0.4,0.1,0.6,0.2c0.2,0.1,0.2,0.3,0.2,0.6v0.8c0,0.2-0.1,0.4-0.2,0.6
	c-0.1,0.2-0.4,0.2-0.6,0.2h-9.3v29.4c0,0.4-0.3,0.8-0.7,0.8c0,0-0.1,0-0.1,0h-0.8c-0.4,0-0.8-0.3-0.8-0.7c0,0,0-0.1,0-0.1v-29.4
	h-9.6c-0.4,0-0.8-0.3-0.8-0.7c0,0,0-0.1,0-0.1v-0.8c0-0.4,0.3-0.8,0.7-0.8c0,0,0.1,0,0.1,0L225.6,236.7z"/>
<path class="st0" d="M253,236.7c0.6,0,0.8,0.3,0.8,0.8v0.8c0,0.2-0.1,0.4-0.2,0.6c-0.2,0.1-0.4,0.2-0.6,0.2h-19.6v16.4h15.8
	c0.2,0,0.4,0.1,0.6,0.2c0.2,0.1,0.2,0.3,0.2,0.6v0.8c0,0.2-0.1,0.4-0.2,0.6c-0.2,0.1-0.4,0.2-0.6,0.2h-15.8v9h19.9
	c0.6,0,0.8,0.3,0.8,0.8v0.8c0,0.4-0.3,0.8-0.7,0.8c0,0-0.1,0-0.1,0h-21.7c-0.2,0-0.4-0.1-0.5-0.2c-0.1-0.2-0.2-0.4-0.2-0.6v-31.1
	c0-0.3,0.1-0.6,0.3-0.6c0.2-0.1,0.4-0.1,0.6-0.1L253,236.7z"/>
<path class="st0" d="M285,239.9c0.2,0.2,0.4,0.4,0.4,0.6c0,0.2-0.1,0.3-0.2,0.5l-0.2,0.2c-0.1,0.1-0.2,0.2-0.3,0.4l-0.3,0.3
	c-0.1,0.1-0.2,0.2-0.3,0.2h-0.3c-0.1,0-0.2-0.1-0.3-0.1c-1.3-1-2.6-1.7-4.1-2.3c-1.5-0.5-3-0.8-4.6-0.8c-1.3,0-2.6,0.2-3.9,0.5
	c-1.2,0.3-2.4,0.8-3.5,1.5c-1.1,0.6-2.1,1.4-2.9,2.3c-0.9,0.9-1.6,1.8-2.2,2.9c-0.6,1.1-1.1,2.2-1.4,3.4c-0.7,2.5-0.7,5,0,7.5
	c0.3,1.2,0.8,2.4,1.5,3.4c0.6,1.1,1.4,2.1,2.3,2.9c0.9,0.9,1.8,1.6,2.9,2.2c1.1,0.6,2.2,1.1,3.4,1.4c1.2,0.3,2.5,0.5,3.7,0.5
	c3.1,0,6.2-1.1,8.7-3l0.5-0.3c0.1-0.1,0.3-0.1,0.4-0.1c0.1,0,0.2,0.1,0.4,0.2l0.4,0.4c0.1,0.2,0.2,0.3,0.3,0.5
	c0.1,0.2,0.1,0.3,0.1,0.5c0,0.1,0,0.2-0.1,0.3l-0.3,0.3c-1.4,1.1-3.1,2-4.8,2.6c-1.8,0.6-3.7,0.9-5.6,0.9c-2.2,0-4.5-0.4-6.5-1.3
	c-4-1.7-7.2-4.9-8.9-8.9c-0.9-2-1.3-4.3-1.3-6.5c0-1.5,0.2-3,0.6-4.4c0.4-1.4,1-2.7,1.7-4c0.7-1.2,1.6-2.4,2.6-3.4
	c1-1,2.1-1.9,3.4-2.6c1.3-0.7,2.6-1.3,4-1.7c1.4-0.4,2.9-0.6,4.4-0.6c1.9,0,3.8,0.3,5.5,1C281.9,237.9,283.5,238.8,285,239.9z"/>
<path class="st0" d="M309.2,266.9c0.2,0,0.4,0.1,0.6,0.2c0.1,0.2,0.2,0.4,0.2,0.6v0.8c0,0.2-0.1,0.4-0.2,0.6
	c-0.2,0.1-0.4,0.2-0.6,0.2h-17.9c-0.2,0-0.4-0.1-0.6-0.2c-0.1-0.2-0.2-0.4-0.2-0.6v-31c0-0.2,0.1-0.4,0.2-0.6
	c0.2-0.1,0.4-0.2,0.6-0.2h0.8c0.2,0,0.4,0.1,0.6,0.2c0.1,0.2,0.2,0.4,0.2,0.6v29.4H309.2z"/>
<path class="st0" d="M311.9,253.1c0-1.5,0.2-3,0.6-4.4c0.4-1.4,1-2.7,1.7-4c0.7-1.2,1.6-2.4,2.6-3.4c1-1,2.1-1.9,3.4-2.6
	c1.3-0.7,2.6-1.3,4-1.7c2.9-0.8,5.9-0.8,8.8,0c1.4,0.4,2.7,1,4,1.7c1.2,0.7,2.4,1.6,3.4,2.6c1,1,1.9,2.1,2.6,3.4
	c0.7,1.3,1.3,2.6,1.7,4c0.8,2.9,0.8,5.9,0,8.8c-0.4,1.4-1,2.7-1.7,4c-0.7,1.2-1.6,2.4-2.6,3.4c-1,1-2.1,1.9-3.4,2.6
	c-1.3,0.7-2.6,1.3-4,1.7c-2.9,0.8-5.9,0.8-8.8,0c-1.4-0.4-2.7-1-4-1.7c-1.2-0.7-2.4-1.6-3.4-2.6c-1-1-1.9-2.1-2.6-3.4
	c-0.7-1.3-1.3-2.6-1.7-4C312.1,256.1,311.9,254.6,311.9,253.1z M314.4,253.1c0,1.9,0.4,3.8,1.1,5.5c0.7,1.7,1.8,3.2,3.1,4.5
	c1.3,1.3,2.8,2.3,4.5,3.1c1.7,0.7,3.6,1.1,5.5,1.1c1.3,0,2.6-0.2,3.8-0.5c1.2-0.3,2.3-0.8,3.4-1.4c1-0.6,2-1.4,2.9-2.2
	c0.9-0.9,1.6-1.8,2.2-2.9c0.6-1.1,1.1-2.2,1.4-3.4c0.3-1.2,0.5-2.5,0.5-3.8c0-1.9-0.4-3.8-1.1-5.5c-0.7-1.7-1.8-3.2-3.1-4.5
	c-1.3-1.3-2.8-2.3-4.5-3.1c-1.7-0.8-3.6-1.1-5.5-1.1c-1.3,0-2.6,0.2-3.8,0.5c-1.2,0.3-2.3,0.8-3.4,1.4c-1,0.6-2,1.4-2.9,2.2
	c-0.9,0.9-1.6,1.8-2.2,2.9c-0.6,1.1-1.1,2.2-1.4,3.4C314.6,250.5,314.4,251.8,314.4,253.1z"/>
<path class="st0" d="M352.4,256.3c0,1.5,0.3,3,0.8,4.4c0.5,1.3,1.3,2.6,2.3,3.6c1,1,2.2,1.8,3.5,2.4c2.8,1.2,6,1.2,8.8,0
	c1.3-0.6,2.5-1.4,3.5-2.4c1-1,1.8-2.3,2.3-3.6c0.5-1.4,0.8-2.9,0.8-4.4v-18.8c-0.1-0.4,0.2-0.7,0.6-0.8c0.1,0,0.1,0,0.2,0h0.7
	c0.2,0,0.4,0.1,0.6,0.2c0.2,0.1,0.3,0.4,0.3,0.6v19.1c0,1.8-0.4,3.6-1.1,5.3c-0.7,1.6-1.7,3-2.9,4.2c-1.2,1.2-2.7,2.2-4.3,2.8
	c-1.6,0.7-3.4,1-5.2,1c-1.2,0-2.4-0.2-3.6-0.5c-1.1-0.3-2.2-0.8-3.2-1.4c-2-1.2-3.6-2.8-4.8-4.8c-0.6-1-1-2.1-1.4-3.2
	c-0.3-1.1-0.5-2.3-0.5-3.5v-19c0-0.2,0.1-0.4,0.2-0.6c0.1-0.2,0.3-0.2,0.6-0.2h0.8c0.2,0,0.4,0.1,0.6,0.2c0.2,0.1,0.2,0.3,0.2,0.6
	v18.8L352.4,256.3z"/>
<path class="st0" d="M383.4,237.5c0-0.2,0.1-0.4,0.2-0.6c0.1-0.1,0.3-0.2,0.5-0.2h10.6c1.5,0,2.9,0.2,4.3,0.6
	c1.4,0.4,2.7,0.9,3.9,1.7c1.2,0.7,2.3,1.6,3.3,2.5c1,1,1.8,2.1,2.5,3.3c0.7,1.2,1.2,2.5,1.6,3.9c0.4,1.4,0.6,2.8,0.6,4.3
	c0,1.5-0.2,2.9-0.6,4.3c-0.4,1.4-0.9,2.7-1.6,3.9c-0.7,1.2-1.6,2.3-2.6,3.3c-1,1-2.1,1.8-3.3,2.5c-1.2,0.7-2.5,1.2-3.9,1.6
	c-1.4,0.4-2.9,0.6-4.4,0.6h-10.3c-0.2,0-0.4-0.1-0.6-0.2c-0.2-0.1-0.3-0.3-0.3-0.5L383.4,237.5L383.4,237.5z M394.5,267
	c1.3,0,2.6-0.2,3.8-0.5c1.2-0.3,2.3-0.8,3.4-1.4c1-0.6,2-1.4,2.8-2.2c0.8-0.8,1.6-1.8,2.2-2.8c0.6-1,1.1-2.1,1.4-3.3
	c0.3-1.2,0.5-2.5,0.5-3.7c0-1.9-0.4-3.8-1.1-5.5c-0.7-1.6-1.7-3.1-3-4.4c-1.3-1.2-2.8-2.2-4.5-2.9c-1.7-0.7-3.6-1-5.4-1h-8.7v27.9
	h8.6L394.5,267z"/>
</svg>
