<svg id="Camada_1" data-name="Camada 1" xmlns="http://www.w3.org/2000/svg" viewBox="0 0 519.05 308.38"><defs><style>.cls-1{fill:#1f86a7;}</style></defs><title>logo</title><path class="cls-1" d="M356,98.29c-15.1-7.6-33.7-8.8-46.2-3.1v43.4h76.1C381.43,115.59,367.33,104,356,98.29Z"/><path class="cls-1" d="M420.73,178.79v-3.5a30.44,30.44,0,0,0-9-21.9,31.83,31.83,0,0,0-22.1-8.8h-79.7v65l80.2-.2A30.6,30.6,0,0,0,420.73,178.79Z"/><path class="cls-1" d="M303.93,93.39h0c-.1-8.7-6.6-23.8-18.9-35.8a65.28,65.28,0,0,0-46.2-19.1h-5.4v100.2h70.5Z"/><path class="cls-1" d="M151.23,209.69h76.2v-39.2H100.13A53,53,0,0,0,151.23,209.69Z"/><path class="cls-1" d="M227.43,38.69c-36.3,2.3-61.2,30-67.7,57.2h67.7Z"/><path class="cls-1" d="M227.43,101.89h-77.7c-28.8.1-51.4,23.5-51.4,53.2v1.7a49,49,0,0,0,.6,7.7,4.33,4.33,0,0,0,.5-.1h128Z"/><rect class="cls-1" x="233.43" y="144.69" width="70.5" height="65"/><path class="cls-1" d="M134.43,239.89c.2.2.4.4.4.6a1.69,1.69,0,0,1-.2.5l-.2.2a1.38,1.38,0,0,0-.3.4l-.3.3c-.1.1-.2.2-.3.2h-.3c-.1,0-.2-.1-.3-.1a16.57,16.57,0,0,0-4.1-2.3,13.89,13.89,0,0,0-4.6-.8,17.37,17.37,0,0,0-3.9.5,12,12,0,0,0-3.5,1.5,10.91,10.91,0,0,0-2.9,2.3,12.34,12.34,0,0,0-2.2,2.9,14.34,14.34,0,0,0-1.4,3.4,14.31,14.31,0,0,0,0,7.5,11.4,11.4,0,0,0,1.5,3.4,12.78,12.78,0,0,0,2.3,2.9,12.34,12.34,0,0,0,2.9,2.2,14.34,14.34,0,0,0,3.4,1.4,15,15,0,0,0,3.7.5,14.78,14.78,0,0,0,8.7-3l.5-.3a.6.6,0,0,1,.4-.1c.1,0,.2.1.4.2l.4.4c.1.2.2.3.3.5a1.09,1.09,0,0,1,.1.5.37.37,0,0,1-.1.3l-.3.3a15.88,15.88,0,0,1-4.8,2.6,16.86,16.86,0,0,1-5.6.9,15.73,15.73,0,0,1-6.5-1.3,17.07,17.07,0,0,1-8.9-8.9,15.73,15.73,0,0,1-1.3-6.5,16.11,16.11,0,0,1,.6-4.4,20,20,0,0,1,1.7-4,17,17,0,0,1,2.6-3.4,14.6,14.6,0,0,1,3.4-2.6,17.83,17.83,0,0,1,4-1.7,16.11,16.11,0,0,1,4.4-.6,14.16,14.16,0,0,1,5.5,1A17.16,17.16,0,0,1,134.43,239.89Z"/><path class="cls-1" d="M136.43,253.09a16.11,16.11,0,0,1,.6-4.4,17.83,17.83,0,0,1,1.7-4,17,17,0,0,1,2.6-3.4,14.6,14.6,0,0,1,3.4-2.6,17.83,17.83,0,0,1,4-1.7,16.43,16.43,0,0,1,8.8,0,17.83,17.83,0,0,1,4,1.7,17,17,0,0,1,3.4,2.6,14.6,14.6,0,0,1,2.6,3.4,17.83,17.83,0,0,1,1.7,4,16.43,16.43,0,0,1,0,8.8,17.83,17.83,0,0,1-1.7,4,17,17,0,0,1-2.6,3.4,14.6,14.6,0,0,1-3.4,2.6,17.83,17.83,0,0,1-4,1.7,16.43,16.43,0,0,1-8.8,0,17.83,17.83,0,0,1-4-1.7,17,17,0,0,1-3.4-2.6,14.6,14.6,0,0,1-2.6-3.4,17.83,17.83,0,0,1-1.7-4A16.11,16.11,0,0,1,136.43,253.09Zm2.4,0a14.21,14.21,0,0,0,1.1,5.5,13.94,13.94,0,0,0,3.1,4.5,15.7,15.7,0,0,0,4.5,3.1,14.59,14.59,0,0,0,5.5,1.1,15.83,15.83,0,0,0,3.8-.5,12.81,12.81,0,0,0,3.4-1.4,15.81,15.81,0,0,0,2.9-2.2,12.34,12.34,0,0,0,2.2-2.9,14.34,14.34,0,0,0,1.4-3.4,15.83,15.83,0,0,0,.5-3.8,14.21,14.21,0,0,0-1.1-5.5,14.44,14.44,0,0,0-3.1-4.5,15.7,15.7,0,0,0-4.5-3.1,12.89,12.89,0,0,0-5.5-1.1,15.83,15.83,0,0,0-3.8.5,14.34,14.34,0,0,0-3.4,1.4,15.81,15.81,0,0,0-2.9,2.2,12.34,12.34,0,0,0-2.2,2.9,14.34,14.34,0,0,0-1.4,3.4A15.83,15.83,0,0,0,138.83,253.09Z"/><path class="cls-1" d="M199.63,249a10.32,10.32,0,0,1-.4,3,9.61,9.61,0,0,1-1.1,2.8,14.37,14.37,0,0,1-1.8,2.5,11.6,11.6,0,0,1-2.4,2l4.2,8.9v.4a.52.52,0,0,1-.2.4.76.76,0,0,1-.5.2h-1.3a.63.63,0,0,1-.6-.5l-4-8.4a13.6,13.6,0,0,1-4.7.8h-9v7.2c0,.6-.3.8-.9.8h-.8c-.6,0-.8-.3-.8-.8v-30.9a1.07,1.07,0,0,1,.2-.6c.2-.2.3-.3.5-.3h10.7a12.38,12.38,0,0,1,5.2,1,11.54,11.54,0,0,1,4,2.8,13.62,13.62,0,0,1,2.5,3.9A10,10,0,0,1,199.63,249Zm-12.6,9.8a11.76,11.76,0,0,0,4.3-.8,10.16,10.16,0,0,0,3.2-2.2,10.29,10.29,0,0,0,2-3.1,9.22,9.22,0,0,0,.7-3.6,8.89,8.89,0,0,0-.7-3.6,10.74,10.74,0,0,0-2-3.2,9.14,9.14,0,0,0-3.2-2.2,9.72,9.72,0,0,0-4.3-.8h-9v19.6l9-.1Z"/><path class="cls-1" d="M225.63,236.69a1.07,1.07,0,0,1,.6.2c.2.1.2.3.2.6v.8a1.07,1.07,0,0,1-.2.6c-.1.2-.4.2-.6.2h-9.3v29.4a.74.74,0,0,1-.8.8h-.8a.74.74,0,0,1-.8-.8v-29.4h-9.6a.74.74,0,0,1-.8-.8v-.8a.74.74,0,0,1,.8-.8Z"/><path class="cls-1" d="M253,236.69c.6,0,.8.3.8.8v.8a1.42,1.42,0,0,1-.2.6.85.85,0,0,1-.6.2h-19.6v16.4h15.8a1.07,1.07,0,0,1,.6.2c.2.1.2.3.2.6v.8a1.42,1.42,0,0,1-.2.6,1.07,1.07,0,0,1-.6.2h-15.8v9h19.9c.6,0,.8.3.8.8v.8a.74.74,0,0,1-.8.8h-21.7a.76.76,0,0,1-.5-.2.85.85,0,0,1-.2-.6v-31.1c0-.3.1-.6.3-.6a1.27,1.27,0,0,1,.6-.1Z"/><path class="cls-1" d="M285,239.89c.2.2.4.4.4.6a1.69,1.69,0,0,1-.2.5l-.2.2a1.38,1.38,0,0,0-.3.4l-.3.3c-.1.1-.2.2-.3.2h-.3c-.1,0-.2-.1-.3-.1a16.57,16.57,0,0,0-4.1-2.3,13.89,13.89,0,0,0-4.6-.8,17.37,17.37,0,0,0-3.9.5,12,12,0,0,0-3.5,1.5,10.91,10.91,0,0,0-2.9,2.3,12.34,12.34,0,0,0-2.2,2.9,14.34,14.34,0,0,0-1.4,3.4,14.31,14.31,0,0,0,0,7.5,11.4,11.4,0,0,0,1.5,3.4,12.78,12.78,0,0,0,2.3,2.9,12.34,12.34,0,0,0,2.9,2.2,14.34,14.34,0,0,0,3.4,1.4,15,15,0,0,0,3.7.5,14.78,14.78,0,0,0,8.7-3l.5-.3a.6.6,0,0,1,.4-.1c.1,0,.2.1.4.2l.4.4c.1.2.2.3.3.5a1.09,1.09,0,0,1,.1.5.37.37,0,0,1-.1.3l-.3.3a15.88,15.88,0,0,1-4.8,2.6,16.86,16.86,0,0,1-5.6.9,15.73,15.73,0,0,1-6.5-1.3,17.07,17.07,0,0,1-8.9-8.9A15.73,15.73,0,0,1,258,253a16.11,16.11,0,0,1,.6-4.4,20,20,0,0,1,1.7-4,17,17,0,0,1,2.6-3.4,14.6,14.6,0,0,1,3.4-2.6,17.83,17.83,0,0,1,4-1.7,16.11,16.11,0,0,1,4.4-.6,14.16,14.16,0,0,1,5.5,1A18.67,18.67,0,0,1,285,239.89Z"/><path class="cls-1" d="M309.23,266.89a1.42,1.42,0,0,1,.6.2.85.85,0,0,1,.2.6v.8a1.42,1.42,0,0,1-.2.6.85.85,0,0,1-.6.2h-17.9a1.42,1.42,0,0,1-.6-.2.85.85,0,0,1-.2-.6v-31a1.42,1.42,0,0,1,.2-.6,1.07,1.07,0,0,1,.6-.2h.8a1.42,1.42,0,0,1,.6.2.85.85,0,0,1,.2.6v29.4Z"/><path class="cls-1" d="M311.93,253.09a16.11,16.11,0,0,1,.6-4.4,17.83,17.83,0,0,1,1.7-4,17,17,0,0,1,2.6-3.4,14.6,14.6,0,0,1,3.4-2.6,17.83,17.83,0,0,1,4-1.7,16.43,16.43,0,0,1,8.8,0,17.83,17.83,0,0,1,4,1.7,17,17,0,0,1,3.4,2.6,14.6,14.6,0,0,1,2.6,3.4,17.83,17.83,0,0,1,1.7,4,16.43,16.43,0,0,1,0,8.8,17.83,17.83,0,0,1-1.7,4,17,17,0,0,1-2.6,3.4,14.6,14.6,0,0,1-3.4,2.6,17.83,17.83,0,0,1-4,1.7,16.43,16.43,0,0,1-8.8,0,17.83,17.83,0,0,1-4-1.7,17,17,0,0,1-3.4-2.6,14.6,14.6,0,0,1-2.6-3.4,17.83,17.83,0,0,1-1.7-4A16.11,16.11,0,0,1,311.93,253.09Zm2.5,0a14.21,14.21,0,0,0,1.1,5.5,13.94,13.94,0,0,0,3.1,4.5,15.7,15.7,0,0,0,4.5,3.1,14.59,14.59,0,0,0,5.5,1.1,15.83,15.83,0,0,0,3.8-.5,12.81,12.81,0,0,0,3.4-1.4,15.81,15.81,0,0,0,2.9-2.2,12.34,12.34,0,0,0,2.2-2.9,14.34,14.34,0,0,0,1.4-3.4,15.83,15.83,0,0,0,.5-3.8,14.21,14.21,0,0,0-1.1-5.5,14.44,14.44,0,0,0-3.1-4.5,15.7,15.7,0,0,0-4.5-3.1,12.89,12.89,0,0,0-5.5-1.1,15.83,15.83,0,0,0-3.8.5,14.34,14.34,0,0,0-3.4,1.4,15.81,15.81,0,0,0-2.9,2.2,12.34,12.34,0,0,0-2.2,2.9,14.34,14.34,0,0,0-1.4,3.4A12,12,0,0,0,314.43,253.09Z"/><path class="cls-1" d="M352.43,256.29a12.73,12.73,0,0,0,.8,4.4,10.55,10.55,0,0,0,2.3,3.6,10.9,10.9,0,0,0,3.5,2.4,11.21,11.21,0,0,0,8.8,0,12.11,12.11,0,0,0,3.5-2.4,11.11,11.11,0,0,0,2.3-3.6,12.73,12.73,0,0,0,.8-4.4v-18.8a.71.71,0,0,1,.8-.8h.7a1.07,1.07,0,0,1,.6.2.6.6,0,0,1,.3.6v19.1a13.22,13.22,0,0,1-1.1,5.3,13.71,13.71,0,0,1-2.9,4.2,12.81,12.81,0,0,1-4.3,2.8,13,13,0,0,1-5.2,1,14.87,14.87,0,0,1-3.6-.5,13,13,0,0,1-3.2-1.4,13.79,13.79,0,0,1-4.8-4.8,18.25,18.25,0,0,1-1.4-3.2,13.45,13.45,0,0,1-.5-3.5v-19a1.42,1.42,0,0,1,.2-.6c.1-.2.3-.2.6-.2h.8a1.42,1.42,0,0,1,.6.2c.2.1.2.3.2.6v18.8Z"/><path class="cls-1" d="M383.43,237.49a1.42,1.42,0,0,1,.2-.6.76.76,0,0,1,.5-.2h10.6a14.9,14.9,0,0,1,4.3.6,13.59,13.59,0,0,1,3.9,1.7,20.44,20.44,0,0,1,3.3,2.5,15.94,15.94,0,0,1,2.5,3.3,16.82,16.82,0,0,1,1.6,3.9,15.4,15.4,0,0,1,.6,4.3,14.9,14.9,0,0,1-.6,4.3,16.82,16.82,0,0,1-1.6,3.9,16.44,16.44,0,0,1-2.6,3.3,15.94,15.94,0,0,1-3.3,2.5,16.82,16.82,0,0,1-3.9,1.6,16.11,16.11,0,0,1-4.4.6h-10.3a1.42,1.42,0,0,1-.6-.2.55.55,0,0,1-.3-.5l.1-31Zm11.1,29.5a15.83,15.83,0,0,0,3.8-.5,14.34,14.34,0,0,0,3.4-1.4,15.1,15.1,0,0,0,2.8-2.2,14.25,14.25,0,0,0,2.2-2.8,13.65,13.65,0,0,0,1.4-3.3,15,15,0,0,0,.5-3.7,14.21,14.21,0,0,0-1.1-5.5,13.73,13.73,0,0,0-3-4.4,15.12,15.12,0,0,0-4.5-2.9,14,14,0,0,0-5.4-1h-8.7v27.9h8.6Z"/></svg>