<svg id="Camada_1" data-name="Camada 1" xmlns="http://www.w3.org/2000/svg" viewBox="0 0 873.09 308.38"><defs><style>.cls-1{fill:#1f86a7;}.cls-2{fill:#fff;}</style></defs><title>logo</title><path class="cls-1" d="M265.6,162.9a16.52,16.52,0,0,1,17.26,16.65v1.73a16.66,16.66,0,0,1-16.65,16.66l-41.27.12H147.89a27.75,27.75,0,0,1-27.67-27.68v-.82c0-15.37,11.58-27.78,27-27.82h3.11c2.82-15.71,17.28-31.4,37.75-31.4h2.65C212.87,110,224.94,129.92,225,139c11.38-6,37.26-1,40.94,23.92"/><path class="cls-2" d="M279,166.6a18.26,18.26,0,0,0-11.8-5.15c-1.85-10.19-7.67-18.21-16.5-22.67-7.82-3.95-17.51-4.69-24.43-2-.8-4.85-4-11.77-10-17.64a35.17,35.17,0,0,0-25.57-10.28H188c-21.11,0-35.61,16-39,31.41h-1.9c-15.94,0-28.44,12.9-28.44,29.3v.82a29.19,29.19,0,0,0,29.16,29.16l118.32-.12a18.16,18.16,0,0,0,18.14-18.14v-1.73A18,18,0,0,0,279,166.6Zm-29.64-25.17c5.59,2.83,12.56,8.58,14.8,20H226.49v-21.5C232.66,137.08,241.9,137.66,249.36,141.43Zm-58.65-29.62h.6a32.24,32.24,0,0,1,22.87,9.44c6.09,6,9.3,13.43,9.32,17.74h0v22.42h-34.9v-49.6Zm32.81,84.76h-34.9V164.38h34.9ZM185.64,111.9v28.34H152.13C155.34,126.74,167.69,113,185.64,111.9ZM121.7,169.56c0-14.73,11.19-26.3,25.48-26.33l3.12,0h35.34v31H122.26l-.27,0a25.38,25.38,0,0,1-.29-3.83Zm.9,7.6h63v19.41H147.89A26.22,26.22,0,0,1,122.6,177.16Zm158.77,4.12a15.18,15.18,0,0,1-15.17,15.17l-39.71.12V164.38H266a15.47,15.47,0,0,1,11,4.34,15,15,0,0,1,4.46,10.83Z"/><path class="cls-1" d="M337.53,134.34a1.17,1.17,0,0,1,.53.93,1.31,1.31,0,0,1-.33.73,1.85,1.85,0,0,0-.24.31,5.47,5.47,0,0,1-.41.53,6.13,6.13,0,0,1-.51.51.79.79,0,0,1-.5.24h-.13a1.12,1.12,0,0,1-.27-.05,1.6,1.6,0,0,1-.39-.22,24.1,24.1,0,0,0-6.11-3.42,19.41,19.41,0,0,0-7-1.25,21.74,21.74,0,0,0-5.85.78,22,22,0,0,0-5.23,2.2,21.5,21.5,0,0,0-4.4,3.41,22.43,22.43,0,0,0-3.38,4.39,21.56,21.56,0,0,0-2.17,5.13,21.27,21.27,0,0,0-.76,5.65,20.72,20.72,0,0,0,.78,5.71,21.32,21.32,0,0,0,2.2,5.11,21.64,21.64,0,0,0,3.4,4.34,21.33,21.33,0,0,0,4.35,3.34,21.76,21.76,0,0,0,5.08,2.16,20.87,20.87,0,0,0,5.61.76,22,22,0,0,0,13.05-4.47l.83-.47a1.23,1.23,0,0,1,.53-.16.94.94,0,0,1,.54.26,4.25,4.25,0,0,1,.61.65,3.76,3.76,0,0,1,.5.81,1.91,1.91,0,0,1,.2.76.8.8,0,0,1-.17.51,2.55,2.55,0,0,1-.43.45,26,26,0,0,1-7.16,4,25.66,25.66,0,0,1-18.25-.56A25.21,25.21,0,0,1,298.71,164a24.51,24.51,0,0,1-2-9.82,25.06,25.06,0,0,1,.89-6.69,25.58,25.58,0,0,1,2.53-6,26,26,0,0,1,3.94-5.11,24.94,24.94,0,0,1,5.1-4,26,26,0,0,1,6-2.55,24.85,24.85,0,0,1,6.7-.91,23.76,23.76,0,0,1,8.35,1.46A28.6,28.6,0,0,1,337.53,134.34Z"/><path class="cls-1" d="M340.51,154.14a24.79,24.79,0,0,1,.89-6.7A25.2,25.2,0,0,1,353,132.37a25.84,25.84,0,0,1,6-2.55,25.16,25.16,0,0,1,13.41,0,25.77,25.77,0,0,1,6,2.55,25,25,0,0,1,5.1,3.94,25.28,25.28,0,0,1,3.94,5.1,25.84,25.84,0,0,1,2.55,6,25.08,25.08,0,0,1,0,13.39,26.06,26.06,0,0,1-2.55,6,25.32,25.32,0,0,1-9,9,25.3,25.3,0,0,1-6,2.53,25.7,25.7,0,0,1-13.41,0,25.37,25.37,0,0,1-6-2.53,25.93,25.93,0,0,1-5.1-3.94,25.07,25.07,0,0,1-6.47-11.11A24.66,24.66,0,0,1,340.51,154.14Zm3.67,0a20.86,20.86,0,0,0,1.69,8.36,21.45,21.45,0,0,0,4.62,6.84,22,22,0,0,0,6.85,4.6,21,21,0,0,0,8.36,1.69,21.66,21.66,0,0,0,5.71-.76,21.19,21.19,0,0,0,5.15-2.17,21.89,21.89,0,0,0,4.35-3.38,21.53,21.53,0,0,0,3.38-4.35,21.78,21.78,0,0,0,2.19-5.12,21,21,0,0,0,.77-5.71,20.69,20.69,0,0,0-1.7-8.36,21.9,21.9,0,0,0-11.49-11.49,21.36,21.36,0,0,0-14.07-.92,21.69,21.69,0,0,0-9.5,5.56,20.74,20.74,0,0,0-3.36,4.35,22,22,0,0,0-2.17,5.15A20.93,20.93,0,0,0,344.18,154.14Z"/><path class="cls-1" d="M435.69,148.08a19,19,0,0,1-.56,4.57,18.28,18.28,0,0,1-1.66,4.27,18.82,18.82,0,0,1-2.68,3.76,16.78,16.78,0,0,1-3.64,3l6.36,13.44a1.11,1.11,0,0,1,.06.26,2.86,2.86,0,0,1,0,.33,1,1,0,0,1-.25.67.89.89,0,0,1-.72.29h-1.95a1,1,0,0,1-1-.69l-6-12.62a18.78,18.78,0,0,1-7,1.23H403.24v10.83a1.12,1.12,0,0,1-1.29,1.25h-1.22a1.11,1.11,0,0,1-1.26-1.25V130.87a1.38,1.38,0,0,1,.35-1,1.18,1.18,0,0,1,.81-.41h16.12a19.34,19.34,0,0,1,7.88,1.55,18.59,18.59,0,0,1,6,4.16,18.14,18.14,0,0,1,3.77,5.94A18.9,18.9,0,0,1,435.69,148.08Zm-18.94,14.74a15.76,15.76,0,0,0,6.43-1.25,14.27,14.27,0,0,0,4.75-3.31,14.43,14.43,0,0,0,3-4.72,15,15,0,0,0,1-5.46,15.26,15.26,0,0,0-1-5.48,14.66,14.66,0,0,0-3-4.75,14.49,14.49,0,0,0-4.75-3.34,15.6,15.6,0,0,0-6.43-1.26H403.24v29.57Z"/><path class="cls-1" d="M474.92,129.51a1.45,1.45,0,0,1,.93.28,1.09,1.09,0,0,1,.36.91v1.16a1.18,1.18,0,0,1-1.29,1.26H461v44.36a1.06,1.06,0,0,1-1.22,1.19h-1.19a1.05,1.05,0,0,1-1.2-1.19V133.12H442.91a1.1,1.1,0,0,1-1.23-1.26V130.7a1.07,1.07,0,0,1,1.23-1.19Z"/><path class="cls-1" d="M516.21,129.51a1.1,1.1,0,0,1,1.26,1.22v1.16a1.27,1.27,0,0,1-.32.9,1.24,1.24,0,0,1-.94.33h-29.5v24.7h23.84a1.34,1.34,0,0,1,.91.29,1.21,1.21,0,0,1,.35,1v1.2a1.18,1.18,0,0,1-.34.89,1.25,1.25,0,0,1-.92.33H486.71v13.57h30a1.1,1.1,0,0,1,1.26,1.23v1.19c0,.8-.41,1.19-1.23,1.19H484.09a1,1,0,0,1-.81-.31,1.35,1.35,0,0,1-.25-.84V130.7c0-.51.13-.83.39-1a1.69,1.69,0,0,1,.84-.21Z"/><path class="cls-1" d="M564.51,134.34a1.14,1.14,0,0,1,.53.93,1.31,1.31,0,0,1-.33.73,3,3,0,0,0-.23.31,5.47,5.47,0,0,1-.41.53,5,5,0,0,1-.52.51.75.75,0,0,1-.49.24h-.14a1.14,1.14,0,0,1-.26-.05,1.84,1.84,0,0,1-.4-.22,23.93,23.93,0,0,0-6.11-3.42,19.33,19.33,0,0,0-7-1.25,21.66,21.66,0,0,0-5.84.78,22,22,0,0,0-5.23,2.2,21.5,21.5,0,0,0-4.4,3.41,22.05,22.05,0,0,0-3.38,4.39,21.56,21.56,0,0,0-2.17,5.13,21.34,21.34,0,0,0,0,11.36,21.32,21.32,0,0,0,2.2,5.11,22,22,0,0,0,3.39,4.34,21.94,21.94,0,0,0,9.44,5.5,20.87,20.87,0,0,0,5.61.76,22,22,0,0,0,13-4.47l.82-.47a1.27,1.27,0,0,1,.53-.16.94.94,0,0,1,.55.26,4.8,4.8,0,0,1,.61.65,3.76,3.76,0,0,1,.5.81,1.91,1.91,0,0,1,.2.76.8.8,0,0,1-.17.51,2.55,2.55,0,0,1-.43.45,25.92,25.92,0,0,1-7.17,4,25.64,25.64,0,0,1-18.24-.56,25.43,25.43,0,0,1-8-5.4,25.82,25.82,0,0,1-5.38-8,25.4,25.4,0,0,1-1.07-16.51,25.17,25.17,0,0,1,2.53-6,25.62,25.62,0,0,1,3.94-5.11,24.67,24.67,0,0,1,5.1-4,25.84,25.84,0,0,1,6-2.55,24.8,24.8,0,0,1,6.7-.91,23.67,23.67,0,0,1,8.34,1.46A28.43,28.43,0,0,1,564.51,134.34Z"/><path class="cls-1" d="M601,175.06a1.28,1.28,0,0,1,.89.3,1.2,1.2,0,0,1,.33.93v1.19a1.15,1.15,0,0,1-.33.88,1.24,1.24,0,0,1-.89.31H574a1.27,1.27,0,0,1-.89-.29,1.16,1.16,0,0,1-.33-.9V130.7a1.15,1.15,0,0,1,.33-.88,1.28,1.28,0,0,1,.92-.31h1.2a1.28,1.28,0,0,1,.89.3,1.13,1.13,0,0,1,.33.89v44.36Z"/><path class="cls-1" d="M605.07,154.14a25,25,0,0,1,3.43-12.73,25.32,25.32,0,0,1,9-9,25.77,25.77,0,0,1,6-2.55,25.16,25.16,0,0,1,13.41,0,26,26,0,0,1,6,2.55,25.22,25.22,0,0,1,5.09,3.94,25.28,25.28,0,0,1,6.49,11.13,25.08,25.08,0,0,1,0,13.39,25.36,25.36,0,0,1-6.49,11.11A24.88,24.88,0,0,1,637,178.41a25.7,25.7,0,0,1-13.41,0,25.09,25.09,0,0,1-18.49-24.27Zm3.67,0a21,21,0,0,0,1.69,8.36,21.62,21.62,0,0,0,4.62,6.84,22.05,22.05,0,0,0,6.86,4.6,21,21,0,0,0,8.36,1.69,21.78,21.78,0,0,0,5.71-.76,21,21,0,0,0,5.14-2.17,22,22,0,0,0,7.74-7.73,22.17,22.17,0,0,0,2.18-5.12,21.29,21.29,0,0,0-.93-14.07,21.84,21.84,0,0,0-11.48-11.49,21.39,21.39,0,0,0-14.08-.92,21.59,21.59,0,0,0-5.13,2.18,22,22,0,0,0-4.37,3.38,21.43,21.43,0,0,0-3.36,4.35,22,22,0,0,0-2.17,5.15A20.93,20.93,0,0,0,608.74,154.14Z"/><path class="cls-1" d="M666.09,159.07a17.4,17.4,0,0,0,1.24,6.59,16.59,16.59,0,0,0,3.44,5.37,16,16,0,0,0,5.23,3.59,16.56,16.56,0,0,0,6.61,1.31,16.81,16.81,0,0,0,6.69-1.31,15.78,15.78,0,0,0,5.23-3.59,16.14,16.14,0,0,0,3.39-5.37,17.78,17.78,0,0,0,1.21-6.59V130.7a1.13,1.13,0,0,1,.35-.88,1.29,1.29,0,0,1,.91-.31h1.09a1.4,1.4,0,0,1,.94.31,1.06,1.06,0,0,1,.39.88v28.77a20.45,20.45,0,0,1-1.63,8A19.49,19.49,0,0,1,690.46,178a20.77,20.77,0,0,1-7.85,1.49,20.21,20.21,0,0,1-5.36-.71,19.85,19.85,0,0,1-4.82-2,20.42,20.42,0,0,1-4.07-3.15,19.19,19.19,0,0,1-3.15-4.07,21.15,21.15,0,0,1-2-4.81,19.74,19.74,0,0,1-.72-5.35V130.7a1.28,1.28,0,0,1,.29-.84,1.06,1.06,0,0,1,.87-.35h1.25a1.26,1.26,0,0,1,.86.31,1.08,1.08,0,0,1,.37.88Z"/><path class="cls-1" d="M712.8,130.77a1.29,1.29,0,0,1,.3-.9,1.11,1.11,0,0,1,.8-.36h16a24.26,24.26,0,0,1,6.54.93,24.79,24.79,0,0,1,5.86,2.49,25.47,25.47,0,0,1,5,3.84,24.14,24.14,0,0,1,3.81,5,26,26,0,0,1,2.45,5.88,25.05,25.05,0,0,1,0,13.09,24.79,24.79,0,0,1-2.49,5.86,24.3,24.3,0,0,1-8.89,8.78,25.74,25.74,0,0,1-5.91,2.45,24.57,24.57,0,0,1-6.57.87H714.06a1.61,1.61,0,0,1-.84-.23.83.83,0,0,1-.42-.79Zm16.72,44.33a21.24,21.24,0,0,0,15.12-6.24,20.39,20.39,0,0,0,3.29-4.29,21,21,0,0,0,2.1-5,20.75,20.75,0,0,0,.75-5.58,20.26,20.26,0,0,0-1.69-8.32A20.47,20.47,0,0,0,744.5,139a21.47,21.47,0,0,0-14.88-5.93H716.48v42Z"/></svg>