<svg id="Camada_1" data-name="Camada 1" xmlns="http://www.w3.org/2000/svg" viewBox="0 0 873.09 308.38"><defs><style>.cls-1{fill:#1f86a7;}.cls-2{fill:#fff;}</style></defs><title>logo</title><path class="cls-1" d="M247.87,141.43c-7.46-3.77-16.7-4.35-22.87-1.52v21.5h37.68C260.44,150,253.47,144.26,247.87,141.43Z"/><path class="cls-1" d="M279.89,181.28v-1.73a15.08,15.08,0,0,0-4.46-10.83,15.52,15.52,0,0,0-11-4.34H225v32.19l39.72-.12A15.18,15.18,0,0,0,279.89,181.28Z"/><path class="cls-1" d="M222,139h0c0-4.31-3.24-11.79-9.33-17.74a32.22,32.22,0,0,0-22.87-9.44h-2.69v49.6H222Z"/><path class="cls-1" d="M146.41,196.57h37.75V177.16h-63A26.23,26.23,0,0,0,146.41,196.57Z"/><path class="cls-1" d="M184.16,111.9c-18,1.13-30.31,14.84-33.52,28.34h33.52Z"/><path class="cls-1" d="M184.16,143.21H148.81l-3.12,0c-14.28,0-25.47,11.6-25.47,26.33v.82a26.76,26.76,0,0,0,.28,3.83l.27,0h63.39Z"/><rect class="cls-1" x="187.13" y="164.38" width="34.9" height="32.19"/><path class="cls-2" d="M336,134.34a1.17,1.17,0,0,1,.53.93,1.31,1.31,0,0,1-.33.73,2,2,0,0,0-.23.31,4.4,4.4,0,0,1-.42.53,4.09,4.09,0,0,1-.51.51.77.77,0,0,1-.5.24h-.13a1.14,1.14,0,0,1-.26-.05,1.64,1.64,0,0,1-.4-.22,24.1,24.1,0,0,0-6.11-3.42,19.37,19.37,0,0,0-7-1.25,21.61,21.61,0,0,0-5.84.78,21.63,21.63,0,0,0-13,10,21.56,21.56,0,0,0-2.17,5.13,20.87,20.87,0,0,0-.76,5.65,21.1,21.1,0,0,0,.77,5.71,21.35,21.35,0,0,0,2.21,5.11,22,22,0,0,0,3.39,4.34,21.33,21.33,0,0,0,4.35,3.34,21.83,21.83,0,0,0,5.09,2.16,20.76,20.76,0,0,0,5.61.76,22,22,0,0,0,13-4.47l.83-.47a1.27,1.27,0,0,1,.53-.16,1,1,0,0,1,.55.26,4.8,4.8,0,0,1,.61.65,4.2,4.2,0,0,1,.5.81,1.88,1.88,0,0,1,.19.76.8.8,0,0,1-.16.51,3,3,0,0,1-.43.45,26.21,26.21,0,0,1-7.17,4,25.64,25.64,0,0,1-18.24-.56,25.32,25.32,0,0,1-8-5.4,25.65,25.65,0,0,1-5.38-8,25.4,25.4,0,0,1-1.07-16.51,25.18,25.18,0,0,1,6.47-11.12,24.41,24.41,0,0,1,5.1-4,25.77,25.77,0,0,1,6-2.55,24.87,24.87,0,0,1,6.71-.91,23.71,23.71,0,0,1,8.34,1.46A28.92,28.92,0,0,1,336,134.34Z"/><path class="cls-2" d="M339,154.14a25,25,0,0,1,3.43-12.73,25.32,25.32,0,0,1,9-9,25.77,25.77,0,0,1,6-2.55,25.16,25.16,0,0,1,13.41,0,26,26,0,0,1,6,2.55,25.22,25.22,0,0,1,5.09,3.94,25.28,25.28,0,0,1,6.49,11.13,25.08,25.08,0,0,1,0,13.39A25.36,25.36,0,0,1,382,171.94a24.88,24.88,0,0,1-11.12,6.47,25.7,25.7,0,0,1-13.41,0A25.09,25.09,0,0,1,339,154.14Zm3.68,0a21,21,0,0,0,1.68,8.36,21.62,21.62,0,0,0,4.62,6.84,22.05,22.05,0,0,0,6.86,4.6,21,21,0,0,0,8.36,1.69,21.78,21.78,0,0,0,5.71-.76,21,21,0,0,0,5.14-2.17,22,22,0,0,0,7.74-7.73,22.17,22.17,0,0,0,2.18-5.12,21.29,21.29,0,0,0-.93-14.07,21.84,21.84,0,0,0-11.48-11.49,21.39,21.39,0,0,0-14.08-.92,21.59,21.59,0,0,0-5.13,2.18,22,22,0,0,0-4.37,3.38,21.43,21.43,0,0,0-3.36,4.35,22,22,0,0,0-2.17,5.15A20.92,20.92,0,0,0,342.7,154.14Z"/><path class="cls-2" d="M434.21,148.08a18.52,18.52,0,0,1-.57,4.57,17.83,17.83,0,0,1-1.65,4.27,19.23,19.23,0,0,1-2.68,3.76,16.84,16.84,0,0,1-3.65,3L432,177.12a1.65,1.65,0,0,1,.07.26,2.48,2.48,0,0,1,0,.33,1,1,0,0,1-.25.67.85.85,0,0,1-.71.29h-2a1,1,0,0,1-1-.69l-6-12.62a18.86,18.86,0,0,1-7,1.23H401.76v10.83a1.12,1.12,0,0,1-1.29,1.25h-1.23a1.1,1.1,0,0,1-1.25-1.25V130.87a1.37,1.37,0,0,1,.34-1,1.18,1.18,0,0,1,.81-.41h16.13a19.37,19.37,0,0,1,7.88,1.55,18.44,18.44,0,0,1,6,4.16,18,18,0,0,1,3.78,5.94A18.9,18.9,0,0,1,434.21,148.08Zm-18.94,14.74a15.75,15.75,0,0,0,6.42-1.25,14.17,14.17,0,0,0,4.75-3.31,14.43,14.43,0,0,0,3-4.72,14.83,14.83,0,0,0,1-5.46,15,15,0,0,0-1-5.48,14.66,14.66,0,0,0-3-4.75,14.38,14.38,0,0,0-4.75-3.34,15.58,15.58,0,0,0-6.42-1.26H401.76v29.57Z"/><path class="cls-2" d="M473.44,129.51a1.44,1.44,0,0,1,.92.28,1.06,1.06,0,0,1,.37.91v1.16a1.18,1.18,0,0,1-1.29,1.26h-14v44.36c0,.8-.41,1.19-1.23,1.19h-1.19a1,1,0,0,1-1.19-1.19V133.12H441.42a1.1,1.1,0,0,1-1.22-1.26V130.7a1.07,1.07,0,0,1,1.22-1.19Z"/><path class="cls-2" d="M514.72,129.51a1.1,1.1,0,0,1,1.26,1.22v1.16a1.12,1.12,0,0,1-1.26,1.23h-29.5v24.7h23.84a1.33,1.33,0,0,1,.91.29,1.21,1.21,0,0,1,.35,1v1.2a1.21,1.21,0,0,1-.33.89,1.26,1.26,0,0,1-.93.33H485.22v13.57h30a1.1,1.1,0,0,1,1.26,1.23v1.19a1.06,1.06,0,0,1-1.22,1.19H482.61a1,1,0,0,1-.81-.31,1.29,1.29,0,0,1-.25-.84V130.7c0-.51.13-.83.38-1a1.69,1.69,0,0,1,.84-.21Z"/><path class="cls-2" d="M563,134.34a1.17,1.17,0,0,1,.53.93,1.31,1.31,0,0,1-.33.73,1.5,1.5,0,0,0-.23.31,5.68,5.68,0,0,1-.42.53,4.91,4.91,0,0,1-.51.51.77.77,0,0,1-.5.24h-.13a1.12,1.12,0,0,1-.27-.05,1.6,1.6,0,0,1-.39-.22,24.1,24.1,0,0,0-6.11-3.42,19.41,19.41,0,0,0-7-1.25,21.61,21.61,0,0,0-5.84.78,22.09,22.09,0,0,0-5.24,2.2,21.5,21.5,0,0,0-4.4,3.41,22.43,22.43,0,0,0-3.38,4.39,21.53,21.53,0,0,0-2.16,5.13,21.2,21.2,0,0,0,0,11.36,21.32,21.32,0,0,0,2.2,5.11,21.64,21.64,0,0,0,3.4,4.34,21.33,21.33,0,0,0,4.35,3.34,21.76,21.76,0,0,0,5.08,2.16,20.89,20.89,0,0,0,5.62.76,22,22,0,0,0,13-4.47l.83-.47a1.23,1.23,0,0,1,.53-.16.94.94,0,0,1,.54.26,4.85,4.85,0,0,1,.62.65,4.16,4.16,0,0,1,.49.81,1.91,1.91,0,0,1,.2.76.8.8,0,0,1-.16.51,3.57,3.57,0,0,1-.43.45,26.21,26.21,0,0,1-7.17,4,25.66,25.66,0,0,1-18.25-.56,25.39,25.39,0,0,1-8-5.4,25.65,25.65,0,0,1-5.38-8,24.68,24.68,0,0,1-2-9.82,25.16,25.16,0,0,1,7.37-17.81,24.61,24.61,0,0,1,5.09-4,26,26,0,0,1,6-2.55,24.85,24.85,0,0,1,6.7-.91,23.76,23.76,0,0,1,8.35,1.46A28.92,28.92,0,0,1,563,134.34Z"/><path class="cls-2" d="M599.51,175.06a1.29,1.29,0,0,1,.9.3,1.2,1.2,0,0,1,.33.93v1.19a1.15,1.15,0,0,1-.33.88,1.25,1.25,0,0,1-.9.31h-27a1.28,1.28,0,0,1-.9-.29,1.16,1.16,0,0,1-.33-.9V130.7a1.15,1.15,0,0,1,.33-.88,1.29,1.29,0,0,1,.93-.31h1.19a1.3,1.3,0,0,1,.9.3,1.13,1.13,0,0,1,.33.89v44.36Z"/><path class="cls-2" d="M603.58,154.14A25.29,25.29,0,0,1,607,141.41a25.28,25.28,0,0,1,3.94-5.1,25,25,0,0,1,5.1-3.94,25.66,25.66,0,0,1,6-2.55,25.12,25.12,0,0,1,13.4,0,25.84,25.84,0,0,1,6,2.55,25.56,25.56,0,0,1,5.1,3.94,25.28,25.28,0,0,1,3.94,5.1,25.84,25.84,0,0,1,2.55,6,25.08,25.08,0,0,1,0,13.39,26.06,26.06,0,0,1-2.55,6,25.56,25.56,0,0,1-3.94,5.1,25.93,25.93,0,0,1-5.1,3.94,25.37,25.37,0,0,1-6,2.53,25.66,25.66,0,0,1-13.4,0A25,25,0,0,1,611,171.94a25.56,25.56,0,0,1-3.94-5.1,25.17,25.17,0,0,1-2.53-6A24.66,24.66,0,0,1,603.58,154.14Zm3.68,0A20.86,20.86,0,0,0,609,162.5a21.29,21.29,0,0,0,4.62,6.84,21.89,21.89,0,0,0,6.85,4.6,21,21,0,0,0,8.36,1.69,21.72,21.72,0,0,0,5.71-.76,21.19,21.19,0,0,0,5.15-2.17,21.89,21.89,0,0,0,4.35-3.38,21.52,21.52,0,0,0,5.56-9.47,21.36,21.36,0,0,0-.92-14.07,21.9,21.9,0,0,0-11.49-11.49,21.36,21.36,0,0,0-14.07-.92,21.69,21.69,0,0,0-9.5,5.56,20.74,20.74,0,0,0-3.36,4.35,22,22,0,0,0-2.17,5.15A20.93,20.93,0,0,0,607.26,154.14Z"/><path class="cls-2" d="M664.6,159.07a17.6,17.6,0,0,0,1.24,6.59,16.61,16.61,0,0,0,3.45,5.37,15.89,15.89,0,0,0,5.23,3.59,16.51,16.51,0,0,0,6.6,1.31,16.81,16.81,0,0,0,6.69-1.31A15.68,15.68,0,0,0,693,171a16.33,16.33,0,0,0,3.4-5.37,18,18,0,0,0,1.2-6.59V130.7a1.13,1.13,0,0,1,.35-.88,1.31,1.31,0,0,1,.91-.31H700a1.44,1.44,0,0,1,.94.31,1.09,1.09,0,0,1,.38.88v28.77a20.27,20.27,0,0,1-1.62,8A19.46,19.46,0,0,1,689,178a20.77,20.77,0,0,1-7.85,1.49,20.26,20.26,0,0,1-5.36-.71,20,20,0,0,1-4.82-2,20.71,20.71,0,0,1-4.07-3.15,19.48,19.48,0,0,1-3.14-4.07,20.29,20.29,0,0,1-2-4.81,19.36,19.36,0,0,1-.73-5.35V130.7a1.24,1.24,0,0,1,.3-.84,1,1,0,0,1,.86-.35h1.26a1.26,1.26,0,0,1,.86.31,1.1,1.1,0,0,1,.36.88Z"/><path class="cls-2" d="M711.32,130.77a1.29,1.29,0,0,1,.3-.9,1.09,1.09,0,0,1,.79-.36h16a24.37,24.37,0,0,1,6.54.93,25,25,0,0,1,5.86,2.49,25.4,25.4,0,0,1,5,3.84,24.14,24.14,0,0,1,3.81,5,25.08,25.08,0,0,1,2.45,5.88,24.78,24.78,0,0,1,0,13.09,24.36,24.36,0,0,1-2.48,5.86,23.86,23.86,0,0,1-3.88,5,24.38,24.38,0,0,1-5,3.81,25.74,25.74,0,0,1-5.91,2.45,24.68,24.68,0,0,1-6.57.87H712.58a1.67,1.67,0,0,1-.85-.23.84.84,0,0,1-.41-.79ZM728,175.1a21.35,21.35,0,0,0,5.73-.76,20.8,20.8,0,0,0,5.09-2.16,21.23,21.23,0,0,0,4.29-3.32,20.78,20.78,0,0,0,3.3-4.29,21.87,21.87,0,0,0,2.1-5,21.15,21.15,0,0,0,.74-5.58A20.52,20.52,0,0,0,743,139a21.52,21.52,0,0,0-14.88-5.93H715v42Z"/></svg>