<svg id="Camada_1" data-name="Camada 1" xmlns="http://www.w3.org/2000/svg" viewBox="0 0 519.05 308.38"><defs><style>.cls-1{fill:#1f86a7;}.cls-2{fill:#fff;}</style></defs><title>logo</title><path class="cls-1" d="M303.9,93.41h0c-.05-8.7-6.53-23.8-18.83-35.82a65.07,65.07,0,0,0-46.18-19.07h-5.44V138.68H303.9Z"/><path class="cls-1" d="M356.09,98.34c-15.06-7.62-33.72-8.79-46.19-3.08v43.42H386C381.46,115.65,367.39,104.05,356.09,98.34Z"/><path class="cls-1" d="M420.74,178.81v-3.5a30.41,30.41,0,0,0-9-21.88,31.31,31.31,0,0,0-22.15-8.75H309.9v65l80.2-.24A30.66,30.66,0,0,0,420.74,178.81Z"/><rect class="cls-1" x="233.43" y="144.68" width="70.47" height="65.01"/><path class="cls-1" d="M227.43,101.93H156.05l-6.3,0c-28.84.06-51.43,23.42-51.43,53.18v1.66a51.81,51.81,0,0,0,.57,7.73,3.1,3.1,0,0,1,.54-.05h128Z"/><path class="cls-1" d="M227.43,38.69c-36.26,2.29-61.2,30-67.68,57.24h67.68Z"/><path class="cls-1" d="M151.2,209.68h76.23v-39.2H100.12A53,53,0,0,0,151.2,209.68Z"/><path class="cls-2" d="M134.48,239.93a.76.76,0,0,1,.35.61.93.93,0,0,1-.22.49,1.21,1.21,0,0,0-.15.2c-.08.11-.17.23-.28.36l-.34.34a.54.54,0,0,1-.33.15h-.09l-.17,0a1.08,1.08,0,0,1-.27-.15,16.21,16.21,0,0,0-4-2.27,12.84,12.84,0,0,0-4.62-.82,14.59,14.59,0,0,0-3.88.51,14.82,14.82,0,0,0-3.47,1.46,14,14,0,0,0-2.92,2.27A14.37,14.37,0,0,0,111.8,246a14,14,0,0,0-1.44,3.4,13.8,13.8,0,0,0-.51,3.75,14,14,0,0,0,.52,3.79,14.18,14.18,0,0,0,1.46,3.39,14.49,14.49,0,0,0,5.14,5.1,14.33,14.33,0,0,0,3.37,1.42,13.6,13.6,0,0,0,3.73.51,14.6,14.6,0,0,0,8.65-3l.55-.3a.76.76,0,0,1,.35-.11.58.58,0,0,1,.36.17,2.82,2.82,0,0,1,.41.43,3,3,0,0,1,.33.54,1.2,1.2,0,0,1,.13.5.53.53,0,0,1-.11.34,1.92,1.92,0,0,1-.28.3,17.46,17.46,0,0,1-4.76,2.63,17,17,0,0,1-12.1-.38,16.63,16.63,0,0,1-5.31-3.58,16.88,16.88,0,0,1-3.57-5.31,16.75,16.75,0,0,1,3.58-18.33,16.57,16.57,0,0,1,3.39-2.63,17,17,0,0,1,4-1.69,16.43,16.43,0,0,1,4.45-.61,15.86,15.86,0,0,1,5.54,1A19.12,19.12,0,0,1,134.48,239.93Z"/><path class="cls-2" d="M136.45,253.06a16.42,16.42,0,0,1,.6-4.45,16.21,16.21,0,0,1,1.68-4,16.47,16.47,0,0,1,2.61-3.39,17.44,17.44,0,0,1,3.38-2.61,17.11,17.11,0,0,1,4-1.69,16.54,16.54,0,0,1,8.9,0,16.75,16.75,0,0,1,7.38,4.3,16.9,16.9,0,0,1,4.3,7.38,16.5,16.5,0,0,1,0,8.89,16.76,16.76,0,0,1-7.68,10,16.8,16.8,0,0,1-16.9,0,16.75,16.75,0,0,1-6-6,16.72,16.72,0,0,1-2.28-8.43Zm2.44,0a14,14,0,0,0,1.12,5.55,14.24,14.24,0,0,0,3.07,4.53,14.53,14.53,0,0,0,4.54,3.06,14.32,14.32,0,0,0,9.34.61,13.4,13.4,0,0,0,3.41-1.44,13.91,13.91,0,0,0,2.89-2.24,14.47,14.47,0,0,0,2.24-2.88,14,14,0,0,0,1.45-3.4,13.55,13.55,0,0,0,.52-3.79,13.79,13.79,0,0,0-1.13-5.54,14.55,14.55,0,0,0-7.62-7.63,14.14,14.14,0,0,0-9.34-.61,14.45,14.45,0,0,0-3.4,1.45,14,14,0,0,0-2.9,2.24,13.53,13.53,0,0,0-2.23,2.89,14.15,14.15,0,0,0-1.44,3.41A13.76,13.76,0,0,0,138.89,253.06Z"/><path class="cls-2" d="M199.6,249a12.32,12.32,0,0,1-.37,3,11.78,11.78,0,0,1-1.1,2.84,12.2,12.2,0,0,1-1.78,2.49,11.31,11.31,0,0,1-2.41,2l4.21,8.92a.59.59,0,0,1,0,.17c0,.09,0,.16,0,.22a.66.66,0,0,1-.16.44.6.6,0,0,1-.48.2h-1.29a.69.69,0,0,1-.64-.46l-4-8.37a12.61,12.61,0,0,1-4.66.81h-9v7.18a.75.75,0,0,1-.86.84h-.81a.74.74,0,0,1-.84-.84V237.62a.92.92,0,0,1,.23-.63.83.83,0,0,1,.54-.27H187a12.78,12.78,0,0,1,5.23,1,12.24,12.24,0,0,1,4,2.76,12.09,12.09,0,0,1,2.51,3.94A12.67,12.67,0,0,1,199.6,249ZM187,258.82a10.41,10.41,0,0,0,4.26-.83,9.46,9.46,0,0,0,3.15-2.19,9.75,9.75,0,0,0,2-3.13,10,10,0,0,0,0-7.26,9.74,9.74,0,0,0-2-3.15A9.25,9.25,0,0,0,191.3,240a10.25,10.25,0,0,0-4.26-.84h-9v19.62Z"/><path class="cls-2" d="M225.63,236.72a1,1,0,0,1,.62.19.7.7,0,0,1,.24.6v.77a.81.81,0,0,1-.22.6.82.82,0,0,1-.64.23h-9.27v29.44a.71.71,0,0,1-.81.79h-.79a.7.7,0,0,1-.79-.79V239.11h-9.58a.72.72,0,0,1-.81-.83v-.77a.71.71,0,0,1,.81-.79Z"/><path class="cls-2" d="M253,236.72q.84,0,.84.81v.77a.8.8,0,0,1-.21.59.82.82,0,0,1-.63.22H233.45V255.5h15.82a.89.89,0,0,1,.6.2.77.77,0,0,1,.23.64v.79a.78.78,0,0,1-.22.59.8.8,0,0,1-.61.22H233.45v9h19.93a.73.73,0,0,1,.83.82v.79a.71.71,0,0,1-.81.79H231.72a.65.65,0,0,1-.54-.21.87.87,0,0,1-.17-.56V237.51c0-.34.09-.55.26-.65a1.13,1.13,0,0,1,.56-.14Z"/><path class="cls-2" d="M285.07,239.93a.73.73,0,0,1,.35.61.86.86,0,0,1-.22.49,1.21,1.21,0,0,0-.15.2,3.58,3.58,0,0,1-.28.36c-.11.12-.22.23-.34.34a.49.49,0,0,1-.33.15H284l-.18,0a1,1,0,0,1-.26-.15,16.09,16.09,0,0,0-4.06-2.27,12.84,12.84,0,0,0-4.62-.82,14.59,14.59,0,0,0-3.88.51,15,15,0,0,0-3.47,1.46,14.24,14.24,0,0,0-7.1,12.33,14,14,0,0,0,.51,3.79,14.25,14.25,0,0,0,3.72,6.27,14.75,14.75,0,0,0,2.88,2.22,14.4,14.4,0,0,0,3.38,1.42,13.47,13.47,0,0,0,3.72.51,14.58,14.58,0,0,0,8.65-3l.55-.3a.79.79,0,0,1,.35-.11.58.58,0,0,1,.37.17,2.78,2.78,0,0,1,.4.43,2.18,2.18,0,0,1,.33.54,1.2,1.2,0,0,1,.13.5.48.48,0,0,1-.11.34,1.54,1.54,0,0,1-.28.3,17.46,17.46,0,0,1-4.76,2.63,16.73,16.73,0,0,1-17.4-4,16.88,16.88,0,0,1-3.57-5.31,16.37,16.37,0,0,1-1.31-6.52,16.62,16.62,0,0,1,.59-4.43,17.19,17.19,0,0,1,1.68-4,16.88,16.88,0,0,1,2.62-3.39,16.24,16.24,0,0,1,3.38-2.63,17.11,17.11,0,0,1,4-1.69,16.43,16.43,0,0,1,4.45-.61,15.8,15.8,0,0,1,5.53,1A19,19,0,0,1,285.07,239.93Z"/><path class="cls-2" d="M309.28,266.94a.86.86,0,0,1,.59.2.78.78,0,0,1,.22.62v.79a.75.75,0,0,1-.22.58.82.82,0,0,1-.59.21H291.35a.86.86,0,0,1-.59-.2.74.74,0,0,1-.22-.59v-31a.75.75,0,0,1,.22-.58.85.85,0,0,1,.61-.21h.8a.88.88,0,0,1,.59.2.78.78,0,0,1,.22.59v29.43Z"/><path class="cls-2" d="M312,253.06a16.82,16.82,0,0,1,.59-4.45,16.75,16.75,0,0,1,11.68-11.68,16.5,16.5,0,0,1,8.89,0,16.75,16.75,0,0,1,7.38,4.3,16.88,16.88,0,0,1,2.62,3.39,17.47,17.47,0,0,1,1.69,4,16.77,16.77,0,0,1,0,8.89,17.66,17.66,0,0,1-1.69,4,17.1,17.1,0,0,1-2.62,3.38,16.77,16.77,0,0,1-20.27,2.61,16.15,16.15,0,0,1-3.38-2.61,16.54,16.54,0,0,1-4.3-7.37A16.69,16.69,0,0,1,312,253.06Zm2.44,0a13.87,13.87,0,0,0,1.12,5.55,14,14,0,0,0,3.06,4.53,14.58,14.58,0,0,0,4.55,3.06,14.29,14.29,0,0,0,9.33.61,13.47,13.47,0,0,0,3.42-1.44,14.17,14.17,0,0,0,2.89-2.24,14.28,14.28,0,0,0,3.69-6.28,13.93,13.93,0,0,0,.51-3.79,13.62,13.62,0,0,0-1.13-5.54,14.46,14.46,0,0,0-7.62-7.63,13.84,13.84,0,0,0-5.55-1.13,14,14,0,0,0-3.79.52,14.63,14.63,0,0,0-3.4,1.45,14.33,14.33,0,0,0-5.13,5.13,15,15,0,0,0-1.44,3.41A14.14,14.14,0,0,0,314.42,253.06Z"/><path class="cls-2" d="M352.46,256.34a11.55,11.55,0,0,0,.82,4.37,10.94,10.94,0,0,0,2.29,3.56,10.57,10.57,0,0,0,3.47,2.38,10.91,10.91,0,0,0,4.38.87,11.13,11.13,0,0,0,4.44-.87,10.47,10.47,0,0,0,3.47-2.38,10.68,10.68,0,0,0,2.25-3.56,11.94,11.94,0,0,0,.8-4.37V237.51a.75.75,0,0,1,.23-.58.89.89,0,0,1,.61-.21h.72a1,1,0,0,1,.63.21.7.7,0,0,1,.25.58V256.6a13.32,13.32,0,0,1-1.08,5.33,12.89,12.89,0,0,1-7.11,6.95,13.72,13.72,0,0,1-5.21,1,13.13,13.13,0,0,1-3.56-.48,12.7,12.7,0,0,1-3.19-1.35A14,14,0,0,1,354,266a13.31,13.31,0,0,1-2.08-2.7,13.92,13.92,0,0,1-1.35-3.2,13.06,13.06,0,0,1-.49-3.55v-19a.83.83,0,0,1,.2-.56.72.72,0,0,1,.57-.23h.84a.84.84,0,0,1,.57.21.73.73,0,0,1,.24.58Z"/><path class="cls-2" d="M383.45,237.56a.89.89,0,0,1,.2-.6.75.75,0,0,1,.53-.24h10.59a15.9,15.9,0,0,1,4.33.62,16.4,16.4,0,0,1,7.19,4.2,15.86,15.86,0,0,1,2.52,3.3,16.47,16.47,0,0,1,1.63,3.9,16.53,16.53,0,0,1,0,8.68,16.38,16.38,0,0,1-1.65,3.89,16,16,0,0,1-5.9,5.82,16.79,16.79,0,0,1-3.92,1.63,16.56,16.56,0,0,1-4.36.58H384.29a1.15,1.15,0,0,1-.56-.15.56.56,0,0,1-.28-.53ZM394.55,267a14.11,14.11,0,0,0,3.8-.51,13.53,13.53,0,0,0,3.38-1.43,14.11,14.11,0,0,0,2.84-2.2,13.69,13.69,0,0,0,2.19-2.85,14.17,14.17,0,0,0,1.39-3.35,13.77,13.77,0,0,0,.5-3.7,13.62,13.62,0,0,0-1.12-5.52,13.75,13.75,0,0,0-3-4.39,14.31,14.31,0,0,0-9.88-3.93h-8.72V267Z"/></svg>