<svg id="Camada_1" data-name="Camada 1" xmlns="http://www.w3.org/2000/svg" viewBox="0 0 519.05 308.38"><defs><style>.cls-1{fill:#1f86a7;}.cls-2{fill:#fff;}</style></defs><title>logo</title><path class="cls-1" d="M388.89,144.68c20.35-.33,34.85,15.06,34.85,33.63v3.5a33.63,33.63,0,0,1-33.63,33.62l-83.33.25H151.2A56,56,0,0,1,95.31,159.8v-1.66c0-31,23.39-56.11,54.44-56.18l6.29,0c5.7-31.71,34.88-63.41,76.23-63.41h5.35c44.78-.75,69.16,39.58,69.26,57.86,23-12.2,75.23-2.07,82.67,48.3"/><path class="cls-2" d="M415.94,152.16a36.92,36.92,0,0,0-23.83-10.4C388.38,121.19,376.62,105,358.8,96c-15.79-8-35.35-9.47-49.33-4.07-1.62-9.81-8.11-23.77-20.23-35.62a70.93,70.93,0,0,0-51.62-20.77h-5.35c-42.62,0-71.91,32.23-78.69,63.42l-3.84,0C117.54,99,92.32,125,92.32,158.14v1.66a58.94,58.94,0,0,0,58.88,58.88l238.91-.25a36.67,36.67,0,0,0,36.63-36.62v-3.5A36.36,36.36,0,0,0,415.94,152.16Zm-59.85-50.82c11.3,5.71,25.37,17.31,29.89,40.34H309.9V98.26C322.37,92.55,341,93.72,356.09,101.34ZM237.67,41.52h1.2a65.07,65.07,0,0,1,46.18,19.07c12.3,12,18.78,27.12,18.83,35.82h0v45.27H233.43V41.52ZM303.9,212.68H233.43v-65H303.9Zm-76.47-171V98.93H159.75C166.23,71.67,191.17,44,227.43,41.69ZM98.32,158.14c0-29.76,22.59-53.12,51.43-53.18l6.3,0h71.38v62.55h-128a3.1,3.1,0,0,0-.54.05,51.81,51.81,0,0,1-.57-7.73Zm1.8,15.34H227.43v39.2H151.2A53,53,0,0,1,100.12,173.48Zm320.62,8.33a30.66,30.66,0,0,1-30.64,30.62l-80.2.24v-65h79.68a31.31,31.31,0,0,1,22.15,8.75,30.41,30.41,0,0,1,9,21.88Z"/><path class="cls-2" d="M134.48,242.93a.76.76,0,0,1,.35.61.93.93,0,0,1-.22.49.87.87,0,0,0-.15.2c-.08.11-.17.23-.28.36l-.34.34a.54.54,0,0,1-.33.15h-.09l-.17,0a1.08,1.08,0,0,1-.27-.15,16.21,16.21,0,0,0-4-2.27,12.84,12.84,0,0,0-4.62-.82,14.59,14.59,0,0,0-3.88.51,14.82,14.82,0,0,0-3.47,1.46,14,14,0,0,0-2.92,2.27A14.37,14.37,0,0,0,111.8,249a14,14,0,0,0-1.44,3.4,13.8,13.8,0,0,0-.51,3.75,14,14,0,0,0,.52,3.79,14.18,14.18,0,0,0,1.46,3.39,14.49,14.49,0,0,0,5.14,5.1,14.33,14.33,0,0,0,3.37,1.42,13.6,13.6,0,0,0,3.73.51,14.6,14.6,0,0,0,8.65-3l.55-.3a.76.76,0,0,1,.35-.11.58.58,0,0,1,.36.17,2.82,2.82,0,0,1,.41.43,3,3,0,0,1,.33.54,1.2,1.2,0,0,1,.13.5.53.53,0,0,1-.11.34,1.92,1.92,0,0,1-.28.3,17.16,17.16,0,0,1-4.76,2.62,16.12,16.12,0,0,1-5.59.94,16.32,16.32,0,0,1-6.51-1.31,16.63,16.63,0,0,1-5.31-3.58,16.88,16.88,0,0,1-3.57-5.31,16.79,16.79,0,0,1,7-21,17,17,0,0,1,4-1.69,16.43,16.43,0,0,1,4.45-.61,15.86,15.86,0,0,1,5.54,1A19.12,19.12,0,0,1,134.48,242.93Z"/><path class="cls-2" d="M136.45,256.06a16.42,16.42,0,0,1,.6-4.45,16.21,16.21,0,0,1,1.68-4,16.47,16.47,0,0,1,2.61-3.39,16.75,16.75,0,0,1,7.38-4.3,16.54,16.54,0,0,1,8.9,0,17.3,17.3,0,0,1,4,1.69,17.05,17.05,0,0,1,3.38,2.61,16.9,16.9,0,0,1,4.3,7.38,16.5,16.5,0,0,1,0,8.89,16.76,16.76,0,0,1-7.68,10,16.8,16.8,0,0,1-16.9,0,16.75,16.75,0,0,1-6-6,16.72,16.72,0,0,1-2.28-8.43Zm2.44,0a14,14,0,0,0,1.12,5.55,14.24,14.24,0,0,0,3.07,4.53,14.53,14.53,0,0,0,4.54,3.06,14.32,14.32,0,0,0,9.34.61,13.4,13.4,0,0,0,3.41-1.44,13.91,13.91,0,0,0,2.89-2.24,14.47,14.47,0,0,0,2.24-2.88,14,14,0,0,0,1.45-3.4,13.55,13.55,0,0,0,.52-3.79,13.79,13.79,0,0,0-1.13-5.54,14.55,14.55,0,0,0-7.62-7.63,14.14,14.14,0,0,0-9.34-.61,14.45,14.45,0,0,0-3.4,1.45,14,14,0,0,0-2.9,2.24,13.53,13.53,0,0,0-2.23,2.89,14.15,14.15,0,0,0-1.44,3.41A13.76,13.76,0,0,0,138.89,256.06Z"/><path class="cls-2" d="M199.6,252a12.32,12.32,0,0,1-.37,3,11.94,11.94,0,0,1-1.1,2.84,12.2,12.2,0,0,1-1.78,2.49,11.31,11.31,0,0,1-2.41,2l4.21,8.92a.59.59,0,0,1,0,.17c0,.09,0,.16,0,.22a.66.66,0,0,1-.16.44.6.6,0,0,1-.48.2h-1.29a.69.69,0,0,1-.64-.46l-4-8.37a12.61,12.61,0,0,1-4.66.81h-9v7.18a.75.75,0,0,1-.86.84h-.81a.74.74,0,0,1-.84-.84V240.62a.92.92,0,0,1,.23-.63.83.83,0,0,1,.54-.27H187a12.78,12.78,0,0,1,5.23,1,12.24,12.24,0,0,1,4,2.76,12.09,12.09,0,0,1,2.51,3.94A12.67,12.67,0,0,1,199.6,252ZM187,261.82a10.41,10.41,0,0,0,4.26-.83,9.46,9.46,0,0,0,3.15-2.19,9.75,9.75,0,0,0,2-3.13,10,10,0,0,0,0-7.26,9.74,9.74,0,0,0-2-3.15A9.25,9.25,0,0,0,191.3,243a10.25,10.25,0,0,0-4.26-.84h-9v19.62Z"/><path class="cls-2" d="M225.63,239.72a1,1,0,0,1,.62.19.7.7,0,0,1,.24.6v.77a.81.81,0,0,1-.22.6.82.82,0,0,1-.64.23h-9.27v29.44a.71.71,0,0,1-.81.79h-.79a.7.7,0,0,1-.79-.79V242.11h-9.58a.72.72,0,0,1-.81-.83v-.77a.71.71,0,0,1,.81-.79Z"/><path class="cls-2" d="M253,239.72q.84,0,.84.81v.77a.8.8,0,0,1-.21.59.82.82,0,0,1-.63.22H233.45V258.5h15.82a.89.89,0,0,1,.6.2.77.77,0,0,1,.23.64v.79a.78.78,0,0,1-.22.59.8.8,0,0,1-.61.22H233.45v9h19.93a.73.73,0,0,1,.83.82v.79a.71.71,0,0,1-.81.79H231.72a.65.65,0,0,1-.54-.21.89.89,0,0,1-.17-.56V240.51c0-.34.09-.55.26-.65a1.13,1.13,0,0,1,.56-.14Z"/><path class="cls-2" d="M285.07,242.93a.73.73,0,0,1,.35.61.86.86,0,0,1-.22.49.87.87,0,0,0-.15.2,3.58,3.58,0,0,1-.28.36c-.11.12-.22.23-.34.34a.49.49,0,0,1-.33.15H284l-.18,0a1,1,0,0,1-.26-.15,16.09,16.09,0,0,0-4.06-2.27,12.84,12.84,0,0,0-4.62-.82,14.59,14.59,0,0,0-3.88.51,15,15,0,0,0-3.47,1.46,14.24,14.24,0,0,0-7.1,12.33,14,14,0,0,0,.51,3.79,14.25,14.25,0,0,0,3.72,6.27,14.75,14.75,0,0,0,2.88,2.22,14.4,14.4,0,0,0,3.38,1.42,13.47,13.47,0,0,0,3.72.51,14.58,14.58,0,0,0,8.65-3l.55-.3a.79.79,0,0,1,.35-.11.58.58,0,0,1,.37.17,2.78,2.78,0,0,1,.4.43,2.18,2.18,0,0,1,.33.54,1.2,1.2,0,0,1,.13.5.48.48,0,0,1-.11.34,1.54,1.54,0,0,1-.28.3,17.16,17.16,0,0,1-4.76,2.62,16.12,16.12,0,0,1-5.59.94,16.59,16.59,0,0,1-11.81-4.89,16.88,16.88,0,0,1-3.57-5.31,16.37,16.37,0,0,1-1.31-6.52,16.62,16.62,0,0,1,.59-4.43,17.19,17.19,0,0,1,1.68-4,16.88,16.88,0,0,1,2.62-3.39,15.92,15.92,0,0,1,3.38-2.63,17.11,17.11,0,0,1,4-1.69,16.43,16.43,0,0,1,4.45-.61,15.8,15.8,0,0,1,5.53,1A19,19,0,0,1,285.07,242.93Z"/><path class="cls-2" d="M309.28,269.94a.86.86,0,0,1,.59.2.78.78,0,0,1,.22.62v.79a.75.75,0,0,1-.22.58.82.82,0,0,1-.59.21H291.35a.86.86,0,0,1-.59-.2.74.74,0,0,1-.22-.59v-31a.75.75,0,0,1,.22-.58.85.85,0,0,1,.61-.21h.8a.88.88,0,0,1,.59.2.78.78,0,0,1,.22.59v29.43Z"/><path class="cls-2" d="M312,256.06a16.82,16.82,0,0,1,.59-4.45,16.65,16.65,0,0,1,4.3-7.38,16.49,16.49,0,0,1,3.38-2.61,17.11,17.11,0,0,1,4-1.69,16.5,16.5,0,0,1,8.89,0,17.11,17.11,0,0,1,4,1.69,16.8,16.8,0,0,1,6,6,17.47,17.47,0,0,1,1.69,4,16.77,16.77,0,0,1,0,8.89,17.66,17.66,0,0,1-1.69,4,17.1,17.1,0,0,1-2.62,3.38,16.77,16.77,0,0,1-20.27,2.61,16.15,16.15,0,0,1-3.38-2.61,16.54,16.54,0,0,1-4.3-7.37A16.69,16.69,0,0,1,312,256.06Zm2.44,0a13.87,13.87,0,0,0,1.12,5.55,14,14,0,0,0,3.06,4.53,14.58,14.58,0,0,0,4.55,3.06,14.29,14.29,0,0,0,9.33.61,13.47,13.47,0,0,0,3.42-1.44,14.17,14.17,0,0,0,2.89-2.24,14.28,14.28,0,0,0,3.69-6.28,13.93,13.93,0,0,0,.51-3.79,13.62,13.62,0,0,0-1.13-5.54,14.46,14.46,0,0,0-7.62-7.63,13.84,13.84,0,0,0-5.55-1.13,14,14,0,0,0-3.79.52,14.63,14.63,0,0,0-3.4,1.45,14.33,14.33,0,0,0-5.13,5.13,15,15,0,0,0-1.44,3.41A14.14,14.14,0,0,0,314.42,256.06Z"/><path class="cls-2" d="M352.46,259.34a11.59,11.59,0,0,0,.82,4.37,10.79,10.79,0,0,0,2.29,3.55,10.45,10.45,0,0,0,3.47,2.39,10.91,10.91,0,0,0,4.38.87,11.13,11.13,0,0,0,4.44-.87,10.35,10.35,0,0,0,3.47-2.39,10.54,10.54,0,0,0,2.25-3.55,12,12,0,0,0,.8-4.37V240.51a.75.75,0,0,1,.23-.58.89.89,0,0,1,.61-.21h.72a1,1,0,0,1,.63.21.7.7,0,0,1,.25.58V259.6a13.32,13.32,0,0,1-1.08,5.33,12.89,12.89,0,0,1-7.11,6.95,13.72,13.72,0,0,1-5.21,1,13.13,13.13,0,0,1-3.56-.48,12.7,12.7,0,0,1-3.19-1.35A14,14,0,0,1,354,269a13.31,13.31,0,0,1-2.08-2.7,13.92,13.92,0,0,1-1.35-3.2,13.06,13.06,0,0,1-.49-3.55v-19a.83.83,0,0,1,.2-.56.72.72,0,0,1,.57-.23h.84a.84.84,0,0,1,.57.21.73.73,0,0,1,.24.58Z"/><path class="cls-2" d="M383.45,240.55a.88.88,0,0,1,.2-.59.75.75,0,0,1,.53-.24h10.59a15.9,15.9,0,0,1,4.33.62,16.4,16.4,0,0,1,7.19,4.2,15.86,15.86,0,0,1,2.52,3.3,16.47,16.47,0,0,1,1.63,3.9,16.53,16.53,0,0,1,0,8.68,16.38,16.38,0,0,1-1.65,3.89,16,16,0,0,1-5.9,5.82,16.79,16.79,0,0,1-3.92,1.63,16.56,16.56,0,0,1-4.36.58H384.29a1.15,1.15,0,0,1-.56-.15.56.56,0,0,1-.28-.53ZM394.55,270a14.11,14.11,0,0,0,3.8-.51,13.53,13.53,0,0,0,3.38-1.43,14.11,14.11,0,0,0,2.84-2.2,13.69,13.69,0,0,0,2.19-2.85,14.17,14.17,0,0,0,1.39-3.35,13.77,13.77,0,0,0,.5-3.7,13.62,13.62,0,0,0-1.12-5.52,13.75,13.75,0,0,0-3-4.39,14.31,14.31,0,0,0-9.88-3.93h-8.72V270Z"/></svg>