<svg id="Camada_1" xmlns="http://www.w3.org/2000/svg" viewBox="0 0 61 101"><style>.st1{fill:#6118a0}.st2{fill:#8219bf}.st4{fill:#9619d1}.st5{fill:#741ab5}</style><path class="st1" d="M12.2 79.4l42.7 8.4-11.7 11.1-42.1-9.2z"/><path class="st2" d="M43.2 98.9L1.1 89.7v.8l42.1 9.3z"/><path fill="#6220a8" d="M43.2 99.8l11.7-11.2v-.8L43.2 98.9z"/><path class="st1" d="M15.2 3.5L16 79l35.6 7 3.6-78.5z"/><path class="st4" d="M15.2 3.5l40 4 1-1.1-39.5-3.8z"/><path class="st5" d="M55.2 7.5L51.6 86l1.1-.9 3.5-78.7z"/><path class="st1" d="M14.4 1.4l-.9 75-9.2 8.4-.8-76.2z"/><path class="st4" d="M3.5 8.6H2.2l11.1-7.4 1.1.2z"/><path class="st2" d="M3.5 8.6l.8 76.2-.9-.5L2.2 8.6"/><path class="st4" d="M16.9 1.7l42.2 3.4-10.7 8.1L5.3 9z"/><path class="st2" d="M48.4 13.2L5.3 9v.9l43.1 4.2z"/><path class="st5" d="M48.4 14.1L59.1 6v-.9l-10.7 8.1zm11.5-6.2l-4 77.1-9.1 8.3L51 15.1z"/><path class="st4" d="M51 15.1h-1.3l9.1-7.4 1.1.2z"/><path class="st2" d="M51 15.1l-4.2 78.2-.9-.5 3.8-77.7M5.3 12.5l.8 74.9L22.7 91l1.6-76.5z"/><path class="st4" d="M5.3 12.5l19 2 1-1-19-1.9z"/><path class="st5" d="M24.3 14.5L22.7 91l1.1-.8 1.5-76.7z"/><path class="st2" d="M47.1 17.1l-20.1-2-1.6 76.5 17.9 3.8z"/><path class="st4" d="M27 15.1l.8-.9 20.1 2-.8.9z"/><path class="st5" d="M47.9 16.2l-.8.9-3.8 78.3.8-.8z"/></svg>