<svg viewBox="0 0 391.7 489.9" xmlns="http://www.w3.org/2000/svg" xmlns:xlink="http://www.w3.org/1999/xlink"><style>.st0{opacity:0.1;fill:#444444;enable-background:new ;} .st1{clip-path:url(#e);} .st2{fill:#FFFFFF;} .st3{fill:#EDEDED;} .st4{fill:#9619D1;} .st5{clip-path:url(#c);} .st6{fill:#5A41A6;} .st7{fill:#4D0D6B;} .st8{fill:#601085;} .st9{fill:#8219BF;} .st10{fill:#6F18AD;} .st11{fill:#841AC1;} .st12{fill:#503E9B;} .st13{fill:#8726BF;} .st14{fill:#45398E;} .st15{fill:#3E3684;} .st16{fill:#58137C;} .st17{fill:#440E63;} .st18{fill:#8B1DCC;} .st19{clip-path:url(#a);fill:none;} .st20{opacity:0.1;fill:#20082D;enable-background:new ;} .st21{fill:#20082D;} .st22{fill:#F1E73A;}</style><path class="st0" d="M373.9 486.3H113.2c-7.4 0-13.5-6-13.5-13.5V22.1c0-7.4 6-13.5 13.5-13.5H374c7.4 0 13.5 6 13.5 13.5v450.8c-.1 7.4-6.1 13.4-13.6 13.4z"/><defs><path id="f" d="M368.9 481.3H108.2c-7.4 0-13.5-6-13.5-13.5V17.1c0-7.4 6-13.5 13.5-13.5H369c7.4 0 13.5 6 13.5 13.5v450.8c-.1 7.4-6.1 13.4-13.6 13.4z"/></defs><clipPath id="e"><use xlink:href="#f"/></clipPath><g class="st1"><path class="st2" d="M94.7 3.7h287.7v477.7H94.7V3.7z"/><path class="st3" d="M94.7 53.2h35v428.3h-35V53.2z"/><path class="st4" d="M112.2 77.8c-5.3 0-9.3-5.3-7.9-10.4s7.5-7.6 12-4.9c2.5 1.5 4.1 4.2 4.1 7.1 0 4.6-3.7 8.2-8.2 8.2zm0 30.4c-3.4 0-6.5-2.2-7.7-5.4s-.2-6.9 2.5-9.1c2.6-2.2 6.4-2.5 9.3-.8 3 1.8 4.6 5.3 3.9 8.7-.7 3.8-4.2 6.6-8 6.6zm0 30.2c-5.3 0-9.3-5.3-7.9-10.4s7.5-7.6 12-4.9c2.5 1.5 4.1 4.2 4.1 7.1 0 4.7-3.7 8.2-8.2 8.2zm0 30.5c-3.4 0-6.5-2.2-7.7-5.4s-.2-6.9 2.5-9.1c2.6-2.2 6.4-2.5 9.3-.8 3 1.8 4.6 5.3 3.9 8.7-.7 3.8-4.2 6.6-8 6.6zm0 304.1c-3.4 0-6.5-2.2-7.7-5.4s-.2-6.9 2.5-9.1c2.6-2.2 6.4-2.5 9.3-.8 3 1.8 4.6 5.3 3.9 8.7-.7 3.8-4.2 6.6-8 6.6zM94.7 3.7h287.7v49.5H94.7V3.7z"/><path class="st2" d="M112.1 47.4c-3.4 0-6.5-2.2-7.7-5.4s-.2-6.9 2.5-9.1c2.6-2.2 6.4-2.5 9.3-.8 3 1.8 4.6 5.3 3.9 8.7-.7 3.8-4.2 6.6-8 6.6zm95.5-5.5h-77.9c-2.1 0-3.8-1.7-3.8-3.8v-.2c0-2.1 1.7-3.8 3.8-3.8h77.9c2.1 0 3.8 1.7 3.8 3.8v.2c0 2.1-1.7 3.8-3.8 3.8zm161.9 1.2H259.7c-2.1 0-3.8-1.7-3.8-3.8v-.2c0-2.1 1.7-3.8 3.8-3.8h109.8c2.1 0 3.8 1.7 3.8 3.8v.2c0 2.1-1.7 3.8-3.8 3.8zM207.6 20.7h-99.9c-2.1 0-3.8-1.7-3.8-3.8s1.7-3.8 3.8-3.8h99.9c2.1 0 3.8 1.7 3.8 3.8s-1.7 3.8-3.8 3.8zm161.6-1.6c-2.3 0-4.1-1.8-4.1-4.1s1.8-4.1 4.1-4.1 4.1 1.8 4.1 4.1-1.8 4.1-4.1 4.1zm-10.1 0c-2.3 0-4.1-1.8-4.1-4.1s1.8-4.1 4.1-4.1 4.1 1.8 4.1 4.1-1.8 4.1-4.1 4.1zm-10 0c-3.6 0-5.5-4.5-2.9-7 2.5-2.5 7-.7 7 2.9-.1 2.3-1.9 4.1-4.1 4.1z"/></g><defs><path id="d" d="M94.7 3.7h287.7v477.7H94.7z"/></defs><clipPath id="c"><use xlink:href="#d"/></clipPath><g class="st5"><path class="st3" d="M246.3 172.2h-99c-2 0-3.6-1.6-3.6-3.6v-99c0-2 1.6-3.6 3.6-3.6h99c2 0 3.6 1.6 3.6 3.6v99c0 2-1.6 3.6-3.6 3.6zm117.7 0h-99c-2 0-3.6-1.6-3.6-3.6v-99c0-2 1.6-3.6 3.6-3.6h99c2 0 3.6 1.6 3.6 3.6v99c0 2-1.6 3.6-3.6 3.6zM246.3 288.3h-99c-2 0-3.6-1.6-3.6-3.6v-99c0-2 1.6-3.6 3.6-3.6h99c2 0 3.6 1.6 3.6 3.6v99c0 2-1.6 3.6-3.6 3.6zm117.7 0h-99c-2 0-3.6-1.6-3.6-3.6v-99c0-2 1.6-3.6 3.6-3.6h99c2 0 3.6 1.6 3.6 3.6v99c0 2-1.6 3.6-3.6 3.6zM246.3 405.5h-99c-2 0-3.6-1.6-3.6-3.6v-99c0-2 1.6-3.6 3.6-3.6h99c2 0 3.6 1.6 3.6 3.6v99c0 1.9-1.6 3.6-3.6 3.6zm117.7 0h-99c-2 0-3.6-1.6-3.6-3.6v-99c0-2 1.6-3.6 3.6-3.6h99c2 0 3.6 1.6 3.6 3.6v99c0 1.9-1.6 3.6-3.6 3.6z"/><path class="st6" d="M204.5 273.7l21 4.6 7.4-22.3 6.4-57.6-66-6.3-19.1 12v2.1l1.5.2 4.8 57.9 18 3.8"/><path class="st7" d="M191.6 210.8v37.5l15.6 2.9 1.5-38.5-17.1-1.9z"/><path class="st8" d="M191.6 210.8v37.5l-13.2 18.2-2-57.6 15.2 1.9z"/><path class="st4" d="M173.3 192.1l66 6.3-7.1 15-78-9.3 19.1-12z"/><path class="st8" d="M232.9 255.9l6.4-57.5-7.1 15-6.6 64.9 7.3-22.4z"/><path class="st9" d="M232.2 213.4l-78-9.3v2l77.8 9.7.2-2.4z"/><path class="st4" d="M232 215.8l-6.4 62.5-21.1-4.6 2.6-61 24.9 3.1zm-76.3-9.5l4.7 57.9 18 3.6-2-58.9-20.7-2.6z"/><path class="st10" d="M177.4 238.9l28.4 4.8v1.2l-28.3-5-.1-1zm27.1 34.8l-26.1-5.9v-1.3l26.1 5.5v1.7z"/><path class="st11" d="M177.4 238.9l14.2-16.1 15 2-.8 18.9-28.4-4.8zm28.1 12l-13.9-2.6-13.2 18.2 26.1 5.5 1-21.1z"/><path class="st6" d="M281.5 190.2l-8.3 6.1.6 16.4 1.9 52.3.1 2 68.1 13.3 2.8-10.3 9.2-72.4-74.4-7.4z"/><path class="st7" d="M353 204.9l-9.1 75.4-68.1-13.3-2.6-70.7 79.8 8.6z"/><path class="st4" d="M282.7 255.6l62.8 11.4-1.3 11.3-68.5-13.3 7-9.4zm-1.2-65.4l74.4 7.4-2.9 7.3-79.8-8.6 8.3-6.1z"/><path class="st8" d="M355.9 197.6l-9.2 72.4-2.8 10.3 9.1-75.4 2.9-7.3zm-82.7-1.3l8.6.9.9 58.4-7 9.4-2.5-68.7z"/><path class="st4" d="M281.9 205.9l-8.1 6.8 24.3 3.2v-8.1l-16.2-1.9z"/><path class="st8" d="M298.1 198.9l6.4.8-1.5 59.6-5.8 9.7.9-70.1z"/><path class="st4" d="M304.3 208.4l-6.4 7.4 25.2 3.3.4-8.3-19.2-2.4z"/><path class="st8" d="M324.1 201.8l4.9.5-4.5 60.7-4.6 10.7 4.2-71.9z"/><path class="st4" d="M351.9 214.1l-23.6-2.7-5.2 7.7 27.7 3.7 1.1-8.7z"/><path class="st12" d="M173.6 80.7l1.8 74.9 16.6 3.6 17.9 3.7 3.7-10 6.4-74.3-38.5-3.4-7.9 5.5"/><path class="st13" d="M173.6 80.7l41.5 4.1 4.9-6.2-38.5-3.4-7.9 5.5z"/><path class="st8" d="M220 78.6l-6.4 74.3-3.7 10 5.2-78.1 4.9-6.2z"/><path class="st4" d="M173.6 80.7l1.8 74.9 16.6 3.6 1.6-76.5-20-2z"/><path class="st4" d="M215.1 84.8l-21.5-2.1-1.6 76.5 17.9 3.7 5.2-78.1z"/><path class="st8" d="M191.9 159.1l1.6-76.6h.2l-1.6 76.6h-.2z"/><path class="st12" d="M350 82.9L338.6 99l-38-4.3-.4-16.6h-2.6l-21 13.9 4 57.3 57.1 10.8 10.3-24 4.5-53.2H350z"/><path class="st8" d="M300.2 78.1l.5 18-23.2-3.1 22.7-14.9z"/><path class="st13" d="M338.5 99.1L350 82.9h2.5l-10.6 16.5-3.4-.3z"/><path class="st8" d="M352.5 82.9l-4.5 53.2-10.3 24 4.2-60.7 10.6-16.5z"/><path class="st13" d="M279.3 92.1l20.9-14h-2.6l-21 13.9 2.7.1z"/><path class="st4" d="M341.9 99.4l-4.2 60.7-57.1-10.8-4-57.3 65.3 7.4z"/><path class="st8" d="M278.6 121.6v-.2l61 9.8v.2l-61-9.8z"/><path class="st14" d="M339.9 326.8l10-13.6V312l-52-4.9-18.7 11.3v1.6l20.8 2.4.2 6.3-1.3-.2-16.2 13.4v1.4l18.1 2.8.1 2.4-1.3-.2-14.4 15.1v1.2l14.3 2.8-14.8 18v1l51.5 11.2 9.1-22.1v-1l-6.6-1 8-16.6v-1.1l-15.5-2.4.1-2.7 8 1.3 8.9-15.8v-1.3l-16.2-2.1-.1.2.2-6.9 7.8.7zm-20.1 24.7l-4.6-.7-.1.2v-2.7l4.8.7m.1-17.7l-5-.6v-6.5l5 .6v6.5z"/><path class="st4" d="M345.3 374.3l-9.1 22-51.5-11 14.8-18 45.8 7zM297.9 307l52 5-10 13.3-60.7-7 18.7-11.3z"/><path class="st8" d="M349.9 312v1.3l-10 13.5v-1.5l10-13.3z"/><path class="st11" d="M339.9 326.8l-60.7-6.8v-1.7l60.7 7v1.5z"/><path class="st11" d="M300 322.3l2.3 63.2h1.2l-2.1-63-1.4-.2zm20.1 2.4l-.6 64.6c.3.2 1 .7 1.3.4v-.2c.1-.2 0-.7 0-1 0-1.4 0-2.9.1-4.3.1-5.1.1-10.2.2-15.3.2-11.9.3-23.8.5-35.7 0-2.8.1-5.6.1-8.3l-1.6-.2z"/><path class="st8" d="M321.6 324.8l10.5 1.2-1.6 46.2-9.8 17.5.9-64.9zm-20.2-2.3L315 324v44.7l-11.5 16.8-2.1-63z"/><path class="st4" d="M298.9 328.5l-16.2 13.3 18.1 2.9-.6-16-1.3-.2zm16.1 2l-12.9 14.3 17.7 2.7.2-16.2-5-.8zm33.2 4.3l-16.2-2-10.7 15 18 2.7 8.9-15.7z"/><path class="st8" d="M348.2 334.8v1.4l-8.9 15.6v-1.3l8.9-15.7z"/><path class="st11" d="M321.3 347.8l18 2.7v1.3l-18-2.8v-1.2zm-1.5-.3l-17.7-2.7.1 1.4 17.6 2.6v-1.3zm-19-2.8l-18.1-2.9v1.5l18.1 2.7v-1.3z"/><path class="st4" d="M299.6 348.3l-14.4 15 16.4 3.2-.7-18-1.3-.2zm15.6 2.4l-12.3 16.1 16.7 3.4.2-18.7-4.6-.8zm31.5 5l-15.5-2.5-10.2 17.3 17 3.3 8.7-18.1z"/><path class="st8" d="M346.7 355.7v1.1L338 375v-1.2l8.7-18.1z"/><path class="st11" d="M321 370.5l17 3.3v1.2l-17-3.5v-1zm-1.4-.3v1.1l-16.7-3.3v-1.2l16.7 3.4zm-18-3.7v1.3l-16.4-3.3v-1.2l16.4 3.2zm34.6 29.8v1.2l-51.5-11.2v-1l51.5 11z"/><path class="st8" d="M345.3 374.3v1.2l-9.1 22v-1.2l9.1-22z"/><path class="st15" d="M210.4 316.3l-.6-.1-21-2-5.7-.5-34.1 21 6.5 47.7 36.1 8.4h1.4l10.9-18.2 30 5.6 6-18.3 4.6-40.2-34.1-3.4z"/><path class="st8" d="M244.5 319.7l-61.4-5.9 1.5 30.2 52.2 7 7.7-31.3z"/><path class="st16" d="M183.1 313.8l-34.1 21 28.4 4 6.7-5.5-1-19.5z"/><path class="st4" d="M149 334.8l6.5 47.7 36.1 8.3-1.1-50-41.5-6z"/><path class="st8" d="M203.7 328.8l.2 43.9-10.9 18.1-1.4-50 12.1-12z"/><path class="st4" d="M238.8 332.7l-35.1-3.9.2 43.9 30 5.5 4.9-45.5z"/><path class="st16" d="M238.8 332.7l5.7-13-4.6 40.1-6 18.4 4.9-45.5z"/><path class="st17" d="M177.4 338.8c.4-.3 6.6-5.6 6.6-5.6l6.3.9-6 5.6-6.9-.9z"/><path class="st18" d="M149 334.8l7.2 1 32.6-21.5-5.7-.5-34.1 21zm35.4 5l25.4-23.5 4.4.5-23.7 24-6.1-1z"/><path class="st8" d="M244.5 319.7l-5.7 13-35.1-3.9 12-12 28.8 2.9z"/><path class="st11" d="M191.6 390.8h1.4l-1.4-50h-1.1l1.1 50z"/><path class="st10" d="M214.2 316.8h1.5l-24.1 24h-1.1l23.7-24zm-25.4-2.5v.9L157.2 336l-1-.2 32.6-21.5z"/><path class="st18" d="M238.8 332.7l1.2-2.9-35.2-3.5-2.2 2.2 36.2 4.2z"/><path class="st10" d="M238.8 332.7l-.1 1.3-36.1-4.2v-1.3l36.2 4.2z"/><path class="st3" d="M246.3 523.5h-99c-2 0-3.6-1.6-3.6-3.6v-99c0-2 1.6-3.6 3.6-3.6h99c2 0 3.6 1.6 3.6 3.6v99c0 1.9-1.6 3.6-3.6 3.6zm117.7 0h-99c-2 0-3.6-1.6-3.6-3.6v-99c0-2 1.6-3.6 3.6-3.6h99c2 0 3.6 1.6 3.6 3.6v99c0 1.9-1.6 3.6-3.6 3.6z"/><path class="st12" d="M173.6 432l1.8 75 16.6 3.5 17.9 3.8 3.7-10 6.4-74.5-38.5-3.3-7.9 5.5"/><path class="st13" d="M173.6 432l41.5 4 4.9-6.2-38.5-3.3-7.9 5.5z"/><path class="st8" d="M220 429.8l-6.4 74.5-3.7 10 5.2-78.3 4.9-6.2z"/><path class="st4" d="M173.6 432l1.8 75 16.6 3.5 1.6-76.5-20-2zm41.5 4l-21.5-2-1.6 76.5 17.9 3.8 5.2-78.3z"/><path class="st8" d="M192 510.5l1.6-76.6h.2l-1.6 76.6h-.2z"/><path class="st12" d="M350 434.3l-11.4 16-38-4.3-.4-16.7h-2.6l-21 14 4 57.2 57.1 11 10.3-24 4.5-53.2H350z"/><path class="st8" d="M300.2 429.3l.5 18-23.2-3 22.7-15z"/><path class="st13" d="M338.5 450.5l11.5-16.2h2.5l-10.6 16.5-3.4-.3z"/><path class="st8" d="M352.5 434.3l-4.5 53.2-10.3 24 4.2-60.7 10.6-16.5z"/><path class="st13" d="M279.3 443.5l20.9-14.2h-2.6l-21 14 2.7.2z"/><path class="st4" d="M341.9 450.8l-4.2 60.7-57.1-11-4-57.2 65.3 7.5z"/><path class="st8" d="M278.7 472.9v-.2l61 9.8v.2l-61-9.8z"/></g><defs><path id="b" d="M94.7 3.7h287.7v477.7H94.7z"/></defs><clipPath id="a"><use xlink:href="#b"/></clipPath><path class="st19" d="M368.9 481.3H108.2c-7.4 0-13.5-6-13.5-13.5V17.1c0-7.4 6-13.5 13.5-13.5H369c7.4 0 13.5 6 13.5 13.5v450.8c-.1 7.4-6.1 13.4-13.6 13.4z"/><path class="st20" d="M225 109.6H25c-6.8 0-12.2 5.5-12.2 12.2v71.4c0 6.8 5.5 12.2 12.2 12.2h199.8c5.7 0 10.5-3.9 11.9-9.2.3-1 .4-2 .4-3v-71.4c.1-6.8-5.4-12.2-12.1-12.2z"/><path class="st2" d="M218.5 136.1c3.6 0 7 .8 10.1 2.2v-14.8H4.2v61.3c0 6.8 5.5 12.2 12.2 12.2h199.8c5.7 0 10.5-3.9 11.9-9.2.3-1 .4-2 .4-3v-2.6c-11.1 5-24.4 1-30.8-9.4-5.9-9.6-4.2-22.4 4-30.1 4.5-4.2 10.6-6.6 16.8-6.6zm-58.6 0c10 0 19.3 6.4 22.7 15.8 3.5 9.5.6 20.5-7.2 27s-19.2 7.4-27.9 2.2-13.2-15.4-11.4-25.3c1.9-9.9 10-17.7 19.9-19.3 1.3-.3 2.6-.4 3.9-.4zm-58.5 0c10 0 19.3 6.4 22.7 15.8 3.5 9.5.6 20.5-7.2 27s-19.2 7.4-27.9 2.2-13.2-15.4-11.4-25.3c1.9-9.9 10-17.7 19.9-19.3 1.3-.3 2.6-.4 3.9-.4zm-58.5 0c10 0 19.2 6.4 22.7 15.8 3.5 9.5.6 20.5-7.2 27s-19.3 7.4-28 2.1c-8.7-5.2-13.2-15.6-11.2-25.5 2-9.8 10-17.5 19.9-19.1 1.2-.2 2.5-.3 3.8-.3z"/><path class="st4" d="M228.6 123.5v-10.1c0-6.8-5.5-12.2-12.2-12.2h-200c-6.8 0-12.2 5.5-12.2 12.2v10.1h224.4zm-12.1-15.7c4.7 0 4.8 7.2.1 7.4-2 .1-3.7-1.4-3.8-3.4-.1-2.1 1.6-4 3.7-4zm-9.1 0c4.7 0 4.8 7.2.1 7.4-2 .1-3.7-1.4-3.8-3.4-.1-2.1 1.6-4 3.7-4zm-9.1 0c2.1 0 3.7 1.6 3.7 3.7-.2 3.2-4 5-6.3 2.6-2.3-2.2-.6-6.3 2.6-6.3zm-182.3 2h90.5c4.4 0 4.4 6.8 0 6.8H16c-1.9 0-3.4-1.5-3.4-3.4-.1-1.8 1.5-3.4 3.4-3.4z"/><path class="st2" d="M16 116.7h90.5c4.4 0 4.4-6.8 0-6.8H16c-1.9 0-3.4 1.5-3.4 3.4-.1 1.9 1.5 3.4 3.4 3.4zm200.5-1.4c4.7 0 4.8-7.2.1-7.4-2-.1-3.7 1.4-3.8 3.4-.1 2.1 1.6 4 3.7 4zm-9.1 0c4.7 0 4.8-7.2.1-7.4-2-.1-3.7 1.4-3.8 3.4-.1 2.1 1.6 4 3.7 4zm-9.1 0c2 0 3.6-1.6 3.7-3.7 0-3.2-3.9-4.9-6.2-2.7-2.5 2.2-.8 6.4 2.5 6.4z"/><path class="st21" d="M42.9 184.4c10 0 19.2-6.4 22.7-15.8 3.5-9.5.6-20.5-7.2-27s-19.3-7.4-28-2.1c-8.7 5.2-13.2 15.6-11.2 25.5 2 9.8 10 17.5 19.9 19.1 1.2.2 2.5.3 3.8.3z"/><path class="st8" d="M101.4 184.4c10 0 19.3-6.4 22.7-15.8 3.5-9.5.6-20.5-7.2-27s-19.2-7.4-27.9-2.2-13.2 15.4-11.4 25.3c1.9 9.9 10 17.7 19.9 19.3 1.3.3 2.6.4 3.9.4z"/><path class="st4" d="M159.9 136.1c10.1 0 19.3 6.5 22.7 15.9 3.5 9.5.5 20.4-7.3 26.9s-19.2 7.4-27.9 2.1c-8.7-5.2-13.2-15.6-11.2-25.5 2-9.8 10-17.5 19.9-19.1 1.2-.2 2.5-.3 3.8-.3z"/><path class="st3" d="M159.9 187c-11.1 0-21.2-7.1-25.1-17.5-3.9-10.5-.6-22.6 8-29.8 8.7-7.2 21.3-8.1 30.9-2.3 9.5 5.8 14.5 17.1 12.3 28-2.2 10.8-11.1 19.5-22.1 21.2-1.2.3-2.6.4-4 .4zm0-48.4c-9.1 0-17.4 5.9-20.5 14.4-3 8.6-.3 18.4 6.8 24.1s17.2 6.4 25 1.7c7.7-4.7 11.8-14 9.9-22.9-2-9.9-11.1-17.3-21.2-17.3z"/><path class="st22" d="M193.3 160.8c0 12.7 9.8 23.6 22.5 24.9 4.4.4 8.9-.3 12.9-2.2v-45.3c-3.2-1.4-6.7-2.3-10.4-2.3-13.8-.1-25 11.1-25 24.9z"/></svg>