<svg viewBox="0 0 58 74.1" xmlns="http://www.w3.org/2000/svg"><style>.st0{fill:#8219BF;} .st1{fill:#F1E73A;} .st2{fill:#B5A723;} .st3{fill:#CCC132;} .st4{fill:#6118A0;} .st5{fill:#741AB5;} .st6{opacity:0.1;fill:#20082D;enable-background:new ;} .st7{fill:#FFFFFF;} .st8{fill:#F1E73A;stroke:#EDEDED;stroke-miterlimit:10;} .st9{fill:#6D6011;}</style><path class="st0" d="M49.5 16.8l8-10.9v-1L15.8 1 1.1 10.1l-.1.8 16.4 1.9.2 5.4-1-.2L3.7 28.7v1.1l14.4 2.3.1 1.9-1-.2L5.6 45.9v1l11.5 2.2L5.2 63.5v.8l41.2 9 7.3-17.7v-.8l-5.2-.8 6.4-13.3v-.9l-12.4-1.9.1-2.2 6.4 1 7-12.6v-1l-13-1.7v.2l.2-5.5 6.3.7zM33.3 36.4l-3.7-.6-.1.2v-2.2l3.8.6m.2-14.1l-4-.5v-5.7l4 .5v5.7z"/><path class="st0" d="M53.8 54.7l-7.3 17.6-41.3-8.8 11.9-14.4 36.7 5.6z"/><path class="st1" d="M15.8.9L.8 10v1.2l48.5 5.6 8-10.9V4.8L15.8.9z"/><path class="st1" d="M15.8.9l41.7 3.9-8 10.8L.8 10l15-9.1z"/><path class="st2" d="M57.5 4.8v1.1l-8 10.9v-1.2l8-10.8z"/><path class="st3" d="M49.5 16.8L.8 11.2V10l48.7 5.6v1.2z"/><path class="st4" d="M34.8 15.2l8.4.9L42 53l-8 14 .8-51.8zm-16.2-2l10.9 1.3v35.7l-9.2 13.5-1.7-50.5z"/><path class="st0" d="M16.6 18l-13 10.7L18.1 31l-.5-12.8-1-.2zm12.9 1.7L19.1 31.1l14.2 2.2.2-13-4-.6zM56 23.2l-13-1.7-8.5 12L49 35.7l7-12.5z"/><path class="st5" d="M56 23.2v1l-7 12.5v-1l7-12.5z"/><path class="st0" d="M17.1 33.9l-11.5 12 13.1 2.6-.5-14.5-1.1-.1zm12.5 1.9l-9.8 12.9 13.4 2.7.1-15-3.7-.6zm25.2 4l-12.3-2-8.2 13.8 13.5 2.6 7-14.4z"/><path class="st5" d="M54.8 39.8v.9l-7 14.5v-1l7-14.4zM48.8 36.7v-1l-14.3-2.2c.1-10 .2-18.4.2-18.4l-1.2-.1-.1 18.3-14.2-2.2-.6-17.9h-1.1L18 31 3.6 28.7v1.2l14.6 2.2.5 16.5-13.1-2.7v.9l13.1 2.8.5 14.2h1l-.5-14.1 13.4 2.7-.1 14.3s1 .6 1 .3c0-.1.1-6.3.2-14.4l13.5 2.7v-1l-13.5-2.6c.1-5.4.2-11.5.2-17.2l14.4 2.2zm-29 12l-.6-16.5 14.1 2.1-.1 17.1-13.4-2.7zM5.1 64.3l41.2 9v-1L5.1 63.5v.8zM53.8 54.7v.9l-7.3 17.7v-1l7.3-17.6z"/><path class="st6" d="M45.7 38.9H4.3c-1.4 0-2.5 1.1-2.5 2.5v14.8c0 1.4 1.1 2.5 2.5 2.5h41.4c1.2 0 2.2-.8 2.5-1.9.1-.2.1-.4.1-.6V41.4c-.1-1.4-1.2-2.5-2.6-2.5z"/><path class="st7" d="M47 47.7v-3.1H.5v12.7c0 1.4 1.1 2.5 2.5 2.5h41.4c1.2 0 2.2-.8 2.5-1.9.1-.1.1-.3.1-.4v-9.8z"/><path class="st0" d="M47.1 44.6v-2.1c0-1.4-1.1-2.5-2.5-2.5H3.1C1.7 40 .6 41.1.6 42.5v2.1h46.5zm-2.5-3.2c.4 0 .8.3.8.8 0 .4-.3.8-.8.8-.4 0-.8-.3-.8-.8s.3-.8.8-.8zm-1.9 0c.4 0 .8.3.8.8 0 .4-.3.8-.8.8-.4 0-.8-.3-.8-.8s.4-.8.8-.8zm-1.9 0c.4 0 .8.3.8.8 0 .4-.4.8-.8.8s-.8-.3-.8-.8.4-.8.8-.8zM3 41.8h18.8c.4 0 .7.3.7.7s-.3.7-.7.7H3c-.4 0-.7-.3-.7-.7s.3-.7.7-.7z"/><path class="st7" d="M3 43.2h18.8c.4 0 .7-.3.7-.7s-.3-.7-.7-.7H3c-.4 0-.7.3-.7.7s.3.7.7.7zm41.6-.3c.4 0 .8-.3.8-.8 0-.4-.3-.8-.8-.8-.4 0-.8.3-.8.8s.3.8.8.8zm-1.9 0c.4 0 .8-.3.8-.8 0-.4-.3-.8-.8-.8-.4 0-.8.3-.8.8s.4.8.8.8zm-1.9 0c.4 0 .8-.3.8-.8 0-.4-.3-.8-.8-.8s-.8.3-.8.8.4.8.8.8z"/><path class="st8" d="M8.6 57.3c2.8 0 5-2.2 5-5s-2.2-5-5-5-5 2.2-5 5 2.2 5 5 5z"/><path class="st3" d="M20.6 57.3c2.8 0 5-2.2 5-5s-2.2-5-5-5-5 2.2-5 5 2.3 5 5 5z"/><circle class="st2" cx="32.8" cy="52.3" r="5"/><path class="st9" d="M40 52.3c0 2.8 2.2 5 5 5 .7 0 1.4-.2 2.1-.5v-9.1c-.6-.3-1.3-.5-2.1-.5-2.8 0-5 2.3-5 5.1z"/></svg>