<svg id="Camada_1" xmlns="http://www.w3.org/2000/svg" xmlns:xlink="http://www.w3.org/1999/xlink" viewBox="0 0 71.8 90.5"><style>.st0{fill:#6118A0;} .st1{fill:#741AB5;} .st2{fill:#9619D1;} .st3{fill:#8219BF;} .st4{fill:#8726BF;} .st5{fill:#320845;} .st6{clip-path:url(#SVGID_4_);} .st7{fill:none;stroke:#E5E5E5;stroke-miterlimit:10;} .st8{opacity:0.1;fill:#20082D;enable-background:new ;} .st9{fill:#FFFFFF;} .st10{fill:#EDEDED;}</style><path class="st0" d="M15.5 12.4l43.3 4.2L56.7 72 44.4 88.3 4.8 84.8l-.1-62.1 10.8-10.3z"/><path class="st1" d="M17.6 12.7v11.5L5.9 21.8l11.7-9.1z"/><path class="st2" d="M5 22.9l12.6-10.2-2.1-.3L2.7 22.7l2.3.2zm41.3 4l12.5-10.3-2.1-.2L44 26.6l2.3.3z"/><path class="st0" d="M2.7 64l43.9 4.2 1.4-1.4-43.6-4.2L2.7 64z"/><path class="st3" d="M46.6 68.2L2.7 64l.1 19.3 43.6 4.2.2-19.3z"/><path class="st1" d="M46.6 68.2l-.2 19.3 1.6-2.1V66.8l-1.4 1.4z"/><path class="st0" d="M2.7 43.3l43.9 4.2 1.4-1.4L4.4 42l-1.7 1.3z"/><path class="st3" d="M46.6 47.5L2.7 43.3l.1 19.3 43.6 4.2.2-19.3z"/><path class="st1" d="M46.6 47.5l-.2 19.3 1.6-2.1V46.1l-1.4 1.4z"/><path class="st2" d="M2.7 22.7l43.9 4.2 1.4-1.5-43.6-4.1-1.7 1.4z"/><path class="st4" d="M60.4 15.4l-43.3-4.3-1.7 1.3 43.4 4.2"/><path class="st3" d="M46.6 26.9L2.7 22.7 2.8 42l43.6 4.1.2-19.2z"/><path class="st1" d="M46.6 26.9l-.2 19.2L48 44V25.4l-1.4 1.5zm13.8-11.5L48 25.4v60l11.8-14.2.6-55.8z"/><path class="st4" d="M2.7 22.7l14.4-11.6 43.3 4.3-13.8 11.5-43.9-4.2z"/><circle id="SVGID_1_" class="st5" cx="48.4" cy="64.7" r="20"/><defs><circle id="SVGID_3_" cx="48.4" cy="64.7" r="20"/></defs><clipPath id="SVGID_4_"><use xlink:href="#SVGID_3_" overflow="visible"/></clipPath><g class="st6"><path class="st0" d="M-22.4-13.6l97.6 9.5 1.9 128.6L49 159.4l-95.5-10.1-.1-139.9 24.2-23z"/><path class="st1" d="M-17.6-13.1v26l-26.3-5.3 26.3-20.7z"/><path class="st2" d="M-45.9 10l28.3-23.1-4.8-.5-28.7 23 5.2.6zm92.8 8.9l28.3-23-4.8-.6-28.7 23 5.2.6z"/><path class="st4" d="M-51.1 102.4l98.6 9.5 3.3-3.2-98.1-9.4-3.8 3.1z"/><path class="st3" d="M47.5 111.9l-98.6-9.5.1 43.5 98.2 9.3.3-43.3z"/><path class="st1" d="M47.5 111.9l-.3 43.3 3.6-4.7v-41.8l-3.3 3.2z"/><path class="st0" d="M-51.1 55.9l98.6 9.5 3.3-3.2-98.1-9.4-3.8 3.1z"/><path class="st3" d="M47.5 65.4l-98.6-9.5.1 43.5 98.2 9.3.3-43.3z"/><path class="st1" d="M47.5 65.4l-.3 43.3 3.6-4.7V62.2l-3.3 3.2z"/><path class="st2" d="M-51.1 9.4l98.6 9.5 3.3-3.2-98.1-9.4-3.8 3.1z"/><path class="st4" d="M78.7-6.8l-97.4-9.9-3.7 3.1 97.6 9.5"/><path class="st3" d="M47.5 18.9l-98.6-9.5.1 43.4 98.2 9.4.3-43.3z"/><path class="st1" d="M47.5 18.9l-.3 43.3 3.6-4.7V15.7l-3.3 3.2z"/><path class="st1" d="M78.7-6.8L50.8 15.7v134.8l26.5-31.9L78.7-6.8z"/><path class="st4" d="M-51.1 9.4l32.4-26.1 97.4 9.9-31.2 25.7-98.6-9.5z"/></g><circle id="SVGID_2_" class="st7" cx="48.4" cy="64.7" r="20"/><path class="st8" d="M62.8 4H13.6c-1.7 0-3 1.4-3 3v27.6c0 1.7 1.4 3 3 3h49.1c1.4 0 2.6-1 2.9-2.3.1-.2.1-.5.1-.7V7c.1-1.7-1.3-3-2.9-3z"/><path class="st3" d="M67.7 7.2V4.8c0-1.7-1.4-3-3-3H15.5c-1.7 0-3 1.4-3 3v2.5h55.2v-.1zm-2.9-3.8c.5 0 .9.4.9.9s-.4.9-.9.9-.9-.4-.9-.9c-.1-.5.3-.9.9-.9zm-2.3 0c.5 0 .9.4.9.9s-.4.9-.9.9-.9-.4-.9-.9.4-.9.9-.9zm-2.2 0c.5 0 .9.4.9.9s-.4.9-.9.9-.9-.4-.9-.9.4-.9.9-.9zm-44.9.5h22.2c.5 0 .8.4.8.8 0 .5-.4.8-.8.8H15.4c-.5 0-.8-.4-.8-.8s.4-.8.8-.8z"/><path class="st9" d="M15.4 5.6h22.2c.5 0 .8-.4.8-.8 0-.5-.4-.8-.8-.8H15.4c-.5 0-.8.4-.8.8s.4.8.8.8zm49.4-.4c.5 0 .9-.4.9-.9s-.4-.9-.9-.9-.9.4-.9.9c-.1.5.3.9.9.9zm-2.3 0c.5 0 .9-.4.9-.9s-.4-.9-.9-.9-.9.4-.9.9.4.9.9.9zm-2.2 0c.5 0 .9-.4.9-.9s-.4-.9-.9-.9-.9.4-.9.9.4.9.9.9zm-46.6 2h-1.1v25.1c0 1.7 1.4 3 3 3h49.1c1.4 0 2.6-1 2.9-2.3.1-.2.1-.5.1-.7V7.2h-54z"/><path class="st10" d="M63 15.2H16.3c-.2 0-.4.2-.4.4v.3c0 .2.2.4.4.4H63c.2 0 .4-.2.4-.4v-.3c0-.3-.1-.4-.4-.4zm-37.1-2.8h-9.6c-.2 0-.4.2-.4.4v.3c0 .2.2.4.4.4h9.6c.2 0 .4-.2.4-.4v-.3c0-.2-.2-.4-.4-.4z"/><circle class="st3" cx="22.4" cy="15.7" r="1.6"/><path class="st10" d="M63 26.1H16.3c-.2 0-.4.2-.4.4v.3c0 .2.2.4.4.4H63c.2 0 .4-.2.4-.4v-.3c0-.2-.1-.4-.4-.4zm-37.1-2.7h-9.6c-.2 0-.4.2-.4.4v.2c0 .2.2.4.4.4h9.6c.2 0 .4-.2.4-.4v-.3c0-.2-.2-.3-.4-.3z"/><circle class="st3" cx="42.7" cy="26.7" r="1.6"/><path class="st9" d="M49.4 59.9v-.5L48.1 61v.5l.5-.7.1 3-.4.3v.5l1.3-1.2v-.5l-.5.4v-3.1l.3-.3zm2.3.6c.6.2.5.9-.1 1.1.7.1.7.9.2 1.2s-1.2.2-1.5-.2l.4-.4c.2.2.8.4.8-.1 0-.3-.3-.2-.6-.2l.1-.5c.2 0 .5 0 .4-.3s-.6-.1-.7 0l-.3-.4c.3-.3.9-.4 1.3-.2zm3.3.6c.2.2.1.7.1.9v.9h-.7v-1.3c0-.3-.2-.2-.3 0v1.3h-.7v-1.3c0-.3-.2-.2-.3 0v1.3h-.7V61h.6v.2c.2-.3.8-.4 1 0 .3-.3.7-.4 1-.1zm2.9 0c.2.2.1.7.1.9v.9h-.7v-1.3c0-.3-.2-.2-.3 0v1.3h-.7v-1.3c0-.3-.2-.2-.3 0v1.3h-.7V61h.7v.2c.2-.3.8-.4 1 0 .2-.3.7-.4.9-.1z"/></svg>