<svg viewBox="0 0 489.4 486.4" xmlns="http://www.w3.org/2000/svg" xmlns:xlink="http://www.w3.org/1999/xlink"><style>.st2 { fill: #fff; } .st3 { opacity: 0.2; } .st3, .st4 { fill: #22829e; } .st6 { font-size: 10px; } .st7 { opacity: 0.2; } .st7, .st8 { fill: #2bbe8e; } .st14 { font-size: 12px; } .st13, .st5, text { font-family: &apos;Roboto&apos;,sans-serif; }</style><g opacity=".1"><a xlink:href="javascript:void(0)"><path d="M399.8 298.8c.7-2.3 2.3-8.2 2.8-10.9 1.1-4.4 3.2-8.6 2.9-13.2.2-9.7.2-19.5 1.9-29.2-1.2-2.7 4.3-3.2 2-5.4-1.7-.6.4-3.1 1.6-3.4 1.5-.4 2.9.4 4.1 2.6 1.7.8 2.1-1.3 3.4-2.4 1.8-3.6 4.6-7.8 6.4-9.8-2.9-2.5-4.4-3.5-5.5-6-1.2-2.6-2.5-6.4-.7-8.6.8-1 3.1.5 3.9-.5 1.1-1.5-.2-3.8-.7-5.5-1.1-3.3-2.2-8.3-3.9-11-1.2-1.9-2.9-3.4-4.7-4.7-1.9-1.3-4-2.6-6.2-2.7-2.6-.1-4.7 2.6-6.7 3.8-2.2 1.3-3.8 3.2-6.5 3.5-2.5.2-4.2-1.4-5-4-1.3-2.2-2.4-3.7-4.5-3.8-1.2-.1-2.1 1.2-3.1 1.9-1.8 1.3-3.4 3.1-5.3 4.2-2.3 1.4-4.6 2.9-7.2 3.2-4.2.5-7.7-4-12-2-1.4.6-.3 2.8-.6 4.3-.3 1.9-.7 3.9-1.7 5.5-1.4 2.2-3.2 4.3-5.5 5.5-4.9 2.8-10.7 2.1-14.9-1.5-1.3-1.2-1.9-3-2.8-4.5-.7-1.1-1.4-1.5-2.3-.4-1.1 1.3-1.6 3.2-2.2 4.7-.8 2.2-1.6 4.4-2.5 6.5-.6 1.4 3.1 4.1 3.3 6.7.1 1.7-1.7 3-1.8 4.7-.1 2.1 1.5 2.9 1.6 6.1.1 2.3-1 4.4-1 6.6-.1 3.4 0 6.7.9 10.3.7 3.3 3.2 5.2-.2 10 5.1 1.1 11.2-5.1 16.3-7.4 2.6-.7 4.8-1.1 6.8 0 1.5.9 1.4 3.5 2.8 4.5 2.3 1.5 5.5.6 8.1 1.4 5.7 1.7 6.8 7.1 16.3 7 2.8 0 3.2 4.4 5.6 5.7 3.1 2.4 11.1.6 12.8 4.9 2.3 5.7-7.7 12.2-7.1 16 .4 2.8 3.7 5.5 6.2 7.8 1 .9 2.1 2.3 3.5 2.1.5-.1.8-.7 1-1.2.2-.3.4-1.4.4-1.4z"/></a><a xlink:href="javascript:void(0)"><path d="M429.9 222.3c1.6-3.6 3.4-4.2 5.7-5 .8-.5 1.8-1.3 2.6-2.1 1.4-1 2.3-1 3.7-1.6-4-2.9-7.8-5.8-11.6-8.8-1.4-1.1-2.9-2.3-4.3-3.5-1.8-1.6-4.2-3.8-5.4-5-.7.3.6 3.1 1.4 5.6.9 2.8 1.4 3.9 2 5.9.7 2.6.7 4.4.5 5.5-.1.7-.7 1.4-1.4 1.7-1.1.4-2.1-1.6-3.3-.3-1 1.1 0 3.3.7 4.7 1.2 2.6 2.3 5.6 5.8 6.2.7.1 1.3-.4 2-.6.6-.8 1.2-1.7 1.6-2.7z"/></a><a xlink:href="javascript:void(0)"><path d="M445.1 191.8c2.4-.7 4.6-.1 7.2.1 1.8.2 4.2 1.3 5.1-.8.6-1.6.9-3.6.7-5.3.1-3.3.2-6.2.2-9.2h-5.2c-.5.8-1.3 1.5-2.2 1.9-1.1.6-2.4.8-3.6 1-1.7.2-3.6-.5-5.2.1-2.2.8-1.9 2.8-5.5 4.2-2-.3-2.5-.4-3.3-1.2-1-.8-1.6-1.6-1.7-3.4.3-1.8 1.1-3 2-4.6-.4-2.2-1.6-2.4-2.3-1.4-3.1 3.5-5.8 4.8-9.8 5.5-3.7.6-5.5-3.3-8-2.8-7.4 1.7-6.7-2.8-10.3-3.9-3.2-.8-5 2-8.5 1.1-2.7-.7 0 5.2-1.3 7.5-.8 1.5-1.8 1.8-4.2 3-1.3.7-3.1 1-3.1 2.2-.1 1.5 2.3 2 3.4 3.1 1.3 1.3 2 3.5 3.6 4.1 4.9 1.6 8.7-6.1 13.7-6.2 2.6-.1 5 1.6 7.3 2.9 2.1 1.2 4.2 3.7 5.8 4.5 1.8-.5 4.4-2.4 6.5-2.4 4.3-.1 7.6 4.8 12 4.3 2.4-1 4.2-3.6 6.7-4.3z"/></a><a xlink:href="javascript:void(0)"><path d="M456.6 195.9c.3-.8 1-1.9-1.1-2.3-1.8-.2-7.6-1-10.5.3-1.7.8-2.3 2.3-4.1 3.1-4.4 3-8.1-1.7-12.3-3-1.2-.4-3-.6-4.1 0-1.5.8-1.8.7-2.8 1.6 5.7 4.1 10.2 8.2 15.4 12.2 1.9 1.5 3.8 3.2 5.7 4.5 1.4-1.4 3.2-3.1 4.6-4.5 3-3.9 7.5-7.4 9.2-11.9z"/></a><a xlink:href="javascript:void(0)"><path d="M89.1 195.9c1.2-1 2.1-2.7 3.4-3.2 3.3-.1 7.8 1.5 11.4.4 3.7-1.1 8.5-5.4 9.4-6.8 4.4-7 5-8.7 9.2-10.9 2.4-1.3 4.6-1.1 8.1-.8 2.7.2 3.9 4 5.8 5.6 1.6 1.3 3.5 2.3 5.4 2.8 6.2 1.8 12.7 2.1 19.2 2.1 5.4 0 10.7.1 16.1-.3 1.2-.1 2.4-.2 3.6-.4.7-.1 1.5-.2 2.1-.6 1.6-1.3 3.6-16.8 3.7-18.1-.5-1-2.5-4-3.3-6.9-.7-2.6 2.2-8.3 3.6-10.9 1.3-2.5 4.3-8.7 7-13.1 1.6-3.5 4.8-9.5 7.4-15.2 2.7-6 5.5-9.2 4-13.5-1.1-3.1-4.1-3.9-8.2-5-3.8-1-8.4-1.1-11.6-3.5-3.3-2.4-5.2-5.7-7.1-9.9-1.5-3.3-2.8-7.9-2.9-9.7-2.6-.3-5.9-1.4-8.7 0-3.9 2-1.1 7.3-5.9 10.1-4.8 2.8-6.7-1.2-9.9-.2-3.1 1-3.5 5.8-7.8 6-3.9.2-6.3-2.5-8.1-5-5.5-7.8-1.1-19-5.5-27.5-1.2-2.3-2.9-5.4-5.5-5.9-1.6-.3-1.6.4-3.8 1.4l-4 1.8v3l-1.5 1.3c-.9.7-3.4 2.3-5.8 3.4l-4.3 2-3.3 3.3c-.8.8-1.6 1.7-2.5 2.5-.2.2-.8.8-1.2.8-.3 0-.4-.3-.4-.6-.1-.8 0-1.8-.8-2.3l-.8-.5-3.3 1.2L89 74l-3.3-2.6-3.3-2.6h-3.2l-.5-3.6-.5-3.4-1.6-2-1.6-2-2.6 2.6-2.6 2.6-1.1-1-1.1-1-1.6 1.2-1.6 1.2h-16v1.7c0 1-.3 2.3-.5 3.1l-.5 1.4h3.3c3.4-.3 5.8 1.1 5.4 4.5-.4 3.8-2.6 2.8-4.8 1.7-1.8.7-3.5 1.4-5.3 2.1v7.2l3 3 3 3c-1.3 1.4-.4 2.2.4 3.8l1.3 2.6c1.8 10.6-1.2 30.6-6.4 40-2.9-.1-5.1-1-8.1-1.9-3.3 3.8-8.7 2.2-12.1 3.5-1.8.7-4.5 3.4-4.5 3.4-3.6 1.5-5.2-1.4-6.9.1-2.4 2.1-1.5 6.4-1.5 9.5.2 3.1-1 4.7-2.4 7.2.6 5.5-3.8 6.5-5.3 11.8 5.6 4.3 10.4 5 16.7 6 18.1 2.9 25.1 6.3 35.5 10.5 8.7 3.5 21.8 9.5 25.6 11.5 1.9-.8 3.3-2 4.8-3.2z"/></a><a xlink:href="javascript:void(0)"><path d="M289.8 176.8c1-3.2-.7-6.8.3-10 1.3-4 4.1-7.6 7-10.3 2.4-2.3 4.9-4.9 5.1-8.1.1-2.8-4.3-7.1-3.7-7.6 3-2.4 9.4-5.9 13.2-10 3.6-3.9 6.2-8.7 8.6-13.4 2.9-5.7 5.6-12.5 6.9-17.9.7-2.9 1.5-3.9-2.9-5.9-2.6-1.2-5.9-3.1-12.4-4.2-13.5-2.4-6.4-5.5-10-7.7-5.7-3.6-9.1-5.8-18.2-9-2.2.9-4.2.4-6 .1-3.8 3.4-11.4 11.3-13.2 14.4-7.6 13-7.1 7.4-10.8 3.3-1.6-1.9-2.6-3.3-3.5-6.1-1.4-3.2-4-1.7-4.8-5 .1-9.6-2.7-10.6-6.6-16.7-2.2-3.4-6.9-4.9-11.3-4.6-3.4-.1-1.8-4.1-2.5-6.4-.7-2.4-4.2-1.3-6.1-.7-2.3 1.1-4.6.4-6.9-.1-2.5 2 2.4 5-.1 6.6-1.9 2-5 .1-7.4.3-3.1 0-6.4-1.3-9.3-.4-2 1.8-15.4 8.1-17.9 9.1-.3 4.9-.4 8.1.2 12.6.8 6.4 3.7 12.5 7.9 16.3 3.5 3.2 9.9 3.4 13.4 4.6 2.3.8 6.7 1 8.4 6 1.5 4.6-4.5 12.6-7 18.9-2.3 5.7-5.6 11.4-8.6 17s-5.6 9.2-6.9 14.6c-.6 2.6 1.8 5.6 3.6 8.3 2.2 3.3 4.2 7.9 4.2 13 .2 4.5 1.2 5.2 3.3 7.4 2.4 2.4 4 4.6 6.9 5.6 2.8.9 5.8 1.1 8.7 1.3 3.4.2 6.8.2 10.1.3 8.1.3 16.2.8 24.4 1.2 4.7.2 9.5.5 14.2.7 6.1.3 12.2.6 18.1.9 1.8-5.8 9.5-11.5 11.6-18.4z"/></a><a xlink:href="javascript:void(0)"><path d="M213 285.3c3.5.5 6.6 3.7 10.1 3.3 6.3.3 15.6-2.1 17.2-1.2 1 1.7.5 5 2.6 5.7 2.7 1.6 1.2-3.3 1.4-4.7.6-2.4 1.8-6.5 3.3-9.4 1.4-2.7 3.1-5.3 5.3-7.3 1.9-1.8 3.6-3 6.7-4.2 1-.4.4-7.6 6.5-9.3 2.9-1.3 2.7-3.2 3.3-5.3 1.1-6 3.4-11.7 5.9-17.3-.7-2.9-1.8-5.6-2-8.5-.4-6.3-.2-12.5.9-18.7.6-3.8 2.6-7.7 3.7-11.3-11.5-.9-22.9-1.7-34.4-2.2-10.8-.5-21.5-.6-32.3-1.1-2.2-.1-4.5-.2-6.7-.7-1.1-.2-2.3-.5-3.4-1-1.4-.7-2.5-1.8-3.6-2.9-2-1.8-3.7-3.2-5-5.5-1.5-2.6-1.4-5.1-1.9-9.2-.3-2.8-1-6.2-3-7.9-.4 2.2-.4 6.3-1 9.1-.7 3.2-1.4 8.6-2.8 9.7-1.4 1.3-10.8 1-16.2 1.2-6.1.3-16.3-.7-17.9-.8.3 3.3.3 6.7.4 10.3 0 2.8-1.6 5.7-1 8.5.4 2.1 1.8 3.4 3.5 4.7 2.9 2.2 7.7.6 10.3 3.1 4 3.8 5.4 10.7 4.9 16.2-1.2 11.1-12 12.8-5.7 18.6 3.8 5-.2 11.3.5 15.8.4 2.3 4.3 3.3 3.6 6 .2 1.9-.5 4.8.4 6.1 6.9.2 13.7.3 20.6.5.8 3-1.7 5.7-.8 8.3 1.7 4.5 6.4 4.3 8 8.6.6 3.4 2 2.7 3.4.1 2.4-5.4 6.5-6.7 9.2-7.6 2.2-.4 3.9 0 6 .3z"/></a><a xlink:href="javascript:void(0)"><path d="M158.2 241c4.2-2.8 7.3-8 7.6-13.1.3-5.2-2-12.2-5.7-14.4-2.8-1.6-7.3-1-9.6-3.1-1.7-1.6-3.5-4-3.6-6.5-.1-2.9 1.4-5.5 1.3-8.4-.1-3.4-.4-5.9-.5-9.7-3.4-.3-8.2-1.1-11.5-3.2-2.3-1.4-3.5-5.1-5.9-6.1-6.3-.7-7 1-9.8 2.9-3.4 2.4-4.7 8.1-7.5 10.1-3.1 2.1-6.2 4.8-9.9 5.7-3.3.8-6.4-.3-10.1-.4-1.4 1.6-2.9 2.8-4.6 4.1 12.9 1.1 15 1.4 16.5 10.5-.1 3.3-1.1 6.8.1 9.8 3.1 5.1 7.7 9.9 12.8 12 4.1 1.6 9.1 0 13.1 1.9 1.7.8 2.5 2.7 4 3.7 1.8 1.3 4.2.9 6.3 1.6 1.2 1.4 1.9 3.4 3.6 4.1 4.3 1.6 9.7 1 13.4-1.5z"/></a><a xlink:href="javascript:void(0)"><path d="M54.5 215.5c2 0 4.1-.5 6.2-.3 1.5.6 3 1.1 4.4 1.7 5.1-3.1 10.5-5.8 14.9-9.9 1.7-1.6 2-3.3 3.4-6.1-9.7-4.6-13.2-6.2-19.9-9.1-7.9-3.3-15.7-6.9-23.9-9.3-8.5-2.5-22.6-4.7-26-5.5-2.8-.6-7.6-4.1-7.6-4.1-.4 1.4-1 2.8-1.9 4.9 1.5 2.2 2.4 3.6 2.8 6 2 4.8 6 8.1 9.1 12.2-.3 1.1-.7 2.3-1 3.4 3-.2 6 .5 8.7 1.8.7 1.5 1.3 2.9 2 4.4h9.2c1.4-1.5 2.8-3 4.4-4.3.7-.6 1.6-1.3 2.6-1.2.7.1 1.5.6 1.5 1.4.2 4.8.1 9.1.1 14.5.7 1.2 1.6 1.7 2.8 1 2.8-.7 5.7-.9 8.6-1.2l-.1-.2-.3-.1z"/></a><a xlink:href="javascript:void(0)"><path d="M263.9 84.7c3.8-4.8 8.8-8.6 12.8-13.2 1.8-2.9 3.4-4.1 5.9-4.9 1.4-1.4.7-3.8 1.1-5.7-.8-.8-1.4-2-2.2-2.6-1-.1-2.1.2-3-.1-1.3-1.4-2.9-2.6-4.1-4-2.2-6.6-4.5-13.2-5.7-20.1-2-9.3-2.2-5.1-4.2-2.7-1.9 2.3-4 4.4-5.8 6.7-2.2 4.4-4.4 8.7-6.5 13.1-1.7 1.1-3.4 2.2-5.1 3.4-1.5-.5-3-1.3-4.4-1.5-4.8 2.9-3.4-3.1-4.6-1.6-.8.6-3.2 2.4-4.3 2.2-2.6.2-3.8-.1-6.2-.8 0 1-.4 4.1 1.2 3.6 1.1.1 2.5-.5 3.6 0 3.6 1 7.6 3.4 10.1 7.3 4.6 7.7 4.4 8.2 5.1 13.9.6 4.3 2.9 2.9 4 4.5 1.3 1.9 1.7 3.7 3 6 .6 1 1 2.1 1.6 3.1.3.6.7 1.1 1.3 1.2 2.1.6 2.7-2 3.7-3.3.8-1.4 1.5-3.1 2.7-4.5z"/></a><a xlink:href="javascript:void(0)"><path d="M366.2 356.9c-.1-.5-.8-1.2-.2-1.5 1.4-1.4 2.8-2.7 4.3-4.1 2.3-.7 4.8-1.1 6.5-2.8.8-1.1.2-3 .7-4.4.3-1.5 1.9-3.6 1.1-4.8-2.7-.3-4.3-.7-6.5-1.1-.7-1.4-1.8-3.8-2.6-5.2-1.1 1.1-1.9 3.9-2.6 5.2-1 2.1-1.2 4.7-2.8 6.4-2.1 2.2-5.2 3.5-8.2 4-2.1.3-4.2-1-6.3-.8-3.7.3-6.6 2.1-10.6 3.2-.3.2-4.1 1.2-3 1 2.8 1.4 3.9 1.7 4.3 3.5.4 2.2-2.5 4.5-3.2 5.9.6 1 3.9-2.2 4.7-2.5.5-.3 3.2-1.4 3.7-.8 1.6 1.3 4.3.2 6.3.1.5-1 .5-2.6 1.6-3 1-.3 1.9.8 2.8 1.2-.3.5-.7 1.1-1 1.6 3.6.2 7.1.5 10.7.3.8-.1.7-.6.5-1.2-.2 0-.2-.1-.2-.2z"/></a><a xlink:href="javascript:void(0)"><path d="M245.2 481.3c1.4-1.2 3.2-2 3.6-3.9 1.8-4 3.5-8 5.6-11.9-2.9-.2-1.4-2.7-.7-4.6.1-3.1 2.5-4.9 5-6.2 2.3-.6.4-3.5 2.4-4.5 1.9-2.6 3.3-5.5 5-8.3 1.5 0 6-.3 4.4 1.8-2 2.6-2.8 6-5 8.4-1.8 2.3-3.3 4.9-5.9 6.5-1.7.8-5.2 5.7-1.4 4 1.8-.3 2.6-2.2 4-3.3 2.2-2.5 4.7-4.7 6.8-7.3 3.2-5.9 6.7-12.5 10.3-18.1-1.6-1.7-2.4-3.7-4-6 2.4-2.6 4.5-3.7 3.5-5.3-1.1-1.7-2.4-.5-6.4.4-6.3-8.3-10.7-11.5-18.7-14.4-4.7-1.7-12.5-2.1-16.6-2.2-5.4 2.8-8.6 5-13 9.2-9.9 6.6-16.7 18.3-24.1 26.7 1.7 1.3 2.6 0 3.9-.9 1.8-.7 3.5-.3 4.5 1.3 2.3 2.4 4.7 4.8 7 7.2.2 1-.6 4 .9 2.4 1.1-.7 2.1-1.5 3.2-2.2 4.6 5.2 10.8 8.7 15.6 13.1 4.5.3 5.4 6.1 9.6 9.4-1.2 2.5-2.6 4.9-3.6 7.5-.4 2.2.5 4.5 2.7 1.9.5-.1 1-1.7 1.4-.7z"/></a><a xlink:href="javascript:void(0)"><path d="M290.6 418.5c-.8-2 1.4-2.5 1.7-4.1.3-2 .7-4 1-6-.8-1.9-2.3-3.5-2.1-5.6-.1-2.6-.2-4.9-.4-7.5 2.1.5 1-1.2.7-1.7-.8-1.1-1.9-.8-2.9-.8-2.1.1-3.7 1.8-5.8 2.2-2.2.4-4.3-.7-6.7-.3-4.9.9-9.5 4.7-14.7 5.1-4.7.4-9.5-.8-14-2.2-3.2-1-5.6-2-9-4.2-.5 4.4-1.1 8-1.1 10.9 9.7-.2 19.2 1.2 26.3 6.8 3 2.4 7.2 5.9 9.2 9.2 3-.3 6.3-1.3 7.7.9 1.4 2.4-1.3 5.2-3.1 7.9.8 1.2 1.5 1.9 2.4 3 3.4-3.5 7.6-8.3 11-11.8-.2-.3.4-2.1-.2-1.8z"/></a><a xlink:href="javascript:void(0)"><path d="M261.1 397.7c4.3-.5 9.3-3.9 14-5 2.5-.6 4.7.7 7 .4 2.2-.3 4-1.8 6.2-2.2 1.9-.3 4.5 0 5.8 0 1.4-2.7-3.5-3.2-2.8-4.9.9-2.1 5.3.2 6.5-1.7.3-.5.4-1-.3-1.9-.6-.9-1.6-.8-2.4-1-.7-.2-1.7.5-2.2-.1-.9-1.1.5-2.7.7-4.1-2.5 0-4.8.8-6.6-.6-2.1-1.6 1.9-2.7-2.8-7-1.7-1.9-2.4-4.5-2.1-7-.1-2.8 0-5-2.3-6.4-2.7-1.5-6.9-.8-10.3-1.6-2.9-.7-5.9-2.1-8.6-2.6-4.9-.9-9.2-1.3-14.1-.2-2.3.5-5.6 1.3-6.9 3.6-2.5 4.4-2.5 9-4.1 14.1-1.3 4.4-3.2 10.1-4.6 13.3-.4 1.1-.9 2.2-1.3 3.3 1.6-.4 3.2-.7 4.8-1.1 1.4 2.2 1 4.4 4.2 6.5 5.7 3.6 13.6 6.6 20.6 6.3l1.6-.1z"/></a><a xlink:href="javascript:void(0)"><path d="M308.7 374.9c2.6-1.6 4.9-3.8 7.7-5.1 2.5-1.5 4.8-2.7 7.3-3.3 1.3-.1 2.8.8 4.1.4 3.1-.8 4.8-2.1 7.9-5.6 5.8-6.1 1.3-7.3-.8-8.7-4.8 2.2-8.4 2.9-12.7 4-1.4.2-3.3-.8-3.8-1.9-1.8-3.6-3-7.1-4.8-12.2-1.3-4.4-2.5-8.7-3-13.3-.2-1.8-.7-6-2-7.2-.8-.7-2.2-.2-3.1.1-1.3.3-2.6.8-3.9 1-2.6.5-5.3 1.5-8 1.1-3-.5-8.2-4.3-11.1-5.1-4.8-1.3-10-1.1-13.2.2-1.5.6-3.8 6.5-4.8 8.4-3 5.6-4.9 10-8.2 14.5-1.2 1.7-2.6 3.3-4.2 4.5-2.2 1.7-7.8 3.4-7.4 3.7.4.3 7.1-1.4 10.7-1.2 4.9.3 9.5 2.4 14.4 3.3 3.7.7 8.2.2 11.3 1.9 1.7 1 2.2 1.9 2.9 3.7.8 2.2-.1 5.2.6 7.5.7 2.5 3 3.5 3.8 6 .3.8.4 3 1 3.7 1.5 1.7 4.3-.8 5.9.9.7.8-.4 2.3.4 3.2.9 1 2.8 1.6 4.3 1.4 3.3-.4 5.3-3.7 8.7-5.9z"/></a><a xlink:href="javascript:void(0)"><path d="M218.8 353.8c.6 2.7.8 11.8 3 13 7.2-1 5-6.5 13.2-2.5 1.1-4.3 1.2-5.7 2.4-8.3 1-2.1 2.2-4.2 3.9-5.7 2.6-2.3 6.4-2.8 9.1-5 1.7-1.4 3.1-3.1 4.5-4.9 2.2-2.9 3.9-6.2 5.6-9.4 2.3-4.2 4.9-8.3 6.9-12.7.8-1.7 1.1-3.3 1.7-5.3-6.1-2.8-13.2-5.6-16.2-7.1-2.1-1-4.1-1.1-5.3-2.5-.8-1 1.1-2.8-.7-3.4-1.4-.5-3.8-1.8-3.3-3.4.7-2.4-2.3-1.7-3.3-3-.5-.7-.6-4.8-1.9-4.6-6.8.8-12.5 1.8-15.8 1.6-4-.3-7.3-3.5-11.3-3.8-2.2-.1-4.2.6-6.4 1.4-3 1-7 6-8.9 10.3-.6 1.9-2.1 12.6-5.4 18.5.9 1.3 1.7 2.6 2.6 3.9-.8 1.1-2.2 2-2.7 3.2 1 3.1 2.2 6.2 3 9.4-.2 3.8.1 5.6-1.2 9.3 4.3 1.3 7.5-.4 12-.1.9-.7 5-4 6.1-3.1 6.6 3.8 6.2 6.6 8.4 14.2z"/></a><a xlink:href="javascript:void(0)"><path d="M272.2 307.9c5.7-7.1 7.8-4.5 12.8-5.7 2.2-.6 6-2.6 8.2-3 4.2-.7 7.4 2.5 11.5 1.4 1.7-.5 3.4-1.5 4.4-2.9.9-1.3 1.4-3.1 1.3-4.7-.1-1.6-1.3-2.8-1.3-4.4.1-2.4 3.1-4.2 2.8-6.5-1.1-8.3-3.5-8.2-15.3-8.9.2-2.8.3-5.6.4-8.4 15.9-.8 9.4.2 14.6 7.2 1.3-.6 2.5-1.2 3.8-1.8 2.1-2.2-.7-6.8 1.3-9.1 2.8-3.3 4.9-1.3 7.1-2.4 1.2-.6 2.8-1.1 3.3-2.4.6-1.4.2-2.8-.7-4.4-.8-1.8-.8-2.8-1.3-5.4-1.3-6.9.7-8-.9-8.4-2.7-.7-4.6-1.5-8.7-1.8-3.7-.3-5.4 6-9 6.8-3.9.8-7.7-2.9-11.6-2.6-1.6.1-3.1 1.4-4.6 1.7-1.9.4-3.7.7-5.5.1-1.8-.5-3.2-1.9-4.7-3.3-1-.9.5-5.5-2.6-3-3 2.9-5.1 10.7-5.8 13.6-.3 1.7-.5 6.3-2.3 8.6-1.3 1.6-4.1 1.4-5.5 2.9-1.7 2-2 5-2.8 7.5-2.1 1-4.6 2.5-6.5 4.2-2.1 1.9-4 4.2-5.4 6.7-1.6 2.8-2.8 6.2-3.2 9-.3 2.1-.1 4.4.2 6.4-1.1 3.9.5 2.5 3.4 5.1.1 1-1 2.4 0 2.6 4.5 1.6 7 2.6 10.4 4.1 3.2 1.6 6.6 3.4 9.9 4.8.8-1.1 1.4-2.3 2.3-3.6z"/></a><a xlink:href="javascript:void(0)"><path d="M369.1 328.5c2-2.4 4.9-3.8 7-6.4 1.8-2.3 4.2-4.2 4.4-7.1.1-2.2-1.5-4.8-2.7-6.6 2.7-.8 4-3 1.5-4.6.2-2 1.1-3.6 3.9-3 1.5-3.7 2.4-3.3 4.4-3 1.6.5 3.6 1.4 3.9.9.3-.4-1.4-1.4-2.4-2.4-1.6-1.4-2.8-4-2.6-6.5.2-3.2 9-8.4 7.2-13.3-1.5-3.9-8-2-11.4-4.1-2.3-1.4-3.1-5.5-5.9-5.6-9.3-.3-11.4-5.9-15.6-6.8-4.2-.9-7.1-.6-9.6-2.2-1.4-.9-1.4-3.9-3.1-4.4-4.2-1.2-8.2 3.4-12.2 5.1-2.2.9-1.4 1.3-6.6 2.6-2 .5-4.1-.4-6.1-.6-1.3-.1-3.6-.2-4.6.9-2.3 2.4 1.4 9-2.4 10.4-3.5.9-4.1 1.7-4.4 3.7-.2 1.1 1.9 4.6 1.6 7.1-.2 2.2-2.5 3.4-2.7 5.6-.1 1.7 1 2.6 1.3 5.1.3 2.7-.9 5-2.5 6.4-2.4 2.1-5.8 3.3-8.9 2.6-1.8-.4-4.6-1.9-7.2-1.5-2.2.3-4.8 2.3-6.9 3-2.6.8-6 0-8.4 1.2-2.6 1.3-4.7 3.8-6.3 6.2-1.1 1.7-1.6 2.8-2.5 6.4 2.1-.6 3.1-.9 4.6-.9 3.5-.1 8.2.4 10.5 1.3 2.7 1 6.1 3.9 9 4.4 2.4.4 5.1-.7 7.5-1 2.6-.4 5.6-2.4 7.9-1.2 3.1 2.6 2.7 4.8 3.3 8.3.3 1.8.7 5.5 1.2 7.2.4 1.8.9 3.5 1.5 5.1.5 1.7 1.1 3.3 1.7 4.8 1.1 3 2.1 7.8 4 8.9 2 1.2 4.6-.7 7-1.2 2.1-.5 6.3-2.2 10.7-3.9 4.5-1.8 7.6-3.2 11.5-3.5 2.2-.2 4.4 1.6 6.6 1.1 2.9-.6 6.4-2.4 7.2-4.2 1.7-3.5 3.8-9.6 5.2-11.2l.4-3.1z"/></a><a xlink:href="javascript:void(0)"><path d="M381.5 334.6c1-.3 1.9-.6 2.7-1.2.9-.5 1.4-1.5 2.1-2.2.8-1.1 1.4-2.4 2.5-3.3l1.2-1.2c.4-1.2-1.8-3.5.2-3.7.9.3 1.4-.4 1.9-1.1 1-1.1 1.5-2.5 2.3-3.8.4-.8.3-1.7.4-2.6.4-3.7 2.6-8.6 3-12.3-2.1-1.5-4.3-2.5-6.8-3.1-2-.4-4.2-1.3-5.9-.2-.8.5-.7 1.7-1 2.6-.9 0-2.5-.5-3.1.4-.5.8 0 .9 1 2.6-.3 1.5-.4 2.3-2 3.2.5 1.3 2.3 3.7 2.2 5.8-.2 3.1-2.4 5.8-4.3 8.2-1.8 2.3-5.2 4.2-6.6 5.8-1.2 1.4-.6 2.8-.2 4.2.4 1.4.9 1.7 1.9 4.2 3.5.5 4.4.7 6.4 1.1 1.5-1.4 1.1-1.8 2.1-3.4z"/></a><a xlink:href="javascript:void(0)"><path d="M346 209.7c1.7-.8 3.7-1.6 5.1-3.2 1.5-1.6 2.6-3.7 3-5.6.2-1.2.2-2.4.2-3.6 0-.9-.2-1.8.2-2.6.9-2.3 3.9-1.9 5.9-1.8 3 .2 5.6 2.7 8.6 2.3 3.1-.4 5.9-3.3 8.8-4.7 5.9-5.3 4.8-4.2 6.8-6.4 1.6-1.7 5.5-2 6.9-4.4 1.3-2.3-.7-5.1.3-8 1.2-2.5 2.7-5.8 1.7-8.5-.6-1.6-3.1-1.8-4-3.2-2-3.2-2-7.3-2.4-11.1-.7-5.6.4-11.2-.4-16.8-.6-4.3-4-7-3.5-12.7.1-1.1.2-1.8-2.2-2.2-1.5-.1-1.4 2.2-2 3.2-2.7 2.2-4.4 1.3-6.2 2.7-2.4 2-4.2 4.8-5.4 7.7-2.5 6.3.8 14.9-2.8 20.1-1.3 1.8 6.7 5.9.8 10.4-3.9 2.5-7.8-1.1-11.3.4-2.7 1.2-4.1 4.5-6.6 6.1-3.6 2.4-11.7 1.8-11 6.6.7 4.6-4.9 7.9-5.8 12.4-.5 2.4.2 4.9.4 7.4.3 2.7.1 5.6 1.1 8.1 1.2 2.7 2.8 5.4 5.5 7 3.3 1.2 5.3 1.8 8.3.4z"/></a><a xlink:href="javascript:void(0)"><path d="M413.6 172.1c-1.4-4.5 1.4-7.7 2.3-11.5.5-2.3-1.2-4 1.8-6.7 2.3-2.1 3.3-3.3 4.8-5 1.2-1.5 2.4-3.3 3.9-4.5.3-.3 2.5-1.4 1.6-1.9-12.6-7.2-9.2-15.4-25.2-22.1-4.4-1.8-10.1-2.2-14.3-1.7-.6.6-4-1.8-4-.6-.3 5.7 3.3 9.6 4 14.6.8 5.5-.8 11.1.3 16.6.8 4.1.8 10.5 4.7 11.8 5.4 1.8-.8 9.8.8 10.6 3.7.5 5.6-2.2 8.6-1.4 2.5.7 5.5 4.7 8.4 4.3 1-.3 2.6-1.4 2.3-2.5z"/></a><a xlink:href="javascript:void(0)"><path d="M159.4 86.7c4.7-2-.1-10.7 10.3-11.3 1.8-.1 3 .4 5.5.8.1-2.2.2-4.5.3-6.7 0-.8.2-2.1-.2-2.7-.7-1-2.7-.7-3.7-1.1-2.9-2-3.6-4.5-4.9-7.1-1.4-2.8-2.7-5.9-3.1-9-.4-3.6 1-7.1 1.2-10.7 1.1-.9 2.2-1.9 3.3-2.8-.4-1.9-.8-3.8-1.2-5.6-1.9-1.2-5.5-1.4-4.4-4.4.1-1.7.2-3.5.4-5.2h-5.1c1.6 1.9 0 3.3-1.4 4.5-4.3 4.7-18 9.9-21.1 8.8-.3-2.3-2.4 2.4-3.3.6 1.3 2.6.2 5.9-2.7 6.3-2.3-1.9-4.3-5.1-7.6-3.2-3.1.2-5.9-1.4-8.6-2.8-1.6-.5-5 .1-1.9 1.5 2.2.9 4.2 2 3.5 4.6v5.4c3.2 1.1 2.6 6.8 5.2 6.9 6.5.2 6.5.8 8.9 3.5 5.6 6.6 3.5 14.7 5 24.8.7 4.6 4.3 10.5 8.6 10.8 2.7.2 4.8-4 6.6-5.4 6.4-3.2 3.6 1.4 10.4-.5z"/></a><a xlink:href="javascript:void(0)"><path d="M325.2 235.6c2.1-9.1-4.3-6.9.3-12.2 2-2.3-3-4.5-3.1-7-.2-4.8 4.4-10.5 4.9-13.5 0 0-3.8-1.8-4.8-3.5-.8-1.2-.3-3.8-1.2-5.5-.6-1.2-1.9-1.9-2.5-3.2-.7-1.4-1.1-2.9-1.2-4.4-.1-2 .6-3.9.9-5.8.3-1.6 1.8-3.2 1.2-4.7-.6-1.5-3.1-1.2-4.2-2.4-2.1-2.2-3.4-5.1-4-8-.7-3.1.1-6.2.3-9.5.2-2.5.2-5.7-1-8.1-1-2-2.8-3.6-4.7-4.7-1.6-1-2.8-1.3-5.5-1.7 1.2 2.2 3.3 3 3.4 7.1 0 1.6-.9 3.6-2.2 5.2-1.8 2.4-5.2 5.1-6.2 6.4-1.2 1.7-3.3 4.6-4 7.3-.5 2.2.5 4.5.2 6.8-.4 2.7-1.4 5.4-2.6 7.9-2.1 4.1-6.5 7-8 11.3-1.7 1.8-6.9 16.7-6.4 25.7 0 5.1.1 10.4 1.7 15.3 1.8-1.9 4.4-2.3 4.2 1.1-.2 3.3 2.9 4.6 5.3 5.3 2.9.9 5.9-2.2 8.9-2.1 3.2.1 4.4 1.5 9.2 2.8 4.4.8 6.4-6 10.3-7.1 3.5-.7 8.1 3.7 10.8 1.2z"/></a><a xlink:href="javascript:void(0)"><path d="M328.6 186.8c1.1-4.2 3.9-6.8 5.5-10.6.6-2.3-.2-5 1.4-5.9 4-3 6.8-2.2 9.9-4 3-1.8 5-5.3 8.2-6.6 3.5-1.3 7.9 3 11.2-.6 2.7-2.6-3.1-7-2.1-8.6 3.1-4.7 1.2-16.6 2.3-19.6 1.2-3.2 3.7-6.6 6.3-9.3 1.8-1.9 7 0 6.4-4.8-3.1-.9-6.4-1.7-9.4-3.2-2.3-.9-4.5-2.7-7.1-2.3-1.9-.6-1.6 2.7-3.7 1.7-1.7.1-3.7-.6-4.4 1.5-2.1 4.4-6.4 5.2-5.8 1.5.8-2-3.2-1.3-1.2-3.3 1.1-1.5 1.4-2.8-.6-3.4 0-1.8 1.7-3.9.3-5.6-.9-1.5-3.8-5.1-5.4-3.1-1.1 1.9-2.2-.9-3.6-1.5-3.5-1.4-3.3-1.4-7.5-2.4-.5 3.4-1.1 5.5-2 8.2-1.1 3.4-2.5 6.7-4 9.9-1.8 4-3.6 8-6.1 11.6-1.9 2.8-4.1 5.5-6.6 7.7-2.7 2.4-6.5 4.4-9 6.2 2.1.5 4.8 1 6.8 2.3 1.9 1.3 3.4 3.2 4.3 5.2 1 2.3.9 4.9 1 7.4.1 3.3-1 6.3-.4 9.4.5 2.5 1.5 5.1 3.1 7.1 1.3 1.6 4.3 1.6 5.1 3.5.5 1.2-.3 2.4-.7 3.9-.8 2.9-1.8 6.1-1.2 9 .5 2.3 3.1 3.7 3.9 6 .4 1.2-.4 2.8.3 3.9.8 1.5 3.1 3.6 4.5 3.5 3.3-1.3-.9-10.1.3-14.7z"/></a><a xlink:href="javascript:void(0)"><path d="M443.2 160.5c.9-.2 1.6.3 2.8.7 1.5.8 7.8.8 11.6 1.2-.9-3-.9-6.2-2.2-9-.5-1.1-1.3-2-2.1-2.8-1.6-1.4-3.6-1.9-5.7-2-1.9-.2-3.8-.5-5.7-.4-.8 0-1.6.1-2.4-.1-2.5-1.7-4.5-4.7-7.5-5.1-1.4-.2-2.6.4-3.6 1.4-2 2.1-3 3.8-4.5 5.6-2.2 2.7-6.3 4.7-6.5 7.9 1 3.1 2.5 3.3 4.2 2.8 1.6-.5 4.2-1.6 6.2-2.7 1.6-.9 2.8-3 4.6-3.3 1.6-.2 2.7.9 2.5 2.5-.1 2.4-4.1 4.7-2.8 6.8.7 1.2 2.3.7 4.1.3.7.8 1.7 2.2 3 2.3 1 .1 2.1-.6 2.5-1.4.5-1.1-.9-2.2-.5-3.5.4-.4 1.2-1 2-1.2z"/></a><a xlink:href="javascript:void(0)"><path d="M438.6 180.5c.7-.7 1.1-1.8 2-2.2 2-.9 4.5.5 6.6 0 1.6-.4 3.8-.6 4.4-2.1.5-1.3 2.8-1.2 4.3-1.2 1.3-.1 2.3 0 2.9-.8 1-1.3.2-3.2.1-4.8 0-1.2-.6-4.3-1.2-5.2-6-.4-6-.5-11.1-.9-1.1-.6-2.5-1.4-3.5-.8-.9.6.2 2.3.1 3.1-.1 1.4-1.9 2.9-3.2 3-1.6.1-3.1-1.9-4-2.7-1.5.1-3.2.6-4.5-.1-.7-.4-1.2-1.2-1.2-2-.2-2.6 5.1-5.5 3.1-7.2-1.4-1.3-3.4 1.7-4.2 2.5-.9.8-1.9 1.3-3 1.9-1.3.7-2.7 1.4-4.2 1.7-1.5.3-3.3-.9-4.7-.1-1.1.6-1.5 2-1.8 3.2-.7 2.8-1.3 6.3.4 8.7 1.3 1.8 2.8 2.9 6.3 2.3 2.5-.4 3.9-1.6 6.6-3.9 1.5-1.4 3.1-2.1 4.6-1.4.9.4 1.2 1.4 1.3 2.6.1 1.4-2.3 3.4-2 5.2.2 1.4 1.3 2.9 2.8 3.4 1.2 0 2.7-1.3 3.1-2.2z"/></a><a xlink:href="javascript:void(0)"><path d="M310.4 272.5c-1-1.3-2-2.6-2.9-4-.4-.6-.7-1.3-1.2-1.8-.8-.8-2.1-.9-3.2-.8-3.1.2-4.6.4-4.6.4v5.3l10.6 1.1 1 1.9 1.2-1.4c-.1-.3-.5.1-.9-.7z"/></a></g><a xlink:href="javascript:void(0)"><path class="st2" d="M419.8 278.8c.7-2.3 2.3-8.2 2.8-10.9 1.1-4.4 3.2-8.6 2.9-13.2.2-9.7.2-19.5 1.9-29.2-1.2-2.7 4.3-3.2 2-5.4-1.7-.6.4-3.1 1.6-3.4 1.5-.4 2.9.4 4.1 2.6 1.7.8 2.1-1.3 3.4-2.4 1.8-3.6 4.6-7.8 6.4-9.8-2.9-2.5-4.4-3.5-5.5-6-1.2-2.6-2.5-6.4-.7-8.6.8-1 3.1.5 3.9-.5 1.1-1.5-.2-3.8-.7-5.5-1.1-3.3-2.2-8.3-3.9-11-1.2-1.9-2.9-3.4-4.7-4.7-1.9-1.3-4-2.6-6.2-2.7-2.6-.1-4.7 2.6-6.7 3.8-2.2 1.3-3.8 3.2-6.5 3.5-2.5.2-4.2-1.4-5-4-1.3-2.2-2.4-3.7-4.5-3.8-1.2-.1-2.1 1.2-3.1 1.9-1.8 1.3-3.4 3.1-5.3 4.2-2.3 1.4-4.6 2.9-7.2 3.2-4.2.5-7.7-4-12-2-1.4.6-.3 2.8-.6 4.3-.3 1.9-.7 3.9-1.7 5.5-1.4 2.2-3.2 4.3-5.5 5.5-4.9 2.8-10.7 2.1-14.9-1.5-1.3-1.2-1.9-3-2.8-4.5-.7-1.1-1.4-1.5-2.3-.4-1.1 1.3-1.6 3.2-2.2 4.7-.8 2.2-1.6 4.4-2.5 6.5-.6 1.4 3.1 4.1 3.3 6.7.1 1.7-1.7 3-1.8 4.7-.1 2.1 1.5 2.9 1.6 6.1.1 2.3-1 4.4-1 6.6-.1 3.4 0 6.7.9 10.3.7 3.3 3.2 5.2-.2 10 5.1 1.1 11.2-5.1 16.3-7.4 2.6-.7 4.8-1.1 6.8 0 1.5.9 1.4 3.5 2.8 4.5 2.3 1.5 5.5.6 8.1 1.4 5.7 1.7 6.8 7.1 16.3 7 2.8 0 3.2 4.4 5.6 5.7 3.1 2.4 11.1.6 12.8 4.9 2.3 5.7-7.7 12.2-7.1 16 .4 2.8 3.7 5.5 6.2 7.8 1 .9 2.1 2.3 3.5 2.1.5-.1.8-.7 1-1.2.2-.3.4-1.4.4-1.4z"/></a><a xlink:href="javascript:void(0)"><path class="st2" d="M449.9 202.3c1.6-3.6 3.4-4.2 5.7-5 .8-.5 1.8-1.3 2.6-2.1 1.4-1 2.3-1 3.7-1.6-4-2.9-7.8-5.8-11.6-8.8-1.4-1.1-2.9-2.3-4.3-3.5-1.8-1.6-4.2-3.8-5.4-5-.7.3.6 3.1 1.4 5.6.9 2.8 1.4 3.9 2 5.9.7 2.6.7 4.4.5 5.5-.1.7-.7 1.4-1.4 1.7-1.1.4-2.1-1.6-3.3-.3-1 1.1 0 3.3.7 4.7 1.2 2.6 2.3 5.6 5.8 6.2.7.1 1.3-.4 2-.6.6-.8 1.2-1.7 1.6-2.7z"/></a><a xlink:href="javascript:void(0)"><path class="st2" d="M465.1 171.8c2.4-.7 4.6-.1 7.2.1 1.8.2 4.2 1.3 5.1-.8.6-1.6.9-3.6.7-5.3.1-3.3.2-6.2.2-9.2h-5.2c-.5.8-1.3 1.5-2.2 1.9-1.1.6-2.4.8-3.6 1-1.7.2-3.6-.5-5.2.1-2.2.8-1.9 2.8-5.5 4.2-2-.3-2.5-.4-3.3-1.2-1-.8-1.6-1.6-1.7-3.4.3-1.8 1.1-3 2-4.6-.4-2.2-1.6-2.4-2.3-1.4-3.1 3.5-5.8 4.8-9.8 5.5-3.7.6-5.5-3.3-8-2.8-7.4 1.7-6.7-2.8-10.3-3.9-3.2-.8-5 2-8.5 1.1-2.7-.7 0 5.2-1.3 7.5-.8 1.5-1.8 1.8-4.2 3-1.3.7-3.1 1-3.1 2.2-.1 1.5 2.3 2 3.4 3.1 1.3 1.3 2 3.5 3.6 4.1 4.9 1.6 8.7-6.1 13.7-6.2 2.6-.1 5 1.6 7.3 2.9 2.1 1.2 4.2 3.7 5.8 4.5 1.8-.5 4.4-2.4 6.5-2.4 4.3-.1 7.6 4.8 12 4.3 2.4-1 4.2-3.6 6.7-4.3z"/></a><a xlink:href="javascript:void(0)"><path class="st2" d="M476.6 175.9c.3-.8 1-1.9-1.1-2.3-1.8-.2-7.6-1-10.5.3-1.7.8-2.3 2.3-4.1 3.1-4.4 3-8.1-1.7-12.3-3-1.2-.4-3-.6-4.1 0-1.5.8-1.8.7-2.8 1.6 5.7 4.1 10.2 8.2 15.4 12.2 1.9 1.5 3.8 3.2 5.7 4.5 1.4-1.4 3.2-3.1 4.6-4.5 3-3.9 7.5-7.4 9.2-11.9z"/></a><a xlink:href="javascript:void(0)"><path class="st2" d="M109.1 175.9c1.2-1 2.1-2.7 3.4-3.2 3.3-.1 7.8 1.5 11.4.4 3.7-1.1 8.5-5.4 9.4-6.8 4.4-7 5-8.7 9.2-10.9 2.4-1.3 4.6-1.1 8.1-.8 2.7.2 3.9 4 5.8 5.6 1.6 1.3 3.5 2.3 5.4 2.8 6.2 1.8 12.7 2.1 19.2 2.1 5.4 0 10.7.1 16.1-.3 1.2-.1 2.4-.2 3.6-.4.7-.1 1.5-.2 2.1-.6 1.6-1.3 3.6-16.8 3.7-18.1-.5-1-2.5-4-3.3-6.9-.7-2.6 2.2-8.3 3.6-10.9 1.3-2.5 4.3-8.7 7-13.1 1.6-3.5 4.8-9.5 7.4-15.2 2.7-6 5.5-9.2 4-13.5-1.1-3.1-4.1-3.9-8.2-5-3.8-1-8.4-1.1-11.6-3.5-3.3-2.4-5.2-5.7-7.1-9.9-1.5-3.3-2.8-7.9-2.9-9.7-2.6-.3-5.9-1.4-8.7 0-3.9 2-1.1 7.3-5.9 10.1-4.8 2.8-6.7-1.2-9.9-.2-3.1 1-3.5 5.8-7.8 6-3.9.2-6.3-2.5-8.1-5-5.5-7.8-1.1-19-5.5-27.5-1.2-2.3-2.9-5.4-5.5-5.9-1.6-.3-1.6.4-3.8 1.4l-4 1.8v3l-1.5 1.3c-.9.7-3.4 2.3-5.8 3.4l-4.3 2-3.3 3.3c-.8.8-1.6 1.7-2.5 2.5-.2.2-.8.8-1.2.8-.3 0-.4-.3-.4-.6-.1-.8 0-1.8-.8-2.3l-.8-.5-3.3 1.2L109 54l-3.3-2.6-3.3-2.6h-3.2l-.5-3.6-.5-3.4-1.6-2-1.6-2-2.6 2.6-2.6 2.6-1.1-1-1.1-1-1.6 1.2-1.6 1.2h-16v1.7c0 1-.3 2.3-.5 3.1l-.5 1.4h3.3c3.4-.3 5.8 1.1 5.4 4.5-.4 3.8-2.6 2.8-4.8 1.7-1.8.7-3.5 1.4-5.3 2.1v7.2l3 3 3 3c-1.3 1.4-.4 2.2.4 3.8l1.3 2.6c1.8 10.6-1.2 30.6-6.4 40-2.9-.1-5.1-1-8.1-1.9-3.3 3.8-8.7 2.2-12.1 3.5-1.8.7-4.5 3.4-4.5 3.4-3.6 1.5-5.2-1.4-6.9.1-2.4 2.1-1.5 6.4-1.5 9.5.2 3.1-1 4.7-2.4 7.2.6 5.5-3.8 6.5-5.3 11.8 5.6 4.3 10.4 5 16.7 6 18.1 2.9 25.1 6.3 35.5 10.5 8.7 3.5 21.8 9.5 25.6 11.5 1.9-.8 3.3-2 4.8-3.2z"/></a><a xlink:href="javascript:void(0)"><path class="st2" d="M309.8 156.8c1-3.2-.7-6.8.3-10 1.3-4 4.1-7.6 7-10.3 2.4-2.3 4.9-4.9 5.1-8.1.1-2.8-4.3-7.1-3.7-7.6 3-2.4 9.4-5.9 13.2-10 3.6-3.9 6.2-8.7 8.6-13.4 2.9-5.7 5.6-12.5 6.9-17.9.7-2.9 1.5-3.9-2.9-5.9-2.6-1.2-5.9-3.1-12.4-4.2-13.5-2.4-6.4-5.5-10-7.7-5.7-3.6-9.1-5.8-18.2-9-2.2.9-4.2.4-6 .1-3.8 3.4-11.4 11.3-13.2 14.4-7.6 13-7.1 7.4-10.8 3.3-1.6-1.9-2.6-3.3-3.5-6.1-1.4-3.2-4-1.7-4.8-5 .1-9.6-2.7-10.6-6.6-16.7-2.2-3.4-6.9-4.9-11.3-4.6-3.4-.1-1.8-4.1-2.5-6.4-.7-2.4-4.2-1.3-6.1-.7-2.3 1.1-4.6.4-6.9-.1-2.5 2 2.4 5-.1 6.6-1.9 2-5 .1-7.4.3-3.1 0-6.4-1.3-9.3-.4-2 1.8-15.4 8.1-17.9 9.1-.3 4.9-.4 8.1.2 12.6.8 6.4 3.7 12.5 7.9 16.3 3.5 3.2 9.9 3.4 13.4 4.6 2.3.8 6.7 1 8.4 6 1.5 4.6-4.5 12.6-7 18.9-2.3 5.7-5.6 11.4-8.6 17s-5.6 9.2-6.9 14.6c-.6 2.6 1.8 5.6 3.6 8.3 2.2 3.3 4.2 7.9 4.2 13 .2 4.5 1.2 5.2 3.3 7.4 2.4 2.4 4 4.6 6.9 5.6 2.8.9 5.8 1.1 8.7 1.3 3.4.2 6.8.2 10.1.3 8.1.3 16.2.8 24.4 1.2 4.7.2 9.5.5 14.2.7 6.1.3 12.2.6 18.1.9 1.8-5.8 9.5-11.5 11.6-18.4z"/></a><a xlink:href="javascript:void(0)"><path class="st2" d="M233 265.3c3.5.5 6.6 3.7 10.1 3.3 6.3.3 15.6-2.1 17.2-1.2 1 1.7.5 5 2.6 5.7 2.7 1.6 1.2-3.3 1.4-4.7.6-2.4 1.8-6.5 3.3-9.4 1.4-2.7 3.1-5.3 5.3-7.3 1.9-1.8 3.6-3 6.7-4.2 1-.4.4-7.6 6.5-9.3 2.9-1.3 2.7-3.2 3.3-5.3 1.1-6 3.4-11.7 5.9-17.3-.7-2.9-1.8-5.6-2-8.5-.4-6.3-.2-12.5.9-18.7.6-3.8 2.6-7.7 3.7-11.3-11.5-.9-22.9-1.7-34.4-2.2-10.8-.5-21.5-.6-32.3-1.1-2.2-.1-4.5-.2-6.7-.7-1.1-.2-2.3-.5-3.4-1-1.4-.7-2.5-1.8-3.6-2.9-2-1.8-3.7-3.2-5-5.5-1.5-2.6-1.4-5.1-1.9-9.2-.3-2.8-1-6.2-3-7.9-.4 2.2-.4 6.3-1 9.1-.7 3.2-1.4 8.6-2.8 9.7-1.4 1.3-10.8 1-16.2 1.2-6.1.3-16.3-.7-17.9-.8.3 3.3.3 6.7.4 10.3 0 2.8-1.6 5.7-1 8.5.4 2.1 1.8 3.4 3.5 4.7 2.9 2.2 7.7.6 10.3 3.1 4 3.8 5.4 10.7 4.9 16.2-1.2 11.1-12 12.8-5.7 18.6 3.8 5-.2 11.3.5 15.8.4 2.3 4.3 3.3 3.6 6 .2 1.9-.5 4.8.4 6.1 6.9.2 13.7.3 20.6.5.8 3-1.7 5.7-.8 8.3 1.7 4.5 6.4 4.3 8 8.6.6 3.4 2 2.7 3.4.1 2.4-5.4 6.5-6.7 9.2-7.6 2.2-.4 3.9 0 6 .3z"/></a><a xlink:href="javascript:void(0)"><path class="st2" d="M178.2 221c4.2-2.8 7.3-8 7.6-13.1.3-5.2-2-12.2-5.7-14.4-2.8-1.6-7.3-1-9.6-3.1-1.7-1.6-3.5-4-3.6-6.5-.1-2.9 1.4-5.5 1.3-8.4-.1-3.4-.4-5.9-.5-9.7-3.4-.3-8.2-1.1-11.5-3.2-2.3-1.4-3.5-5.1-5.9-6.1-6.3-.7-7 1-9.8 2.9-3.4 2.4-4.7 8.1-7.5 10.1-3.1 2.1-6.2 4.8-9.9 5.7-3.3.8-6.4-.3-10.1-.4-1.4 1.6-2.9 2.8-4.6 4.1 12.9 1.1 15 1.4 16.5 10.5-.1 3.3-1.1 6.8.1 9.8 3.1 5.1 7.7 9.9 12.8 12 4.1 1.6 9.1 0 13.1 1.9 1.7.8 2.5 2.7 4 3.7 1.8 1.3 4.2.9 6.3 1.6 1.2 1.4 1.9 3.4 3.6 4.1 4.3 1.6 9.7 1 13.4-1.5z"/></a><a xlink:href="javascript:void(0)"><path class="st2" d="M74.5 195.5c2 0 4.1-.5 6.2-.3 1.5.6 3 1.1 4.4 1.7 5.1-3.1 10.5-5.8 14.9-9.9 1.7-1.6 2-3.3 3.4-6.1-9.7-4.6-13.2-6.2-19.9-9.1-7.9-3.3-15.7-6.9-23.9-9.3-8.5-2.5-22.6-4.7-26-5.5-2.8-.6-7.6-4.1-7.6-4.1-.4 1.4-1 2.8-1.9 4.9 1.5 2.2 2.4 3.6 2.8 6 2 4.8 6 8.1 9.1 12.2-.3 1.1-.7 2.3-1 3.4 3-.2 6 .5 8.7 1.8.7 1.5 1.3 2.9 2 4.4h9.2c1.4-1.5 2.8-3 4.4-4.3.7-.6 1.6-1.3 2.6-1.2.7.1 1.5.6 1.5 1.4.2 4.8.1 9.1.1 14.5.7 1.2 1.6 1.7 2.8 1 2.8-.7 5.7-.9 8.6-1.2l-.1-.2-.3-.1z"/></a><a xlink:href="javascript:void(0)"><path class="st2" d="M283.9 64.7c3.8-4.8 8.8-8.6 12.8-13.2 1.8-2.9 3.4-4.1 5.9-4.9 1.4-1.4.7-3.8 1.1-5.7-.8-.8-1.4-2-2.2-2.6-1-.1-2.1.2-3-.1-1.3-1.4-2.9-2.6-4.1-4-2.2-6.6-4.5-13.2-5.7-20.1-2-9.3-2.2-5.1-4.2-2.7-1.9 2.3-4 4.4-5.8 6.7-2.2 4.4-4.4 8.7-6.5 13.1-1.7 1.1-3.4 2.2-5.1 3.4-1.5-.5-3-1.3-4.4-1.5-4.8 2.9-3.4-3.1-4.6-1.6-.8.6-3.2 2.4-4.3 2.2-2.6.2-3.8-.1-6.2-.8 0 1-.4 4.1 1.2 3.6 1.1.1 2.5-.5 3.6 0 3.6 1 7.6 3.4 10.1 7.3 4.6 7.7 4.4 8.2 5.1 13.9.6 4.3 2.9 2.9 4 4.5 1.3 1.9 1.7 3.7 3 6 .6 1 1 2.1 1.6 3.1.3.6.7 1.1 1.3 1.2 2.1.6 2.7-2 3.7-3.3.8-1.4 1.5-3.1 2.7-4.5z"/></a><a xlink:href="javascript:void(0)"><path class="st2" d="M386.2 336.9c-.1-.5-.8-1.2-.2-1.5 1.4-1.4 2.8-2.7 4.3-4.1 2.3-.7 4.8-1.1 6.5-2.8.8-1.1.2-3 .7-4.4.3-1.5 1.9-3.6 1.1-4.8-2.7-.3-4.3-.7-6.5-1.1-.7-1.4-1.8-3.8-2.6-5.2-1.1 1.1-1.9 3.9-2.6 5.2-1 2.1-1.2 4.7-2.8 6.4-2.1 2.2-5.2 3.5-8.2 4-2.1.3-4.2-1-6.3-.8-3.7.3-6.6 2.1-10.6 3.2-.3.2-4.1 1.2-3 1 2.8 1.4 3.9 1.7 4.3 3.5.4 2.2-2.5 4.5-3.2 5.9.6 1 3.9-2.2 4.7-2.5.5-.3 3.2-1.4 3.7-.8 1.6 1.3 4.3.2 6.3.1.5-1 .5-2.6 1.6-3 1-.3 1.9.8 2.8 1.2-.3.5-.7 1.1-1 1.6 3.6.2 7.1.5 10.7.3.8-.1.7-.6.5-1.2-.2 0-.2-.1-.2-.2z"/></a><a xlink:href="javascript:void(0)"><path class="st2" d="M265.2 461.3c1.4-1.2 3.2-2 3.6-3.9 1.8-4 3.5-8 5.6-11.9-2.9-.2-1.4-2.7-.7-4.6.1-3.1 2.5-4.9 5-6.2 2.3-.6.4-3.5 2.4-4.5 1.9-2.6 3.3-5.5 5-8.3 1.5 0 6-.3 4.4 1.8-2 2.6-2.8 6-5 8.4-1.8 2.3-3.3 4.9-5.9 6.5-1.7.8-5.2 5.7-1.4 4 1.8-.3 2.6-2.2 4-3.3 2.2-2.5 4.7-4.7 6.8-7.3 3.2-5.9 6.7-12.5 10.3-18.1-1.6-1.7-2.4-3.7-4-6 2.4-2.6 4.5-3.7 3.5-5.3-1.1-1.7-2.4-.5-6.4.4-6.3-8.3-10.7-11.5-18.7-14.4-4.7-1.7-12.5-2.1-16.6-2.2-5.4 2.8-8.6 5-13 9.2-9.9 6.6-16.7 18.3-24.1 26.7 1.7 1.3 2.6 0 3.9-.9 1.8-.7 3.5-.3 4.5 1.3 2.3 2.4 4.7 4.8 7 7.2.2 1-.6 4 .9 2.4 1.1-.7 2.1-1.5 3.2-2.2 4.6 5.2 10.8 8.7 15.6 13.1 4.5.3 5.4 6.1 9.6 9.4-1.2 2.5-2.6 4.9-3.6 7.5-.4 2.2.5 4.5 2.7 1.9.5-.1 1-1.7 1.4-.7z"/></a><a xlink:href="javascript:void(0)"><path class="st2" d="M310.6 398.5c-.8-2 1.4-2.5 1.7-4.1.3-2 .7-4 1-6-.8-1.9-2.3-3.5-2.1-5.6-.1-2.6-.2-4.9-.4-7.5 2.1.5 1-1.2.7-1.7-.8-1.1-1.9-.8-2.9-.8-2.1.1-3.7 1.8-5.8 2.2-2.2.4-4.3-.7-6.7-.3-4.9.9-9.5 4.7-14.7 5.1-4.7.4-9.5-.8-14-2.2-3.2-1-5.6-2-9-4.2-.5 4.4-1.1 8-1.1 10.9 9.7-.2 19.2 1.2 26.3 6.8 3 2.4 7.2 5.9 9.2 9.2 3-.3 6.3-1.3 7.7.9 1.4 2.4-1.3 5.2-3.1 7.9.8 1.2 1.5 1.9 2.4 3 3.4-3.5 7.6-8.3 11-11.8-.2-.3.4-2.1-.2-1.8z"/></a><a xlink:href="javascript:void(0)"><path class="st2" d="M281.1 377.7c4.3-.5 9.3-3.9 14-5 2.5-.6 4.7.7 7 .4 2.2-.3 4-1.8 6.2-2.2 1.9-.3 4.5 0 5.8 0 1.4-2.7-3.5-3.2-2.8-4.9.9-2.1 5.3.2 6.5-1.7.3-.5.4-1-.3-1.9-.6-.9-1.6-.8-2.4-1-.7-.2-1.7.5-2.2-.1-.9-1.1.5-2.7.7-4.1-2.5 0-4.8.8-6.6-.6-2.1-1.6 1.9-2.7-2.8-7-1.7-1.9-2.4-4.5-2.1-7-.1-2.8 0-5-2.3-6.4-2.7-1.5-6.9-.8-10.3-1.6-2.9-.7-5.9-2.1-8.6-2.6-4.9-.9-9.2-1.3-14.1-.2-2.3.5-5.6 1.3-6.9 3.6-2.5 4.4-2.5 9-4.1 14.1-1.3 4.4-3.2 10.1-4.6 13.3-.4 1.1-.9 2.2-1.3 3.3 1.6-.4 3.2-.7 4.8-1.1 1.4 2.2 1 4.4 4.2 6.5 5.7 3.6 13.6 6.6 20.6 6.3l1.6-.1z"/></a><a xlink:href="javascript:void(0)"><path class="st2" d="M328.7 354.9c2.6-1.6 4.9-3.8 7.7-5.1 2.5-1.5 4.8-2.7 7.3-3.3 1.3-.1 2.8.8 4.1.4 3.1-.8 4.8-2.1 7.9-5.6 5.8-6.1 1.3-7.3-.8-8.7-4.8 2.2-8.4 2.9-12.7 4-1.4.2-3.3-.8-3.8-1.9-1.8-3.6-3-7.1-4.8-12.2-1.3-4.4-2.5-8.7-3-13.3-.2-1.8-.7-6-2-7.2-.8-.7-2.2-.2-3.1.1-1.3.3-2.6.8-3.9 1-2.6.5-5.3 1.5-8 1.1-3-.5-8.2-4.3-11.1-5.1-4.8-1.3-10-1.1-13.2.2-1.5.6-3.8 6.5-4.8 8.4-3 5.6-4.9 10-8.2 14.5-1.2 1.7-2.6 3.3-4.2 4.5-2.2 1.7-7.8 3.4-7.4 3.7.4.3 7.1-1.4 10.7-1.2 4.9.3 9.5 2.4 14.4 3.3 3.7.7 8.2.2 11.3 1.9 1.7 1 2.2 1.9 2.9 3.7.8 2.2-.1 5.2.6 7.5.7 2.5 3 3.5 3.8 6 .3.8.4 3 1 3.7 1.5 1.7 4.3-.8 5.9.9.7.8-.4 2.3.4 3.2.9 1 2.8 1.6 4.3 1.4 3.3-.4 5.3-3.7 8.7-5.9z"/></a><a xlink:href="javascript:void(0)"><path class="st2" d="M238.8 333.8c.6 2.7.8 11.8 3 13 7.2-1 5-6.5 13.2-2.5 1.1-4.3 1.2-5.7 2.4-8.3 1-2.1 2.2-4.2 3.9-5.7 2.6-2.3 6.4-2.8 9.1-5 1.7-1.4 3.1-3.1 4.5-4.9 2.2-2.9 3.9-6.2 5.6-9.4 2.3-4.2 4.9-8.3 6.9-12.7.8-1.7 1.1-3.3 1.7-5.3-6.1-2.8-13.2-5.6-16.2-7.1-2.1-1-4.1-1.1-5.3-2.5-.8-1 1.1-2.8-.7-3.4-1.4-.5-3.8-1.8-3.3-3.4.7-2.4-2.3-1.7-3.3-3-.5-.7-.6-4.8-1.9-4.6-6.8.8-12.5 1.8-15.8 1.6-4-.3-7.3-3.5-11.3-3.8-2.2-.1-4.2.6-6.4 1.4-3 1-7 6-8.9 10.3-.6 1.9-2.1 12.6-5.4 18.5.9 1.3 1.7 2.6 2.6 3.9-.8 1.1-2.2 2-2.7 3.2 1 3.1 2.2 6.2 3 9.4-.2 3.8.1 5.6-1.2 9.3 4.3 1.3 7.5-.4 12-.1.9-.7 5-4 6.1-3.1 6.6 3.8 6.2 6.6 8.4 14.2z"/></a><a xlink:href="javascript:void(0)"><path class="st2" d="M292.2 287.9c5.7-7.1 7.8-4.5 12.8-5.7 2.2-.6 6-2.6 8.2-3 4.2-.7 7.4 2.5 11.5 1.4 1.7-.5 3.4-1.5 4.4-2.9.9-1.3 1.4-3.1 1.3-4.7-.1-1.6-1.3-2.8-1.3-4.4.1-2.4 3.1-4.2 2.8-6.5-1.1-8.3-3.5-8.2-15.3-8.9.2-2.8.3-5.6.4-8.4 15.9-.8 9.4.2 14.6 7.2 1.3-.6 2.5-1.2 3.8-1.8 2.1-2.2-.7-6.8 1.3-9.1 2.8-3.3 4.9-1.3 7.1-2.4 1.2-.6 2.8-1.1 3.3-2.4.6-1.4.2-2.8-.7-4.4-.8-1.8-.8-2.8-1.3-5.4-1.3-6.9.7-8-.9-8.4-2.7-.7-4.6-1.5-8.7-1.8-3.7-.3-5.4 6-9 6.8-3.9.8-7.7-2.9-11.6-2.6-1.6.1-3.1 1.4-4.6 1.7-1.9.4-3.7.7-5.5.1-1.8-.5-3.2-1.9-4.7-3.3-1-.9.5-5.5-2.6-3-3 2.9-5.1 10.7-5.8 13.6-.3 1.7-.5 6.3-2.3 8.6-1.3 1.6-4.1 1.4-5.5 2.9-1.7 2-2 5-2.8 7.5-2.1 1-4.6 2.5-6.5 4.2-2.1 1.9-4 4.2-5.4 6.7-1.6 2.8-2.8 6.2-3.2 9-.3 2.1-.1 4.4.2 6.4-1.1 3.9.5 2.5 3.4 5.1.1 1-1 2.4 0 2.6 4.5 1.6 7 2.6 10.4 4.1 3.2 1.6 6.6 3.4 9.9 4.8.8-1.1 1.4-2.3 2.3-3.6z"/></a><a xlink:href="javascript:void(0)"><path class="st2" d="M389.1 308.5c2-2.4 4.9-3.8 7-6.4 1.8-2.3 4.2-4.2 4.4-7.1.1-2.2-1.5-4.8-2.7-6.6 2.7-.8 4-3 1.5-4.6.2-2 1.1-3.6 3.9-3 1.5-3.7 2.4-3.3 4.4-3 1.6.5 3.6 1.4 3.9.9.3-.4-1.4-1.4-2.4-2.4-1.6-1.4-2.8-4-2.6-6.5.2-3.2 9-8.4 7.2-13.3-1.5-3.9-8-2-11.4-4.1-2.3-1.4-3.1-5.5-5.9-5.6-9.3-.3-11.4-5.9-15.6-6.8-4.2-.9-7.1-.6-9.6-2.2-1.4-.9-1.4-3.9-3.1-4.4-4.2-1.2-8.2 3.4-12.2 5.1-2.2.9-1.4 1.3-6.6 2.6-2 .5-4.1-.4-6.1-.6-1.3-.1-3.6-.2-4.6.9-2.3 2.4 1.4 9-2.4 10.4-3.5.9-4.1 1.7-4.4 3.7-.2 1.1 1.9 4.6 1.6 7.1-.2 2.2-2.5 3.4-2.7 5.6-.1 1.7 1 2.6 1.3 5.1.3 2.7-.9 5-2.5 6.4-2.4 2.1-5.8 3.3-8.9 2.6-1.8-.4-4.6-1.9-7.2-1.5-2.2.3-4.8 2.3-6.9 3-2.6.8-6 0-8.4 1.2-2.6 1.3-4.7 3.8-6.3 6.2-1.1 1.7-1.6 2.8-2.5 6.4 2.1-.6 3.1-.9 4.6-.9 3.5-.1 8.2.4 10.5 1.3 2.7 1 6.1 3.9 9 4.4 2.4.4 5.1-.7 7.5-1 2.6-.4 5.6-2.4 7.9-1.2 3.1 2.6 2.7 4.8 3.3 8.3.3 1.8.7 5.5 1.2 7.2.4 1.8.9 3.5 1.5 5.1.5 1.7 1.1 3.3 1.7 4.8 1.1 3 2.1 7.8 4 8.9 2 1.2 4.6-.7 7-1.2 2.1-.5 6.3-2.2 10.7-3.9 4.5-1.8 7.6-3.2 11.5-3.5 2.2-.2 4.4 1.6 6.6 1.1 2.9-.6 6.4-2.4 7.2-4.2 1.7-3.5 3.8-9.6 5.2-11.2l.4-3.1z"/></a><a xlink:href="javascript:void(0)"><path class="st2" d="M401.5 314.6c1-.3 1.9-.6 2.7-1.2.9-.5 1.4-1.5 2.1-2.2.8-1.1 1.4-2.4 2.5-3.3l1.2-1.2c.4-1.2-1.8-3.5.2-3.7.9.3 1.4-.4 1.9-1.1 1-1.1 1.5-2.5 2.3-3.8.4-.8.3-1.7.4-2.6.4-3.7 2.6-8.6 3-12.3-2.1-1.5-4.3-2.5-6.8-3.1-2-.4-4.2-1.3-5.9-.2-.8.5-.7 1.7-1 2.6-.9 0-2.5-.5-3.1.4-.5.8 0 .9 1 2.6-.3 1.5-.4 2.3-2 3.2.5 1.3 2.3 3.7 2.2 5.8-.2 3.1-2.4 5.8-4.3 8.2-1.8 2.3-5.2 4.2-6.6 5.8-1.2 1.4-.6 2.8-.2 4.2.4 1.4.9 1.7 1.9 4.2 3.5.5 4.4.7 6.4 1.1 1.5-1.4 1.1-1.8 2.1-3.4z"/></a><a xlink:href="javascript:void(0)"><path class="st2" d="M366 189.7c1.7-.8 3.7-1.6 5.1-3.2 1.5-1.6 2.6-3.7 3-5.6.2-1.2.2-2.4.2-3.6 0-.9-.2-1.8.2-2.6.9-2.3 3.9-1.9 5.9-1.8 3 .2 5.6 2.7 8.6 2.3 3.1-.4 5.9-3.3 8.8-4.7 5.9-5.3 4.8-4.2 6.8-6.4 1.6-1.7 5.5-2 6.9-4.4 1.3-2.3-.7-5.1.3-8 1.2-2.5 2.7-5.8 1.7-8.5-.6-1.6-3.1-1.8-4-3.2-2-3.2-2-7.3-2.4-11.1-.7-5.6.4-11.2-.4-16.8-.6-4.3-4-7-3.5-12.7.1-1.1.2-1.8-2.2-2.2-1.5-.1-1.4 2.2-2 3.2-2.7 2.2-4.4 1.3-6.2 2.7-2.4 2-4.2 4.8-5.4 7.7-2.5 6.3.8 14.9-2.8 20.1-1.3 1.8 6.7 5.9.8 10.4-3.9 2.5-7.8-1.1-11.3.4-2.7 1.2-4.1 4.5-6.6 6.1-3.6 2.4-11.7 1.8-11 6.6.7 4.6-4.9 7.9-5.8 12.4-.5 2.4.2 4.9.4 7.4.3 2.7.1 5.6 1.1 8.1 1.2 2.7 2.8 5.4 5.5 7 3.3 1.2 5.3 1.8 8.3.4z"/></a><a xlink:href="javascript:void(0)"><path class="st2" d="M433.6 152.1c-1.4-4.5 1.4-7.7 2.3-11.5.5-2.3-1.2-4 1.8-6.7 2.3-2.1 3.3-3.3 4.8-5 1.2-1.5 2.4-3.3 3.9-4.5.3-.3 2.5-1.4 1.6-1.9-12.6-7.2-9.2-15.4-25.2-22.1-4.4-1.8-10.1-2.2-14.3-1.7-.6.6-4-1.8-4-.6-.3 5.7 3.3 9.6 4 14.6.8 5.5-.8 11.1.3 16.6.8 4.1.8 10.5 4.7 11.8 5.4 1.8-.8 9.8.8 10.6 3.7.5 5.6-2.2 8.6-1.4 2.5.7 5.5 4.7 8.4 4.3 1-.3 2.6-1.4 2.3-2.5z"/></a><a xlink:href="javascript:void(0)"><path class="st2" d="M179.4 66.7c4.7-2-.1-10.7 10.3-11.3 1.8-.1 3 .4 5.5.8.1-2.2.2-4.5.3-6.7 0-.8.2-2.1-.2-2.7-.7-1-2.7-.7-3.7-1.1-2.9-2-3.6-4.5-4.9-7.1-1.4-2.8-2.7-5.9-3.1-9-.4-3.6 1-7.1 1.2-10.7 1.1-.9 2.2-1.9 3.3-2.8-.4-1.9-.8-3.8-1.2-5.6-1.9-1.2-5.5-1.4-4.4-4.4.1-1.7.2-3.5.4-5.2h-5.1c1.6 1.9 0 3.3-1.4 4.5-4.3 4.7-18 9.9-21.1 8.8-.3-2.3-2.4 2.4-3.3.6 1.3 2.6.2 5.9-2.7 6.3-2.3-1.9-4.3-5.1-7.6-3.2-3.1.2-5.9-1.4-8.6-2.8-1.6-.5-5 .1-1.9 1.5 2.2.9 4.2 2 3.5 4.6v5.4c3.2 1.1 2.6 6.8 5.2 6.9 6.5.2 6.5.8 8.9 3.5 5.6 6.6 3.5 14.7 5 24.8.7 4.6 4.3 10.5 8.6 10.8 2.7.2 4.8-4 6.6-5.4 6.4-3.2 3.6 1.4 10.4-.5z"/></a><a xlink:href="javascript:void(0)"><path class="st2" d="M345.2 215.6c2.1-9.1-4.3-6.9.3-12.2 2-2.3-3-4.5-3.1-7-.2-4.8 4.4-10.5 4.9-13.5 0 0-3.8-1.8-4.8-3.5-.8-1.2-.3-3.8-1.2-5.5-.6-1.2-1.9-1.9-2.5-3.2-.7-1.4-1.1-2.9-1.2-4.4-.1-2 .6-3.9.9-5.8.3-1.6 1.8-3.2 1.2-4.7-.6-1.5-3.1-1.2-4.2-2.4-2.1-2.2-3.4-5.1-4-8-.7-3.1.1-6.2.3-9.5.2-2.5.2-5.7-1-8.1-1-2-2.8-3.6-4.7-4.7-1.6-1-2.8-1.3-5.5-1.7 1.2 2.2 3.3 3 3.4 7.1 0 1.6-.9 3.6-2.2 5.2-1.8 2.4-5.2 5.1-6.2 6.4-1.2 1.7-3.3 4.6-4 7.3-.5 2.2.5 4.5.2 6.8-.4 2.7-1.4 5.4-2.6 7.9-2.1 4.1-6.5 7-8 11.3-1.7 1.8-6.9 16.7-6.4 25.7 0 5.1.1 10.4 1.7 15.3 1.8-1.9 4.4-2.3 4.2 1.1-.2 3.3 2.9 4.6 5.3 5.3 2.9.9 5.9-2.2 8.9-2.1 3.2.1 4.4 1.5 9.2 2.8 4.4.8 6.4-6 10.3-7.1 3.5-.7 8.1 3.7 10.8 1.2z"/></a><a xlink:href="javascript:void(0)"><path class="st2" d="M348.6 166.8c1.1-4.2 3.9-6.8 5.5-10.6.6-2.3-.2-5 1.4-5.9 4-3 6.8-2.2 9.9-4 3-1.8 5-5.3 8.2-6.6 3.5-1.3 7.9 3 11.2-.6 2.7-2.6-3.1-7-2.1-8.6 3.1-4.7 1.2-16.6 2.3-19.6 1.2-3.2 3.7-6.6 6.3-9.3 1.8-1.9 7 0 6.4-4.8-3.1-.9-6.4-1.7-9.4-3.2-2.3-.9-4.5-2.7-7.1-2.3-1.9-.6-1.6 2.7-3.7 1.7-1.7.1-3.7-.6-4.4 1.5-2.1 4.4-6.4 5.2-5.8 1.5.8-2-3.2-1.3-1.2-3.3 1.1-1.5 1.4-2.8-.6-3.4 0-1.8 1.7-3.9.3-5.6-.9-1.5-3.8-5.1-5.4-3.1-1.1 1.9-2.2-.9-3.6-1.5-3.5-1.4-3.3-1.4-7.5-2.4-.5 3.4-1.1 5.5-2 8.2-1.1 3.4-2.5 6.7-4 9.9-1.8 4-3.6 8-6.1 11.6-1.9 2.8-4.1 5.5-6.6 7.7-2.7 2.4-6.5 4.4-9 6.2 2.1.5 4.8 1 6.8 2.3 1.9 1.3 3.4 3.2 4.3 5.2 1 2.3.9 4.9 1 7.4.1 3.3-1 6.3-.4 9.4.5 2.5 1.5 5.1 3.1 7.1 1.3 1.6 4.3 1.6 5.1 3.5.5 1.2-.3 2.4-.7 3.9-.8 2.9-1.8 6.1-1.2 9 .5 2.3 3.1 3.7 3.9 6 .4 1.2-.4 2.8.3 3.9.8 1.5 3.1 3.6 4.5 3.5 3.3-1.3-.9-10.1.3-14.7z"/></a><a xlink:href="javascript:void(0)"><path class="st2" d="M463.2 140.5c.9-.2 1.6.3 2.8.7 1.5.8 7.8.8 11.6 1.2-.9-3-.9-6.2-2.2-9-.5-1.1-1.3-2-2.1-2.8-1.6-1.4-3.6-1.9-5.7-2-1.9-.2-3.8-.5-5.7-.4-.8 0-1.6.1-2.4-.1-2.5-1.7-4.5-4.7-7.5-5.1-1.4-.2-2.6.4-3.6 1.4-2 2.1-3 3.8-4.5 5.6-2.2 2.7-6.3 4.7-6.5 7.9 1 3.1 2.5 3.3 4.2 2.8 1.6-.5 4.2-1.6 6.2-2.7 1.6-.9 2.8-3 4.6-3.3 1.6-.2 2.7.9 2.5 2.5-.1 2.4-4.1 4.7-2.8 6.8.7 1.2 2.3.7 4.1.3.7.8 1.7 2.2 3 2.3 1 .1 2.1-.6 2.5-1.4.5-1.1-.9-2.2-.5-3.5.4-.4 1.2-1 2-1.2z"/></a><a xlink:href="javascript:void(0)"><path class="st2" d="M458.6 160.5c.7-.7 1.1-1.8 2-2.2 2-.9 4.5.5 6.6 0 1.6-.4 3.8-.6 4.4-2.1.5-1.3 2.8-1.2 4.3-1.2 1.3-.1 2.3 0 2.9-.8 1-1.3.2-3.2.1-4.8 0-1.2-.6-4.3-1.2-5.2-6-.4-6-.5-11.1-.9-1.1-.6-2.5-1.4-3.5-.8-.9.6.2 2.3.1 3.1-.1 1.4-1.9 2.9-3.2 3-1.6.1-3.1-1.9-4-2.7-1.5.1-3.2.6-4.5-.1-.7-.4-1.2-1.2-1.2-2-.2-2.6 5.1-5.5 3.1-7.2-1.4-1.3-3.4 1.7-4.2 2.5-.9.8-1.9 1.3-3 1.9-1.3.7-2.7 1.4-4.2 1.7-1.5.3-3.3-.9-4.7-.1-1.1.6-1.5 2-1.8 3.2-.7 2.8-1.3 6.3.4 8.7 1.3 1.8 2.8 2.9 6.3 2.3 2.5-.4 3.9-1.6 6.6-3.9 1.5-1.4 3.1-2.1 4.6-1.4.9.4 1.2 1.4 1.3 2.6.1 1.4-2.3 3.4-2 5.2.2 1.4 1.3 2.9 2.8 3.4 1.2 0 2.7-1.3 3.1-2.2z"/></a><a xlink:href="javascript:void(0)"><path class="st2" d="M330.4 252.5c-1-1.3-2-2.6-2.9-4-.4-.6-.7-1.3-1.2-1.8-.8-.8-2.1-.9-3.2-.8-3.1.2-4.6.4-4.6.4v5.3l10.6 1.1 1 1.9 1.2-1.4c-.1-.3-.5.1-.9-.7z"/></a><circle class="st3" cx="370.6" cy="293.2" r="17.5"/><circle class="st4" cx="370.6" cy="293.2" r="10.9"/><text class="st2 st5 st6" transform="translate(367.67 296.96)">7</text><circle class="st7" cx="314" cy="318.7" r="25.9"/><circle class="st8" cx="314" cy="318.7" r="16.2"/><text class="st2 st5" transform="translate(305.2 324.21)" font-size="14.796">49</text><circle class="st7" cx="271.8" cy="351.8" r="21.2"/><circle class="st8" cx="271.8" cy="351.8" r="13.3"/><text class="st2 st5" transform="translate(264.6 356.3)" font-size="12.136">15</text><circle class="st3" cx="326.4" cy="240.6" r="15"/><circle class="st4" cx="326.4" cy="240.6" r="9.4"/><text class="st2 st5" transform="translate(323.82 243.78)" font-size="8.555">3</text><circle class="st7" cx="378.8" cy="212.3" r="17.5"/><circle class="st8" cx="378.8" cy="212.3" r="10.9"/><text class="st2 st5 st6" transform="translate(375.9 216.03)">2</text><circle class="st7" cx="266.3" cy="406.4" r="14.4"/><circle class="st8" cx="266.3" cy="406.4" r="9"/><text class="st2 st5" transform="translate(263.86 409.47)" font-size="8.219">3</text><circle class="st7" cx="390.6" cy="326.7" r="17.5"/><circle class="st8" cx="390.6" cy="326.7" r="10.9"/><text class="st2 st5 st6" transform="translate(384.67 330.47)">10</text><circle class="st7" cx="244.7" cy="207.6" r="10.3"/><circle class="st8" cx="244.7" cy="207.6" r="6.4"/><circle class="st7" cx="386.1" cy="159.8" r="10.3"/><circle class="st8" cx="386.1" cy="159.8" r="6.4"/><circle class="st7" cx="295.8" cy="112.9" r="10.3"/><circle class="st8" cx="295.8" cy="112.9" r="6.4"/><circle class="st7" cx="288.1" cy="265.9" r="10.3"/><circle class="st8" cx="288.1" cy="265.9" r="6.4"/><circle class="st7" cx="386.6" cy="259.5" r="10.3"/><circle class="st8" cx="386.6" cy="259.5" r="6.4"/><circle class="st7" cx="341.4" cy="286.8" r="10.3"/><circle class="st8" cx="341.4" cy="286.8" r="6.4"/><circle class="st7" cx="303.6" cy="391.1" r="10.3"/><circle class="st8" cx="303.6" cy="391.1" r="6.4"/><circle class="st3" cx="165.8" cy="119.3" r="10.3"/><circle class="st4" cx="165.8" cy="119.3" r="6.4"/><circle class="st3" cx="472.2" cy="134.6" r="10.3"/><circle class="st4" cx="472.2" cy="134.6" r="6.4"/><circle class="st3" cx="417.4" cy="201.2" r="10.3"/><circle class="st4" cx="417.4" cy="201.2" r="6.4"/><circle class="st3" cx="344.2" cy="344.2" r="10.3"/><circle class="st4" cx="344.2" cy="344.2" r="6.4"/><circle class="st3" cx="304.9" cy="359.8" r="10.3"/><circle class="st4" cx="304.9" cy="359.8" r="6.4"/><circle class="st3" cx="322.4" cy="170" r="10.3"/><circle class="st4" cx="322.4" cy="170" r="6.4"/><text transform="translate(332.61 384.69)"><tspan class="st2 st13 st14 text" x="0" y="0">Mais de 100 Centrais</tspan> <tspan class="st2 st13 st14 text" x="0" y="14.4">de Serviços em todo o Brasil</tspan></text></svg>