<?xml version="1.0" encoding="utf-8"?>
<!-- Generator: Adobe Illustrator 22.1.0, SVG Export Plug-In . SVG Version: 6.00 Build 0)  -->
<svg version="1.1" id="Camada_1" xmlns="http://www.w3.org/2000/svg" xmlns:xlink="http://www.w3.org/1999/xlink" x="0px" y="0px"
	 viewBox="0 0 164.9 32.9" style="enable-background:new 0 0 164.9 32.9;" xml:space="preserve">
<style type="text/css">
	.st0{fill:#FFFFFF;}
</style>
<g>
	<path class="st0" d="M58.4,4.6v2.3h-5.2v3.5h5.2v2.3h-5.2v3.5h5.2v2.3h-7.5V4.6H58.4z"/>
	<path class="st0" d="M73.2,11.8C73.7,11,74,10.2,74,9.2c0-1.3-0.5-2.4-1.4-3.3c-0.9-0.9-2-1.4-3.3-1.4h-5.5v13.9h2.3v-2.2v-2.4
		v-2.3V8.4V6.9h3.2c0.6,0,1.2,0.2,1.6,0.7c0.5,0.5,0.7,1,0.7,1.6c0,0.6-0.2,1.2-0.7,1.6c-0.5,0.5-1,0.7-1.6,0.7l-2,0l4,7H74l-2.9-5
		C72,13.2,72.7,12.6,73.2,11.8z"/>
	<path class="st0" d="M88.7,11.8c0.5-0.8,0.8-1.7,0.8-2.6c0-1.3-0.5-2.4-1.4-3.3c-0.9-0.9-2-1.4-3.3-1.4h-5.5v13.9h2.3v-2.2v-2.4
		v-2.3V8.4V6.9h3.2c0.6,0,1.2,0.2,1.6,0.7c0.5,0.5,0.7,1,0.7,1.6c0,0.6-0.2,1.2-0.7,1.6c-0.5,0.5-1,0.7-1.6,0.7l-2,0l4,7h2.7l-2.9-5
		C87.5,13.2,88.2,12.6,88.7,11.8z"/>
	<polygon class="st0" points="106.3,18.5 108.9,18.5 102,4.6 95,18.5 97.6,18.5 102,9.8 	"/>
	<path class="st0" d="M128.6,4.6h2.3v13.9h-2.3V4.6z"/>
	<path class="st0" d="M136.3,4.6h11.6v2.3h-4.6v11.6H141V6.9h-4.6V4.6z"/>
	<path class="st0" d="M157.4,12.7c-1.1,0-2.1-0.4-2.9-1.2c-0.8-0.8-1.2-1.7-1.2-2.9c0-1.1,0.4-2.1,1.2-2.8c0.8-0.8,1.7-1.2,2.9-1.2
		h3.7v2.3h-3.7c-0.2,0-0.5,0-0.7,0.1c-0.2,0.1-0.4,0.2-0.6,0.4c-0.2,0.2-0.3,0.3-0.4,0.6c-0.1,0.2-0.1,0.4-0.1,0.7
		c0,0.5,0.2,0.9,0.5,1.2c0.3,0.3,0.7,0.5,1.2,0.5h1.1c1.1,0,2.1,0.4,2.9,1.2c0.8,0.8,1.2,1.7,1.2,2.9c0,1.1-0.4,2.1-1.2,2.9
		c-0.8,0.8-1.7,1.2-2.9,1.2c0,0-0.8,0-1.1,0c-0.6,0-1.3-0.1-2.2-0.7c-0.9-0.6-1.4-1.7-1.4-1.7h4.8c0.2,0,0.5,0,0.7-0.1
		c0.2-0.1,0.4-0.2,0.6-0.4c0.2-0.2,0.3-0.3,0.4-0.5c0.1-0.2,0.1-0.4,0.1-0.7c0-0.5-0.2-0.9-0.5-1.2c-0.3-0.3-0.7-0.5-1.2-0.5H157.4z
		"/>
	<path class="st0" d="M40.3,12.7c-1.1,0-2.1-0.4-2.9-1.2c-0.8-0.8-1.2-1.7-1.2-2.9c0-1.1,0.4-2.1,1.2-2.8c0.8-0.8,1.7-1.2,2.9-1.2
		H44v2.3h-3.7c-0.2,0-0.5,0-0.7,0.1c-0.2,0.1-0.4,0.2-0.6,0.4c-0.2,0.2-0.3,0.3-0.4,0.6c-0.1,0.2-0.1,0.4-0.1,0.7
		c0,0.5,0.2,0.9,0.5,1.2c0.3,0.3,0.7,0.5,1.2,0.5h1.1c1.1,0,2.1,0.4,2.9,1.2c0.8,0.8,1.2,1.7,1.2,2.9c0,1.1-0.4,2.1-1.2,2.9
		c-0.8,0.8-1.7,1.2-2.9,1.2c0,0-0.8,0-1.1,0c-0.6,0-1.3-0.1-2.2-0.7c-0.9-0.6-1.4-1.7-1.4-1.7h4.8c0.2,0,0.5,0,0.7-0.1
		c0.2-0.1,0.4-0.2,0.6-0.4c0.2-0.2,0.3-0.3,0.4-0.6c0.1-0.2,0.1-0.4,0.1-0.7c0-0.5-0.2-0.9-0.5-1.2c-0.3-0.3-0.7-0.5-1.2-0.5H40.3z"
		/>
	<path class="st0" d="M123.2,8.6c0-0.5-0.1-1.1-0.3-1.6c-0.2-0.5-0.5-0.9-0.9-1.3c-0.4-0.4-0.8-0.7-1.3-0.9c-0.5-0.2-1-0.3-1.6-0.3
		h-4.9v13.9h4.9c0.5,0,1.1-0.1,1.6-0.3c0.5-0.2,0.9-0.5,1.3-0.9c0.4-0.4,0.7-0.8,0.9-1.3c0.2-0.5,0.3-1,0.3-1.6
		c0-1.1-0.4-2.1-1.2-2.9C122.8,10.7,123.2,9.8,123.2,8.6z M120.4,13.2c0.2,0.2,0.3,0.3,0.4,0.6c0.1,0.2,0.1,0.4,0.1,0.7
		c0,0.2,0,0.4-0.1,0.7c-0.1,0.2-0.2,0.4-0.4,0.6c-0.2,0.2-0.3,0.3-0.6,0.4c-0.2,0.1-0.4,0.1-0.7,0.1h-2.6v-1.6v-1.8v-2.3v-2V6.9h2.6
		c0.2,0,0.4,0,0.7,0.1c0.2,0.1,0.4,0.2,0.6,0.4c0.2,0.2,0.3,0.3,0.4,0.6c0.1,0.2,0.1,0.4,0.1,0.7c0,0.2,0,0.5-0.1,0.7
		c-0.1,0.2-0.2,0.4-0.4,0.6c-0.2,0.2-1.6,1.7-1.6,1.7l0,0C118.8,11.5,120.3,13.1,120.4,13.2z"/>
	<g>
		<path class="st0" d="M46.6,28.1l0-2.8c0,0,0,0,0,0c0,0,0,0,0,0h0.2c0,0,0,0,0,0c0,0,0,0,0,0l0,2.8c0,0,0,0,0,0c0,0,0,0,0,0
			L46.6,28.1C46.6,28.2,46.6,28.2,46.6,28.1C46.6,28.2,46.6,28.1,46.6,28.1z"/>
		<path class="st0" d="M50.5,28.1C50.5,28.1,50.5,28.2,50.5,28.1C50.5,28.2,50.5,28.2,50.5,28.1l-0.4,0.1c0,0,0,0,0,0c0,0,0,0,0,0
			l-1.5-2.4c0,0,0,0,0,0c0,0,0,0,0,0l0,2.3c0,0,0,0,0,0c0,0,0,0,0,0h-0.2c0,0,0,0,0,0c0,0,0,0,0,0l0-2.8c0,0,0,0,0,0c0,0,0,0,0,0
			h0.2c0,0,0,0,0.1,0l1.6,2.3c0,0,0,0,0,0c0,0,0,0,0,0l0-2.3c0,0,0,0,0,0c0,0,0,0,0,0h0.2c0,0,0,0,0,0c0,0,0,0,0,0L50.5,28.1z"/>
		<path class="st0" d="M53.9,25.5C53.9,25.5,53.9,25.5,53.9,25.5C53.9,25.5,53.9,25.5,53.9,25.5L53,25.5c0,0,0,0,0,0c0,0,0,0,0,0
			l0,2.5c0,0,0,0,0,0c0,0,0,0,0,0h-0.2c0,0,0,0,0,0c0,0,0,0,0,0l0-2.5c0,0,0,0,0,0c0,0,0,0,0,0h-0.8c0,0,0,0,0,0c0,0,0,0,0,0l0-0.2
			c0,0,0,0,0,0c0,0,0,0,0,0h2.1c0,0,0,0,0,0c0,0,0,0,0,0L53.9,25.5z"/>
		<path class="st0" d="M57,28.1C57,28.1,57,28.2,57,28.1C57,28.2,57,28.2,57,28.1l-1.9,0.1c0,0,0,0,0,0c0,0,0,0,0,0l0-2.8
			c0,0,0,0,0,0c0,0,0,0,0,0h1.8c0,0,0,0,0,0c0,0,0,0,0,0l0,0.2c0,0,0,0,0,0c0,0,0,0,0,0h-1.5c0,0,0,0,0,0c0,0,0,0,0,0l0,0.8
			c0,0,0,0,0,0c0,0,0,0,0,0h1.3c0,0,0,0,0,0c0,0,0,0,0,0l0,0.2c0,0,0,0,0,0c0,0,0,0,0,0h-1.3c0,0,0,0,0,0c0,0,0,0,0,0l0,1
			c0,0,0,0,0,0c0,0,0,0,0,0h1.5c0,0,0,0,0.1,0c0,0,0,0,0,0L57,28.1z"/>
		<path class="st0" d="M60.1,28.1C60.1,28.1,60.1,28.2,60.1,28.1C60.1,28.2,60.1,28.2,60.1,28.1l-1.9,0.1c0,0,0,0,0,0c0,0,0,0,0,0
			l0-2.8c0,0,0,0,0,0c0,0,0,0,0,0h0.2c0,0,0,0,0,0c0,0,0,0,0,0l0,2.5c0,0,0,0,0,0c0,0,0,0,0,0h1.5c0,0,0,0,0,0c0,0,0,0,0,0
			L60.1,28.1z"/>
		<path class="st0" d="M61.4,28.1l0-2.8c0,0,0,0,0,0c0,0,0,0,0,0h0.2c0,0,0,0,0,0c0,0,0,0,0,0l0,2.8c0,0,0,0,0,0c0,0,0,0,0,0
			L61.4,28.1C61.4,28.2,61.4,28.2,61.4,28.1C61.4,28.2,61.4,28.1,61.4,28.1z"/>
		<path class="st0" d="M65.8,26.9c0,0.2-0.1,0.4-0.1,0.5c-0.1,0.2-0.2,0.3-0.3,0.4c-0.1,0.1-0.3,0.2-0.4,0.3
			c-0.2,0.1-0.3,0.1-0.5,0.1c-0.2,0-0.4,0-0.6-0.1c-0.2-0.1-0.3-0.2-0.4-0.3c-0.1-0.1-0.2-0.3-0.3-0.5c-0.1-0.2-0.1-0.4-0.1-0.6
			c0-0.2,0-0.4,0.1-0.6c0.1-0.2,0.2-0.3,0.3-0.5c0.1-0.1,0.3-0.2,0.4-0.3c0.2-0.1,0.4-0.1,0.6-0.1c0.1,0,0.3,0,0.4,0.1
			c0.1,0,0.3,0.1,0.4,0.2c0.1,0.1,0.2,0.2,0.3,0.3c0.1,0.1,0.2,0.2,0.2,0.3c0,0,0,0,0,0c0,0,0,0,0,0c0,0,0,0,0,0c0,0,0,0,0,0h-0.2
			c0,0,0,0-0.1,0c0-0.1-0.1-0.2-0.2-0.2c-0.1-0.1-0.1-0.1-0.2-0.2c-0.1,0-0.2-0.1-0.3-0.1c-0.1,0-0.2,0-0.3,0c-0.2,0-0.3,0-0.4,0.1
			c-0.1,0.1-0.2,0.1-0.3,0.2c-0.1,0.1-0.2,0.2-0.2,0.4c-0.1,0.1-0.1,0.3-0.1,0.5c0,0.2,0,0.3,0.1,0.5c0.1,0.2,0.1,0.3,0.2,0.4
			c0.1,0.1,0.2,0.2,0.3,0.3c0.1,0.1,0.3,0.1,0.4,0.1c0.1,0,0.2,0,0.3-0.1c0.1,0,0.2-0.1,0.3-0.2c0.1-0.1,0.2-0.1,0.2-0.2
			c0.1-0.1,0.1-0.2,0.2-0.3c0,0,0,0,0-0.1c0,0,0,0-0.1,0h-0.7c0,0,0,0,0,0c0,0,0,0,0,0v-0.2c0,0,0,0,0,0c0,0,0,0,0,0L65.8,26.9
			C65.8,26.8,65.8,26.8,65.8,26.9C65.8,26.9,65.8,26.9,65.8,26.9z"/>
		<path class="st0" d="M69,28.1C69,28.1,69,28.2,69,28.1C68.9,28.2,68.9,28.2,69,28.1l-1.9,0.1c0,0,0,0,0,0c0,0,0,0,0,0l0-2.8
			c0,0,0,0,0,0c0,0,0,0,0,0h1.8c0,0,0,0,0,0c0,0,0,0,0,0l0,0.2c0,0,0,0,0,0c0,0,0,0,0,0h-1.5c0,0,0,0,0,0c0,0,0,0,0,0l0,0.8
			c0,0,0,0,0,0c0,0,0,0,0,0h1.3c0,0,0,0,0,0c0,0,0,0,0,0l0,0.2c0,0,0,0,0,0c0,0,0,0,0,0h-1.3c0,0,0,0,0,0c0,0,0,0,0,0l0,1
			c0,0,0,0,0,0c0,0,0,0,0,0h1.5c0,0,0,0,0.1,0c0,0,0,0,0,0L69,28.1z M68.5,24.9C68.5,24.9,68.6,25,68.5,24.9c0,0.1,0,0.1,0,0.1h-0.2
			c0,0,0,0-0.1,0L68,24.6c0,0,0,0,0,0c0,0,0,0,0,0L67.7,25c0,0,0,0-0.1,0h-0.1c0,0,0,0-0.1,0c0,0,0,0,0-0.1l0.4-0.4c0,0,0,0,0.1,0
			h0.1c0,0,0,0,0.1,0L68.5,24.9z"/>
		<path class="st0" d="M72.5,28.1C72.5,28.1,72.5,28.2,72.5,28.1C72.5,28.2,72.5,28.2,72.5,28.1l-0.4,0.1c0,0,0,0,0,0c0,0,0,0,0,0
			l-1.5-2.4c0,0,0,0,0,0c0,0,0,0,0,0l0,2.3c0,0,0,0,0,0c0,0,0,0,0,0h-0.2c0,0,0,0,0,0c0,0,0,0,0,0l0-2.8c0,0,0,0,0,0c0,0,0,0,0,0
			h0.2c0,0,0,0,0.1,0l1.6,2.3c0,0,0,0,0,0c0,0,0,0,0,0l0-2.3c0,0,0,0,0,0c0,0,0,0,0,0h0.2c0,0,0,0,0,0c0,0,0,0,0,0L72.5,28.1z"/>
		<path class="st0" d="M76.4,27.3c0,0.1-0.1,0.3-0.2,0.4c-0.1,0.1-0.2,0.2-0.3,0.3c-0.1,0.1-0.2,0.2-0.4,0.2c-0.1,0-0.3,0.1-0.5,0.1
			c-0.1,0-0.3,0-0.4-0.1c-0.1,0-0.2-0.1-0.3-0.2c-0.1-0.1-0.2-0.1-0.3-0.2c-0.1-0.1-0.1-0.2-0.2-0.3c-0.1-0.1-0.1-0.2-0.1-0.4
			c0-0.1,0-0.3,0-0.4c0-0.2,0-0.4,0.1-0.6c0.1-0.2,0.2-0.3,0.3-0.5c0.1-0.1,0.3-0.2,0.4-0.3c0.2-0.1,0.4-0.1,0.6-0.1
			c0.2,0,0.3,0,0.4,0.1c0.1,0,0.3,0.1,0.4,0.2c0.1,0.1,0.2,0.2,0.3,0.3c0.1,0.1,0.1,0.2,0.2,0.3c0,0,0,0.1,0,0.1c0,0,0,0-0.1,0h-0.2
			c0,0,0,0,0,0c0,0,0,0,0,0c0-0.1-0.1-0.2-0.2-0.2c-0.1-0.1-0.1-0.1-0.2-0.2c-0.1,0-0.2-0.1-0.3-0.1c-0.1,0-0.2,0-0.3,0
			c-0.2,0-0.3,0-0.4,0.1c-0.1,0.1-0.2,0.1-0.3,0.2c-0.1,0.1-0.2,0.2-0.2,0.4C74,26.4,74,26.5,74,26.7c0,0.2,0,0.3,0.1,0.5
			c0.1,0.2,0.1,0.3,0.2,0.4c0.1,0.1,0.2,0.2,0.3,0.3c0.1,0.1,0.3,0.1,0.4,0.1c0.1,0,0.2,0,0.3-0.1c0.1,0,0.2-0.1,0.3-0.2
			c0.1-0.1,0.2-0.1,0.2-0.2c0.1-0.1,0.1-0.2,0.2-0.3c0,0,0,0,0,0c0,0,0,0,0,0h0.2c0,0,0,0,0,0C76.4,27.2,76.4,27.2,76.4,27.3
			C76.4,27.2,76.4,27.2,76.4,27.3C76.4,27.2,76.4,27.2,76.4,27.3z"/>
		<path class="st0" d="M77.7,28.1l0-2.8c0,0,0,0,0,0c0,0,0,0,0,0h0.2c0,0,0,0,0,0c0,0,0,0,0,0l0,2.8c0,0,0,0,0,0c0,0,0,0,0,0
			L77.7,28.1C77.8,28.2,77.7,28.2,77.7,28.1C77.7,28.2,77.7,28.1,77.7,28.1z"/>
		<path class="st0" d="M81.9,28.1C81.9,28.1,81.9,28.2,81.9,28.1C81.9,28.2,81.9,28.2,81.9,28.1l-0.3,0.1c0,0-0.1,0-0.1-0.1
			l-0.3-0.8c0,0,0-0.1-0.1-0.1h-1.1c0,0-0.1,0-0.1,0l-0.3,0.8c0,0,0,0-0.1,0h-0.2c0,0,0,0-0.1,0c0,0,0,0,0-0.1l1.1-2.8c0,0,0,0,0,0
			c0,0,0,0,0,0h0.2c0,0,0,0,0.1,0L81.9,28.1z M81.1,26.9l-0.4-1.2c0,0,0,0,0,0c0,0,0,0,0,0c0,0,0,0,0,0c0,0,0,0,0,0l-0.4,1.2
			c0,0,0,0,0,0.1c0,0,0,0,0.1,0L81.1,26.9C81.1,27,81.1,27,81.1,26.9C81.1,26.9,81.1,26.9,81.1,26.9z"/>
		<path class="st0" d="M86.3,25.3c0.1,0,0.2,0,0.3,0.1c0.1,0,0.2,0.1,0.3,0.2c0.1,0.1,0.1,0.2,0.2,0.3c0,0.1,0.1,0.2,0.1,0.3
			c0,0.1,0,0.2-0.1,0.3c0,0.1-0.1,0.2-0.2,0.3c-0.1,0.1-0.2,0.1-0.3,0.2c-0.1,0-0.2,0.1-0.3,0.1h-0.9c0,0,0,0,0,0c0,0,0,0,0,0l0,1.1
			c0,0,0,0,0,0c0,0,0,0,0,0h-0.2c0,0,0,0,0,0c0,0,0,0,0,0l0-2.8c0,0,0,0,0,0c0,0,0,0,0,0H86.3z M86.3,26.7c0.1,0,0.2,0,0.2,0
			c0.1,0,0.1-0.1,0.2-0.1c0,0,0.1-0.1,0.1-0.2c0-0.1,0-0.1,0-0.2c0-0.1,0-0.1,0-0.2c0-0.1-0.1-0.1-0.1-0.2c0-0.1-0.1-0.1-0.2-0.1
			c-0.1,0-0.1,0-0.2,0h-0.9c0,0,0,0,0,0c0,0,0,0,0,0l0,1c0,0,0,0,0,0c0,0,0,0,0,0H86.3z"/>
		<path class="st0" d="M90.4,28.1C90.4,28.1,90.4,28.2,90.4,28.1C90.4,28.2,90.4,28.2,90.4,28.1l-0.3,0.1c0,0-0.1,0-0.1-0.1
			l-0.3-0.8c0,0,0-0.1-0.1-0.1h-1.1c0,0-0.1,0-0.1,0l-0.3,0.8c0,0,0,0-0.1,0h-0.2c0,0,0,0-0.1,0c0,0,0,0,0-0.1l1.1-2.8c0,0,0,0,0,0
			c0,0,0,0,0,0h0.2c0,0,0,0,0.1,0L90.4,28.1z M89.6,26.9l-0.4-1.2c0,0,0,0,0,0c0,0,0,0,0,0c0,0,0,0,0,0c0,0,0,0,0,0l-0.4,1.2
			c0,0,0,0,0,0.1c0,0,0,0,0.1,0L89.6,26.9C89.6,27,89.6,27,89.6,26.9C89.6,26.9,89.6,26.9,89.6,26.9z"/>
		<path class="st0" d="M93.9,28.1C93.9,28.1,93.9,28.1,93.9,28.1C93.9,28.1,93.9,28.1,93.9,28.1C93.9,28.2,93.9,28.2,93.9,28.1
			c0,0.1,0,0.1-0.1,0.1h-0.2c0,0,0,0-0.1,0L92.6,27c0,0,0,0,0,0h-0.6c0,0,0,0,0,0c0,0,0,0,0,0l0,1.1c0,0,0,0,0,0c0,0,0,0,0,0h-0.2
			c0,0,0,0,0,0c0,0,0,0,0,0l0-2.8c0,0,0,0,0,0c0,0,0,0,0,0h1.2c0.1,0,0.2,0,0.3,0.1c0.1,0,0.2,0.1,0.3,0.2c0.1,0.1,0.1,0.2,0.2,0.3
			c0,0.1,0.1,0.2,0.1,0.3c0,0.1,0,0.2-0.1,0.3c0,0.1-0.1,0.2-0.1,0.2c-0.1,0.1-0.1,0.1-0.2,0.2c-0.1,0-0.2,0.1-0.3,0.1c0,0,0,0,0,0
			c0,0,0,0,0,0L93.9,28.1z M92.8,26.7c0.1,0,0.2,0,0.2,0c0.1,0,0.1-0.1,0.2-0.1c0.1-0.1,0.1-0.1,0.1-0.2c0-0.1,0-0.1,0-0.2
			c0-0.1,0-0.1,0-0.2c0-0.1-0.1-0.1-0.1-0.2c-0.1-0.1-0.1-0.1-0.2-0.1c-0.1,0-0.1,0-0.2,0h-0.9c0,0,0,0,0,0c0,0,0,0,0,0l0,1
			c0,0,0,0,0,0c0,0,0,0,0,0H92.8z"/>
		<path class="st0" d="M97.5,28.1C97.5,28.1,97.5,28.2,97.5,28.1C97.5,28.2,97.5,28.2,97.5,28.1l-0.3,0.1c0,0-0.1,0-0.1-0.1
			l-0.3-0.8c0,0,0-0.1-0.1-0.1h-1.1c0,0-0.1,0-0.1,0l-0.3,0.8c0,0,0,0-0.1,0H95c0,0,0,0-0.1,0c0,0,0,0,0-0.1l1.1-2.8c0,0,0,0,0,0
			c0,0,0,0,0,0h0.2c0,0,0,0,0.1,0L97.5,28.1z M96.7,26.9l-0.4-1.2c0,0,0,0,0,0c0,0,0,0,0,0c0,0,0,0,0,0c0,0,0,0,0,0l-0.4,1.2
			c0,0,0,0,0,0.1c0,0,0,0,0.1,0L96.7,26.9C96.7,27,96.7,27,96.7,26.9C96.7,26.9,96.7,26.9,96.7,26.9z"/>
		<path class="st0" d="M102,25.2c0.2,0,0.4,0,0.6,0.1c0.2,0.1,0.3,0.2,0.4,0.3c0.1,0.1,0.2,0.3,0.3,0.5c0.1,0.2,0.1,0.4,0.1,0.6
			c0,0.1,0,0.3,0,0.4c0,0.1-0.1,0.3-0.1,0.4c-0.1,0.1-0.1,0.2-0.2,0.3c-0.1,0.1-0.2,0.2-0.3,0.2c-0.1,0.1-0.2,0.1-0.3,0.2
			c-0.1,0-0.3,0.1-0.4,0.1c-0.2,0-0.4,0-0.6-0.1c-0.2-0.1-0.3-0.2-0.4-0.3c-0.1-0.1-0.2-0.3-0.3-0.5c-0.1-0.2-0.1-0.4-0.1-0.6
			c0-0.2,0-0.4,0.1-0.6c0.1-0.2,0.2-0.3,0.3-0.5c0.1-0.1,0.3-0.2,0.4-0.3C101.6,25.2,101.8,25.2,102,25.2z M102,27.9
			c0.2,0,0.3,0,0.4-0.1c0.1-0.1,0.2-0.2,0.3-0.3c0.1-0.1,0.2-0.2,0.2-0.4c0.1-0.2,0.1-0.3,0.1-0.5c0-0.2,0-0.3-0.1-0.5
			c-0.1-0.1-0.1-0.3-0.2-0.4c-0.1-0.1-0.2-0.2-0.3-0.3c-0.1-0.1-0.3-0.1-0.4-0.1c-0.2,0-0.3,0-0.4,0.1c-0.1,0.1-0.3,0.1-0.3,0.3
			c-0.1,0.1-0.2,0.2-0.2,0.4c-0.1,0.1-0.1,0.3-0.1,0.5c0,0.2,0,0.3,0.1,0.5c0.1,0.2,0.1,0.3,0.2,0.4c0.1,0.1,0.2,0.2,0.3,0.3
			C101.7,27.9,101.9,27.9,102,27.9z"/>
		<path class="st0" d="M108.8,27.4c0,0.2,0,0.3-0.1,0.4c-0.1,0.1-0.1,0.2-0.2,0.3c-0.1,0.1-0.2,0.1-0.3,0.2c-0.1,0-0.3,0-0.4,0
			c-0.1,0-0.2,0-0.2,0c-0.1,0-0.2,0-0.2-0.1c-0.1,0-0.2-0.1-0.2-0.1c-0.1,0-0.1-0.1-0.2-0.2c-0.1-0.1-0.1-0.1-0.2-0.2
			c0-0.1-0.1-0.2-0.1-0.3c0,0,0,0,0-0.1c0,0,0,0,0.1,0h0.2c0,0,0,0,0,0c0,0,0,0,0,0c0,0.1,0.1,0.2,0.1,0.2c0.1,0.1,0.1,0.1,0.2,0.2
			c0.1,0.1,0.2,0.1,0.3,0.1c0.1,0,0.2,0,0.3,0c0.1,0,0.2,0,0.3,0c0.1,0,0.2-0.1,0.3-0.1c0.1,0,0.1-0.1,0.2-0.2
			c0-0.1,0.1-0.1,0.1-0.2c0-0.1,0-0.2-0.1-0.2c0-0.1-0.1-0.1-0.2-0.2c-0.1,0-0.2-0.1-0.3-0.1c-0.1,0-0.2-0.1-0.3-0.1
			c-0.1,0-0.3-0.1-0.4-0.1c-0.1,0-0.2-0.1-0.3-0.2c-0.1-0.1-0.2-0.1-0.2-0.2c-0.1-0.1-0.1-0.2-0.1-0.3c0-0.1,0-0.2,0.1-0.3
			c0.1-0.1,0.1-0.2,0.2-0.2c0.1-0.1,0.2-0.1,0.3-0.1c0.1,0,0.2-0.1,0.4-0.1c0.1,0,0.2,0,0.4,0c0.1,0,0.2,0.1,0.3,0.1
			c0.1,0.1,0.2,0.1,0.3,0.2c0.1,0.1,0.1,0.2,0.1,0.3c0,0,0,0,0,0.1c0,0,0,0-0.1,0h-0.2c0,0,0,0,0,0c0,0,0,0,0,0
			c0-0.1-0.1-0.2-0.1-0.2c-0.1-0.1-0.1-0.1-0.2-0.1c-0.1,0-0.1-0.1-0.2-0.1c-0.1,0-0.1,0-0.2,0c-0.1,0-0.1,0-0.2,0
			c-0.1,0-0.2,0-0.2,0.1c-0.1,0-0.1,0.1-0.2,0.1c0,0.1-0.1,0.1-0.1,0.2c0,0.1,0,0.1,0,0.2c0,0.1,0.1,0.1,0.1,0.1
			c0,0,0.1,0.1,0.2,0.1c0.1,0,0.1,0.1,0.2,0.1c0.1,0,0.1,0,0.2,0.1c0.1,0,0.1,0,0.2,0c0.1,0,0.2,0.1,0.4,0.1c0.1,0,0.2,0.1,0.3,0.1
			c0.1,0.1,0.2,0.1,0.2,0.2C108.8,27.1,108.8,27.2,108.8,27.4z"/>
		<path class="st0" d="M112,28.1C112,28.1,112,28.2,112,28.1C112,28.2,111.9,28.2,112,28.1l-1.9,0.1c0,0,0,0,0,0c0,0,0,0,0,0l0-2.8
			c0,0,0,0,0,0c0,0,0,0,0,0h1.8c0,0,0,0,0,0c0,0,0,0,0,0l0,0.2c0,0,0,0,0,0c0,0,0,0,0,0h-1.5c0,0,0,0,0,0c0,0,0,0,0,0l0,0.8
			c0,0,0,0,0,0c0,0,0,0,0,0h1.3c0,0,0,0,0,0c0,0,0,0,0,0l0,0.2c0,0,0,0,0,0c0,0,0,0,0,0h-1.3c0,0,0,0,0,0c0,0,0,0,0,0l0,1
			c0,0,0,0,0,0c0,0,0,0,0,0h1.5c0,0,0,0,0.1,0c0,0,0,0,0,0L112,28.1z"/>
		<path class="st0" d="M115.3,25.5C115.3,25.5,115.3,25.5,115.3,25.5C115.3,25.5,115.3,25.5,115.3,25.5l-0.9,0.1c0,0,0,0,0,0
			c0,0,0,0,0,0l0,2.5c0,0,0,0,0,0c0,0,0,0,0,0h-0.2c0,0,0,0,0,0c0,0,0,0,0,0l0-2.5c0,0,0,0,0,0c0,0,0,0,0,0h-0.8c0,0,0,0,0,0
			c0,0,0,0,0,0l0-0.2c0,0,0,0,0,0c0,0,0,0,0,0h2.1c0,0,0,0,0,0c0,0,0,0,0,0L115.3,25.5z"/>
		<path class="st0" d="M117.9,25.2c0.2,0,0.4,0,0.6,0.1c0.2,0.1,0.3,0.2,0.4,0.3c0.1,0.1,0.2,0.3,0.3,0.5c0.1,0.2,0.1,0.4,0.1,0.6
			c0,0.1,0,0.3,0,0.4c0,0.1-0.1,0.3-0.1,0.4c-0.1,0.1-0.1,0.2-0.2,0.3c-0.1,0.1-0.2,0.2-0.3,0.2c-0.1,0.1-0.2,0.1-0.3,0.2
			c-0.1,0-0.3,0.1-0.4,0.1c-0.2,0-0.4,0-0.6-0.1c-0.2-0.1-0.3-0.2-0.4-0.3c-0.1-0.1-0.2-0.3-0.3-0.5c-0.1-0.2-0.1-0.4-0.1-0.6
			c0-0.2,0-0.4,0.1-0.6c0.1-0.2,0.2-0.3,0.3-0.5c0.1-0.1,0.3-0.2,0.4-0.3C117.5,25.2,117.7,25.2,117.9,25.2z M117.9,27.9
			c0.2,0,0.3,0,0.4-0.1c0.1-0.1,0.2-0.2,0.3-0.3c0.1-0.1,0.2-0.2,0.2-0.4c0.1-0.2,0.1-0.3,0.1-0.5c0-0.2,0-0.3-0.1-0.5
			c-0.1-0.1-0.1-0.3-0.2-0.4c-0.1-0.1-0.2-0.2-0.3-0.3c-0.1-0.1-0.3-0.1-0.4-0.1c-0.2,0-0.3,0-0.4,0.1c-0.1,0.1-0.3,0.1-0.3,0.3
			c-0.1,0.1-0.2,0.2-0.2,0.4c-0.1,0.1-0.1,0.3-0.1,0.5c0,0.2,0,0.3,0.1,0.5c0.1,0.2,0.1,0.3,0.2,0.4c0.1,0.1,0.2,0.2,0.3,0.3
			C117.6,27.9,117.7,27.9,117.9,27.9z"/>
		<path class="st0" d="M122.7,28.1C122.7,28.1,122.7,28.1,122.7,28.1C122.7,28.1,122.7,28.1,122.7,28.1
			C122.7,28.2,122.7,28.2,122.7,28.1c0,0.1,0,0.1-0.1,0.1h-0.2c0,0,0,0-0.1,0l-0.9-1.2c0,0,0,0,0,0h-0.6c0,0,0,0,0,0c0,0,0,0,0,0
			l0,1.1c0,0,0,0,0,0c0,0,0,0,0,0h-0.2c0,0,0,0,0,0c0,0,0,0,0,0l0-2.8c0,0,0,0,0,0c0,0,0,0,0,0h1.2c0.1,0,0.2,0,0.3,0.1
			c0.1,0,0.2,0.1,0.3,0.2c0.1,0.1,0.1,0.2,0.2,0.3c0,0.1,0.1,0.2,0.1,0.3c0,0.1,0,0.2-0.1,0.3c0,0.1-0.1,0.2-0.1,0.2
			c-0.1,0.1-0.1,0.1-0.2,0.2c-0.1,0-0.2,0.1-0.3,0.1c0,0,0,0,0,0c0,0,0,0,0,0L122.7,28.1z M121.7,26.7c0.1,0,0.2,0,0.2,0
			c0.1,0,0.1-0.1,0.2-0.1c0.1-0.1,0.1-0.1,0.1-0.2c0-0.1,0-0.1,0-0.2c0-0.1,0-0.1,0-0.2c0-0.1-0.1-0.1-0.1-0.2
			c-0.1-0.1-0.1-0.1-0.2-0.1c-0.1,0-0.1,0-0.2,0h-0.9c0,0,0,0,0,0c0,0,0,0,0,0l0,1c0,0,0,0,0,0c0,0,0,0,0,0H121.7z"/>
		<path class="st0" d="M128.8,28.1C128.8,28.1,128.8,28.2,128.8,28.1C128.8,28.2,128.8,28.2,128.8,28.1l-0.3,0.1c0,0,0,0,0,0
			c0,0,0,0,0,0l0-2.3c0,0,0,0,0,0c0,0,0,0,0,0c0,0,0,0,0,0c0,0,0,0,0,0l-0.9,2.4c0,0,0,0,0,0c0,0,0,0,0,0h-0.2c0,0-0.1,0-0.1,0
			l-0.9-2.4c0,0,0,0,0,0c0,0,0,0,0,0c0,0,0,0,0,0c0,0,0,0,0,0l0,2.3c0,0,0,0,0,0c0,0,0,0,0,0H126c0,0,0,0,0,0c0,0,0,0,0,0l0-2.8
			c0,0,0,0,0,0c0,0,0,0,0,0h0.3c0,0,0,0,0,0c0,0,0,0,0,0l0.9,2.3c0,0,0,0,0.1,0c0,0,0,0,0.1,0l0.9-2.3c0,0,0,0,0,0c0,0,0,0,0,0h0.3
			c0,0,0,0,0,0c0,0,0,0,0,0L128.8,28.1z"/>
		<path class="st0" d="M131.4,25.2c0.2,0,0.4,0,0.6,0.1c0.2,0.1,0.3,0.2,0.4,0.3c0.1,0.1,0.2,0.3,0.3,0.5c0.1,0.2,0.1,0.4,0.1,0.6
			c0,0.1,0,0.3,0,0.4c0,0.1-0.1,0.3-0.1,0.4c-0.1,0.1-0.1,0.2-0.2,0.3c-0.1,0.1-0.2,0.2-0.3,0.2c-0.1,0.1-0.2,0.1-0.3,0.2
			c-0.1,0-0.3,0.1-0.4,0.1c-0.2,0-0.4,0-0.6-0.1c-0.2-0.1-0.3-0.2-0.4-0.3c-0.1-0.1-0.2-0.3-0.3-0.5c-0.1-0.2-0.1-0.4-0.1-0.6
			c0-0.2,0-0.4,0.1-0.6c0.1-0.2,0.2-0.3,0.3-0.5c0.1-0.1,0.3-0.2,0.4-0.3C131,25.2,131.2,25.2,131.4,25.2z M131.4,27.9
			c0.2,0,0.3,0,0.4-0.1c0.1-0.1,0.2-0.2,0.3-0.3c0.1-0.1,0.2-0.2,0.2-0.4c0.1-0.2,0.1-0.3,0.1-0.5c0-0.2,0-0.3-0.1-0.5
			c-0.1-0.1-0.1-0.3-0.2-0.4c-0.1-0.1-0.2-0.2-0.3-0.3c-0.1-0.1-0.3-0.1-0.4-0.1c-0.2,0-0.3,0-0.4,0.1c-0.1,0.1-0.3,0.1-0.3,0.3
			c-0.1,0.1-0.2,0.2-0.2,0.4c-0.1,0.1-0.1,0.3-0.1,0.5c0,0.2,0,0.3,0.1,0.5c0.1,0.2,0.1,0.3,0.2,0.4c0.1,0.1,0.2,0.2,0.3,0.3
			C131.1,27.9,131.3,27.9,131.4,27.9z"/>
		<path class="st0" d="M135.3,28.1C135.3,28.2,135.2,28.2,135.3,28.1l-0.3,0.1c0,0-0.1,0-0.1,0l-1.1-2.8c0,0,0,0,0-0.1
			c0,0,0,0,0.1,0h0.2c0,0,0.1,0,0.1,0l0.9,2.4c0,0,0,0,0,0c0,0,0,0,0,0l0.9-2.4c0,0,0,0,0.1,0h0.2c0,0,0,0,0,0c0,0,0,0,0,0.1
			L135.3,28.1z"/>
		<path class="st0" d="M139.4,28.1C139.4,28.1,139.4,28.2,139.4,28.1C139.4,28.2,139.4,28.2,139.4,28.1l-1.9,0.1c0,0,0,0,0,0
			c0,0,0,0,0,0l0-2.8c0,0,0,0,0,0c0,0,0,0,0,0h1.8c0,0,0,0,0,0c0,0,0,0,0,0l0,0.2c0,0,0,0,0,0c0,0,0,0,0,0h-1.5c0,0,0,0,0,0
			c0,0,0,0,0,0l0,0.8c0,0,0,0,0,0c0,0,0,0,0,0h1.3c0,0,0,0,0,0c0,0,0,0,0,0l0,0.2c0,0,0,0,0,0c0,0,0,0,0,0h-1.3c0,0,0,0,0,0
			c0,0,0,0,0,0l0,1c0,0,0,0,0,0c0,0,0,0,0,0h1.5c0,0,0,0,0.1,0c0,0,0,0,0,0L139.4,28.1z"/>
		<path class="st0" d="M142.6,28.1C142.6,28.1,142.5,28.2,142.6,28.1C142.5,28.2,142.5,28.2,142.6,28.1l-1.9,0.1c0,0,0,0,0,0
			c0,0,0,0,0,0l0-2.8c0,0,0,0,0,0c0,0,0,0,0,0h0.2c0,0,0,0,0,0c0,0,0,0,0,0l0,2.5c0,0,0,0,0,0c0,0,0,0,0,0h1.5c0,0,0,0,0,0
			c0,0,0,0,0,0L142.6,28.1z"/>
		<path class="st0" d="M145.7,28.1C145.7,28.1,145.7,28.2,145.7,28.1C145.6,28.2,145.6,28.2,145.7,28.1l-1.9,0.1c0,0,0,0,0,0
			c0,0,0,0,0,0l0-2.8c0,0,0,0,0,0c0,0,0,0,0,0h1.8c0,0,0,0,0,0c0,0,0,0,0,0l0,0.2c0,0,0,0,0,0c0,0,0,0,0,0h-1.5c0,0,0,0,0,0
			c0,0,0,0,0,0l0,0.8c0,0,0,0,0,0c0,0,0,0,0,0h1.3c0,0,0,0,0,0c0,0,0,0,0,0l0,0.2c0,0,0,0,0,0c0,0,0,0,0,0h-1.3c0,0,0,0,0,0
			c0,0,0,0,0,0l0,1c0,0,0,0,0,0c0,0,0,0,0,0h1.5c0,0,0,0,0.1,0c0,0,0,0,0,0L145.7,28.1z"/>
		<path class="st0" d="M146.9,28.1l0-2.8c0,0,0,0,0,0c0,0,0,0,0,0h0.2c0,0,0,0,0,0c0,0,0,0,0,0l0,2.8c0,0,0,0,0,0c0,0,0,0,0,0
			L146.9,28.1C147,28.2,147,28.2,146.9,28.1C146.9,28.2,146.9,28.1,146.9,28.1z"/>
		<path class="st0" d="M150.9,28.1C150.9,28.1,150.9,28.1,150.9,28.1C150.9,28.1,150.9,28.1,150.9,28.1
			C150.9,28.2,150.9,28.2,150.9,28.1c0,0.1,0,0.1-0.1,0.1h-0.2c0,0,0,0-0.1,0l-0.9-1.2c0,0,0,0,0,0H149c0,0,0,0,0,0c0,0,0,0,0,0
			l0,1.1c0,0,0,0,0,0c0,0,0,0,0,0h-0.2c0,0,0,0,0,0c0,0,0,0,0,0l0-2.8c0,0,0,0,0,0c0,0,0,0,0,0h1.2c0.1,0,0.2,0,0.3,0.1
			c0.1,0,0.2,0.1,0.3,0.2c0.1,0.1,0.1,0.2,0.2,0.3c0,0.1,0.1,0.2,0.1,0.3c0,0.1,0,0.2-0.1,0.3c0,0.1-0.1,0.2-0.1,0.2
			c-0.1,0.1-0.1,0.1-0.2,0.2c-0.1,0-0.2,0.1-0.3,0.1c0,0,0,0,0,0c0,0,0,0,0,0L150.9,28.1z M149.8,26.7c0.1,0,0.2,0,0.2,0
			c0.1,0,0.1-0.1,0.2-0.1c0.1-0.1,0.1-0.1,0.1-0.2c0-0.1,0-0.1,0-0.2c0-0.1,0-0.1,0-0.2c0-0.1-0.1-0.1-0.1-0.2
			c-0.1-0.1-0.1-0.1-0.2-0.1c-0.1,0-0.1,0-0.2,0H149c0,0,0,0,0,0c0,0,0,0,0,0l0,1c0,0,0,0,0,0c0,0,0,0,0,0H149.8z"/>
		<path class="st0" d="M153.3,25.2c0.2,0,0.4,0,0.6,0.1c0.2,0.1,0.3,0.2,0.4,0.3c0.1,0.1,0.2,0.3,0.3,0.5c0.1,0.2,0.1,0.4,0.1,0.6
			c0,0.1,0,0.3,0,0.4c0,0.1-0.1,0.3-0.1,0.4c-0.1,0.1-0.1,0.2-0.2,0.3c-0.1,0.1-0.2,0.2-0.3,0.2c-0.1,0.1-0.2,0.1-0.3,0.2
			c-0.1,0-0.3,0.1-0.4,0.1c-0.2,0-0.4,0-0.6-0.1c-0.2-0.1-0.3-0.2-0.4-0.3c-0.1-0.1-0.2-0.3-0.3-0.5c-0.1-0.2-0.1-0.4-0.1-0.6
			c0-0.2,0-0.4,0.1-0.6c0.1-0.2,0.2-0.3,0.3-0.5c0.1-0.1,0.3-0.2,0.4-0.3C152.9,25.2,153.1,25.2,153.3,25.2z M153.3,27.9
			c0.2,0,0.3,0,0.4-0.1c0.1-0.1,0.2-0.2,0.3-0.3c0.1-0.1,0.2-0.2,0.2-0.4c0.1-0.2,0.1-0.3,0.1-0.5c0-0.2,0-0.3-0.1-0.5
			c-0.1-0.1-0.1-0.3-0.2-0.4c-0.1-0.1-0.2-0.2-0.3-0.3c-0.1-0.1-0.3-0.1-0.4-0.1c-0.2,0-0.3,0-0.4,0.1c-0.1,0.1-0.3,0.1-0.3,0.3
			c-0.1,0.1-0.2,0.2-0.2,0.4c-0.1,0.1-0.1,0.3-0.1,0.5c0,0.2,0,0.3,0.1,0.5c0.1,0.2,0.1,0.3,0.2,0.4c0.1,0.1,0.2,0.2,0.3,0.3
			C153,27.9,153.1,27.9,153.3,27.9z"/>
	</g>
	<g>
		<path class="st0" d="M21.4,29.7v-5.1l4.3,2.6c0,0-1.2,1-2,1.5C22.8,29.1,21.4,29.7,21.4,29.7z"/>
		<path class="st0" d="M29.7,17.3c0-0.4,0-0.8,0-0.8c0.6,0,0.6,0,1,0c0-1.8-0.9-2-1.2-2.5c0,0-0.1-0.4-0.2-0.8
			c-0.1-0.3-0.2-0.5-0.2-0.6c0.6-0.2,0.6-0.2,0.9-0.3c-0.5-1.7-1.5-1.7-1.9-2l0,0c0,0-0.2-0.4-0.4-0.7c-0.2-0.3-0.4-0.5-0.5-0.7
			c0.5-0.4,0.5-0.4,0.8-0.6c-1-1.5-1.9-1.1-2.4-1.4c0,0-0.4-0.4-0.8-0.7c-0.3-0.2-0.6-0.4-0.6-0.4c0.4-0.5,0.4-0.5,0.6-0.8
			c-1.4-1.1-2.2-0.5-2.7-0.5c-0.1,0-0.4-0.2-0.8-0.4C21,4,20.6,3.8,20.6,3.8c0.2-0.6,0.2-0.6,0.3-0.9c-1.7-0.5-2.2,0.2-2.8,0.4h0
			c0,0-0.4-0.1-0.8-0.1c-0.4,0-0.9,0-0.9,0c0-0.6,0-0.6,0-1c-1.8,0-2,0.9-2.5,1.2c0,0-0.4,0.1-0.9,0.3c-0.5,0.1-0.8,0.2-0.9,0.3
			c-0.2-0.6-0.2-0.6-0.3-0.9c-1.7,0.6-1.6,1.6-1.9,2c0,0-1.1,0.7-1.2,0.8C8.2,5.3,8.2,5.3,8,5C6.6,6.1,6.9,7,6.7,7.5
			c0,0-0.1,0.1-0.2,0.2c0,0-0.5,0.7-0.8,1C5.3,8.3,5.3,8.3,5,8.1c-1,1.4-0.4,2.2-0.5,2.7c0,0-0.2,0.4-0.4,0.8
			C4,12,3.9,12.3,3.9,12.4c-0.6-0.2-0.6-0.2-0.9-0.3c-0.5,1.7,0.2,2.2,0.4,2.8c0,0,0,0.3,0,0.3c0,0.1,0,0.4,0,0.5c0,0,0,0.6,0,0.8
			c-0.6,0-0.6,0-1,0c0,1.8,0.9,2,1.2,2.5l0.1,0.3c0.1,0.4,0.2,0.7,0.3,1.1c-0.6,0.2-0.6,0.2-0.9,0.3c0.5,1.7,1.5,1.7,1.9,2
			c0,0,0,0,0,0c0,0.1,0.2,0.4,0.3,0.6c0.1,0.2,0.4,0.6,0.5,0.8c-0.5,0.4-0.5,0.4-0.8,0.6c1,1.5,1.9,1.1,2.4,1.4c0,0,0.3,0.3,0.6,0.6
			c0.3,0.3,0.7,0.6,0.8,0.6c-0.4,0.5-0.4,0.5-0.6,0.8c1.4,1.1,2.2,0.5,2.7,0.5c0.2,0.1,0.9,0.4,1.6,0.6c-0.2,0.6-0.2,0.6-0.3,0.9
			c1.7,0.5,2.2-0.2,2.8-0.4l0,0c0.8,0.1,1.5,0.1,1.6,0.1c0,0.6,0,0.6,0,1c1.8,0,2-0.9,2.5-1.2c0,0,0.4-0.1,0.9-0.2v-7.3l6.2,3.7
			c0.6-0.6,1-1.2,1.1-1.4c0.5,0.4,0.5,0.4,0.8,0.6c1-1.4,0.4-2.2,0.5-2.7c0.1-0.1,0.2-0.5,0.4-0.8c0.1-0.3,0.2-0.7,0.2-0.7
			c0.6,0.2,0.6,0.2,0.9,0.3c0.5-1.7-0.2-2.2-0.4-2.8C29.6,18,29.7,17.6,29.7,17.3z M16.5,17.9c-0.8,0-1.5-0.7-1.5-1.5
			c0-0.8,0.7-1.5,1.5-1.5c0.8,0,1.5,0.7,1.5,1.5C18,17.2,17.3,17.9,16.5,17.9z"/>
	</g>
</g>
</svg>
