<svg id="Camada_1" xmlns="http://www.w3.org/2000/svg" viewBox="0 0 514 513"><style>.st0{opacity:0.2;} .st1{fill:#FFFFFF;}</style><g class="st0"><path class="st1" d="M52.9 446.6c-3.7-3.1-6-4.2-13.9-6.2-3-.8-6.8-2.5-8.5-3.7-2.6-1.9-4.1-2.2-10.3-1.9-5.1.1-8.9-.4-13.2-1.8-7.1-2.4-7-2.4-7-.5 0 2.2 10.3 4.9 19.2 5 8.2 0 11.6 1.5 8 3.4-1.5.8-4.8.4-14.1-1.9-14.3-3.5-13.1-3.4-13.1-1.6 0 2.8 27.6 8 30.4 5.7 2-1.7 6.6-.3 6.6 1.9 0 1.8 5.3 7 7 7 .5 0 2.2 1.2 3.9 2.6 2.6 2.2 3.1 3.3 3.1 7.1 0 3.9-.5 5.1-3.9 8.4-3.5 3.6-4.3 3.9-9.2 3.9-3.1 0-11.8-1.7-20.4-4C.7 465.6.3 465.5.3 467.3c0 .6 1.2 1.2 2.6 1.3 1.4 0 8.8 1.7 16.4 3.7 15.8 4.2 21.7 4.6 26.5 1.7 5.7-3.5 9.6-12.5 7.3-16.9-.7-1.1-3.7-3.8-6.8-5.8-9.6-6.4-10.1-9.7-1-6.3 6.9 2.6 9.8 6.3 10.5 13.1.6 6.6-1.9 12.8-6.9 17.3-3.8 3.5-4.2 3.6-11.5 3.6-5.6 0-7.5.3-7.2 1.3.3.6 2.3 1.3 4.6 1.5s4.2.7 4.2 1.1-1.8 1.6-3.9 2.6c-4.6 2-10.4 1.5-18.3-1.6-2.7-1-6.2-1.9-7.8-1.9-3.1 0-7 3.3-7 5.9 0 1.1-.3 1.3-.8.4-1-1.6-1.3 8.1-.6 17.5.5 6.3.8 7.2 2.5 7.2 1.6 0 1.8-.3.9-1.9-1.3-2.6-1.3-16.9 0-20.8 1.6-4.6 4.7-5.5 11.7-3.6 12 3.2 13.3 3.4 17.6 2.2 2.3-.6 5.8-2.3 7.7-3.9 1.9-1.5 4.5-3 5.7-3.4 3.3-1 9-8.1 10.7-13.4 3.1-9 1.5-16.6-4.5-21.6zM492.5 489.2c7.2-.9 9.1-3.1 10.3-11.8.7-5 1.4-6.7 3.8-8.7 2-1.8 3.6-2.4 5.2-2 1.5.3 2.2.1 2.2-.9 0-1.7-3.5-2-7.2-.6-3 1.1-4.5 4.1-5.7 11.5-.4 2.8-1.5 6.3-2.5 7.7-1.4 2.2-2.4 2.6-6.5 2.6-3.4 0-5.6.6-7.5 2.1-3.1 2.5-3.3 1.8-.6-1.9 1.1-1.5 2.3-4.4 2.7-6.4.5-3.2.1-4.1-2.5-6.7-1.9-2-4.5-3.3-7.1-3.7-4.3-.7-6.1-2.6-6.1-6.2 0-1.1.9-2.2 1.9-2.5 1-.2 2.6-1.6 3.5-2.9 1.9-2.9 7.3-20.4 8.2-26.6.6-4.2.8-4.4 3.6-3.8 1.7.3 4.2 1.9 5.7 3.5 2.1 2.2 4.5 3.3 10.6 4.6 4.4 1 8.3 2.3 8.7 2.9s.6-1.7.6-5.1c-.1-3.4-.5-6-.8-5.8-.4.2-3.1-.5-6.1-1.6-3.8-1.5-6.8-1.9-9.9-1.6-2.5.3-6.3.1-8.5-.3-26.1-5.7-28.8-6.2-31-5.2-1.8.8-4 .5-10.1-1.5-8.3-2.6-19.4-4-23.8-2.9-1.5.4-4.4 2.2-6.5 4.2-3.5 3.1-4.3 3.4-7.9 2.8-3.8-.6-4-.5-5.1 2.6-1.3 3.8-.5 5.2 3.9 7 1.8.7 3 2 3 3.1 0 5.4 12 12.7 27 16.4 6.1 1.5 11 3.1 11 3.6 0 .4 4.1 2 9.1 3.5 7.2 2.2 9.3 3.2 10 5.1.4 1.2.6 3 .2 3.9-.3.9.7 2.8 2.7 4.9l3.3 3.4-1.2 5.6c-1.4 6.4-.9 9.1 2.2 10.1 5.2 1.5 8.9 3.9 10.2 6.5 1.8 3.4 2 12 .3 13.7-.9.9-.7 1.2 1 1.2 1.5 0 2.4-.8 2.8-2.6 1.1-4.2-.3-12.2-2.7-15.5-2.7-3.9-1.9-4.7 5.6-5.7zm7.7-61c2.3-.4 12.8 4.3 12.8 5.7 0 1.6-3.7 1.3-9.5-.7-5-1.7-6.7-4.3-3.3-5zm-87.8.1c-.7 1.9-1 1.9-4.1.7-2.6-1-2.1-4 .6-4 2.6 0 4.2 1.5 3.5 3.3zm4.3 10c-3.4-3.8-1.2-14.4 3.7-17.8 2.9-2.1 3.9-1.9 2.5.6-.6 1.2-1.9 6-2.8 10.6-1.6 8.1-1.7 8.4-3.4 6.6zM448 449c0 2.4.7 2.5-11-1-13-3.9-15-4.7-15.7-6.7-.8-2.2 1.2-14 3.3-19.4l1.7-4.1 6.6.5c3.6.3 9.7 1.5 13.4 2.7l6.9 2.1-.7 4.2c-.3 2.3-1.5 7.7-2.6 11.9-1 4.3-1.9 8.7-1.9 9.8zm12.5 7.6c-9.5-3-10.6-4.9-8.3-14.3 1-3.7 2-8.6 2.4-10.8 1.3-7.7 6.1-10 15.4-7.6 1.9.6 5.4 1.5 7.7 2.1 4.1 1 4.2 1.1 3.6 4.8-1.1 6.7-6 23.1-7.7 25.7-2 3-3.8 3-13.1.1zm16 32c-1.7-1.2-1.8-1.8-.6-6.8 1.1-4.4 1.1-5.9.1-7.8-1.2-2.2-1.1-2.2 1.6-1.6 7.8 1.9 9.6 7 4.9 13.9-2.9 4.1-3.3 4.3-6 2.3z"/><path class="st1" d="M467.4 446.4c-6.2-2.6-11.2-3-12-1-.9 2.4 1.7 4.8 7.4 6.8 5.6 2 6.2 2.1 6.2.9 0-.4-2.7-1.8-6-3-9.5-3.5-7.3-5.8 2.4-2.5 5.8 2 7.4 1 2-1.2zM466.4 437.6c6.9 1.5 7.6 1.6 7.6.5 0-.5-1.3-1.2-3-1.5-1.6-.3-4.3-.9-5.9-1.2-7.4-1.4-5.3-6.1 2.1-4.9 2.4.4 5.1 1.2 6.1 1.7 2.3 1.2 3.7.1 1.7-1.2-.8-.5-3.9-1.4-6.8-2.1-4.5-.9-5.7-.8-7.8.5-4.7 3.1-2.3 6.4 6 8.2zM424.8 440c-3 0 1.3 2 8.2 3.8 8.1 2.2 13 2.7 11.5 1.3-1-.8-17.3-5.1-19.7-5.1zM426.1 431.6c-.9.9 1.2 1.7 10.1 3.9 10.4 2.5 13.7 3 12.3 1.6-1.1-1.1-21.8-6.1-22.4-5.5zM429.4 421.1c-.4.7 2 1.6 13.6 4.8 4.3 1.1 8.6 1.4 7.6.4-1.3-1.3-20.7-6-21.2-5.2zM509.2 499l5.3-.8-7-.1c-12-.1-15.3 3.4-9.1 9.8 2 2.1 3.3 4 3 4.4-.4.4.2.7 1.4.7 3.2 0 2.7-1.4-1.8-5.3-6.7-5.7-5.9-6.6 8.2-8.7zM449.3 470c-.3 0-1.7.8-3.1 1.9-1.5 1-7.9 4.8-14.2 8.3-29.5 16.6-30.1 17-33.6 22.2-1.9 2.8-3.4 5.6-3.4 6.3 0 .9 2.1 1.3 7.1 1.3 6.6 0 7.7-.3 13.3-3.8 3.4-2.2 10.6-6.3 16.1-9.2 12.9-6.9 24.5-14.1 24.5-15.3s-6-11.7-6.7-11.7zM400 507c-.7 0-1-.3-.7-.7.4-.3 1-.3 1.4 0 .3.4 0 .7-.7.7zm8.5-1c-.3.5-1.9 1-3.4 1-3.4 0-4.6-2.9-2.4-5.9 1.4-2.1 1.4-2.1 3.9.9 1.4 1.6 2.3 3.4 1.9 4zm44.3-24.6c-.2.1-2.1 1.4-4.3 2.8s-10.1 5.9-17.5 9.8c-7.4 4-14.6 8-16 9-2.4 1.7-2.6 1.7-4.8-1.2-1.3-1.6-2.2-3.4-1.9-4.1.3-.6 6.1-4.3 12.9-8.1 6.7-3.8 15.4-8.8 19.3-11 3.8-2.3 7.3-4.2 7.6-4.4.6-.3 5.3 6.9 4.7 7.2zM184 401.6c-71.8 11.2-70.5 10.9-70.8 12.5-.4 2.1 8.5 72.2 10.6 83.7.9 5 2 9.2 2.4 9.2s11.9-1.6 25.5-3.5c43.2-6 98.7-13.3 132.8-17.5 18.1-2.3 33.1-4.3 33.4-4.5 1.1-1.1-11.2-92.2-12.6-93.6-1.9-1.9-72.4 6.2-121.3 13.7zm34.6 89.9c-.6.2-20.2 2.9-43.6 6s-43.5 5.9-44.6 6.2c-2.3.5-3.1-1.8-5.3-15.2-1.7-10.5-9.3-72.7-8.9-73 .6-.6 90.9-14.8 91.3-14.4.3.3 3.3 22.7 10.9 80.2.9 7 .9 10 .2 10.2zM312 480c-1.7 0-20.9 2.2-42.8 5-21.8 2.7-41.3 5.2-43.2 5.5l-3.6.6-3.8-29.8c-2.1-16.4-4.8-36.7-6-45.2-1.4-10.1-1.8-15.4-1.1-15.7 3.7-1.3 90.2-10.7 91.5-9.9.4.2 1 2.6 1.4 5.2 2.3 16.7 10.6 81 10.6 82.5 0 1.3-.8 1.8-3 1.8z"/><path class="st1" d="M203.2 483.2c-8.7.4-12.9 1.8-11.6 4 .3.5 1.3.6 2.3.2.9-.4 5.2-1 9.5-1.3 5.4-.4 8.1-1 8.4-2 .4-1.1-1.2-1.3-8.6-.9zM289 475.7c0 1.1.6 1.4 2.3.9 1.2-.4 5.5-.9 9.5-1.3 5.5-.4 7.2-.9 7.2-2.1 0-1.3-1.3-1.4-8-.8-9.3.8-11 1.3-11 3.3zM366.5 487.7c-3.5 1.1-3.6 1-4.9-2-.8-1.9-1-3.6-.5-4.1 1.3-1.5 1.1-2.6-.5-2.6-1.7 0-2.8-2.7-2.1-5.1.4-1.3.1-1.9-.8-1.9-1.7 0-3-2.7-2.1-4.2.3-.5-.1-1.7-1.1-2.7-1-1.2-1.4-2.7-1-4.3.5-2 .2-2.6-1.6-3.1-1.6-.4-2-1.1-1.6-2.7.4-1.4-.2-2.9-1.4-4.1-1.2-1.2-1.8-2.7-1.4-3.9s0-2.2-1.1-2.8c-1.1-.6-1.5-1.7-1.1-3.1.3-1.4 0-2.4-.9-2.8-.7-.3-1.9-2.2-2.5-4.3-1.2-4-7.6-13.1-9.6-13.8-2.2-.7-1.6 11.9.7 17.8 1.1 2.8 1.7 5.6 1.4 6.2-.4.6.1 1.7 1 2.4.9.6 1.8 2.3 1.8 3.6.1 1.2.8 3.1 1.6 4 .8 1 1.1 2.5.7 3.7-.5 1.5-.2 2.1.9 2.1 1.5 0 2 1.4 1.9 4.8-.1.8.8 2.3 1.9 3.4 1.5 1.5 1.7 2.3.9 3.1-1.5 1.5-1.4 2.7.3 2.7s2.8 2.7 2.1 5.1c-.4 1.3-.1 1.9.9 1.9 1.5 0 2.1 1.6 1.8 5.3-.1.9.3 1.7.8 1.7s1.4.9 2 2c1 1.8.7 2.2-1.9 3.1-2.5.9-3.1 1.7-3.1 3.9 0 1.8.8 3.5 2.2 4.4 2.8 2 5.1 2 11.5.1 7.1-2.1 10.3-4.9 10.3-8.8 0-5.2-1.2-6.3-5.5-5zM359 486c.6 1.2.9 2.8.6 3.6-.6 1.5-2.8 1.9-3.9.7-1.2-1.1-.8-4 .7-5.2 1.2-1 1.7-.8 2.6.9zm-21-44c-1.1 0-3.7-7.9-4.3-13l-.6-4.5 2.5 3c3.4 4.2 5.7 11.4 4.3 13.2-.6.7-1.5 1.3-1.9 1.3zm1.6 6.3c-1.2-1.2-.6-4.1 1.1-4.7 1.4-.6 3.2.8 3.3 2.4 0 .9-3.8 2.9-4.4 2.3zm2.1 5.8c-.3-1.2.3-2.7 1.3-3.6 1.7-1.5 1.9-1.5 2.5.5.4 1.2.1 2.7-.5 3.5-1.7 2-2.7 1.9-3.3-.4zm2.7 6.7c-.4-1.5-.1-2.6 1.2-3.5 1.7-1.2 2-1.1 2.8 1.3.6 1.9.5 2.9-.5 3.5-2.1 1.3-2.7 1.1-3.5-1.3zm3.2 8.5c-1.2-1.2-.6-4.1 1.1-4.7 1.4-.6 3.2.8 3.3 2.4 0 .9-3.8 2.9-4.4 2.3zm2.1 5.5c-.4-1.4 0-2.6 1.1-3.4 1.4-1.1 1.8-1 2.6.6.6 1.3.5 2.5-.4 3.5-1.7 2.1-2.7 1.9-3.3-.7zm2.8 7.1c-.5-1.4-.1-2.5 1.2-3.4 1.6-1.2 1.9-1.1 2.6.7.4 1.2.3 2.6-.4 3.4-1.6 2-2.7 1.7-3.4-.7zm11.2 16c-5 2.4-9.5 2.7-12.3.7-1-.8-1.7-1.6-1.4-1.8 1.4-1.2 18.2-6.9 18.7-6.4 1.6 1.6-1 5.6-5 7.5zM86.4 461c-2.1 2.2-4.4 4-5.2 4s-1.1.7-.7 1.9c.6 2.1-1.8 4.6-3.5 3.6-.8-.5-1 .1-.8 1.6.2 1.7-.4 2.7-2 3.4-1.2.5-2 1.5-1.8 2 .2.6-.2 1.9-.9 2.9-1.3 1.7-1.5 1.7-4.4 0s-3.1-1.7-5.1.1c-1.1 1-2 2.9-2 4.2 0 2.6 5.9 9.7 10.5 12.5 4 2.4 7.4 2.3 10.2-.4 2.9-2.8 2.9-3.7-.3-6.3-2.6-2.1-2.7-2.2-.9-4.8.9-1.5 2.6-2.7 3.7-2.7 1.4 0 1.8-.6 1.6-2.2-.2-1.6.4-2.6 1.9-3.3 1.3-.5 2.2-1.6 2-2.4-.1-.9 1.1-2.1 2.6-2.9 2.1-1 2.6-1.7 1.8-2.5s-.6-1.7.8-3.1c2.2-2.6 6.7-13.3 5.8-14.2-1-1-9.2 4.2-13.3 8.6zm-7.6 33.7c-.6.7-1.8 1.3-2.7 1.3-6.4-.1-16.2-11-12.1-13.5.5-.3 4.3 2 8.4 5.2 5.7 4.4 7.2 6 6.4 7zm-1.6-10.2c-1.6 2-2 2.1-3.6.9-1.6-1.1-1.7-1.6-.6-2.9 1.2-1.4 6-2.2 6-.9 0 .3-.8 1.6-1.8 2.9zm5.5-7.2c-.4 1.4-4.3 2.2-5 1-.3-.5-.2-1.5.2-2.2 1-1.6 5.4-.5 4.8 1.2zm3.7-5c-.7 1.9-2.2 2.1-4.3.8-1.2-.8-1.2-1.2-.2-2.5 1.5-1.8 2.1-1.9 3.9-.8.7.5 1 1.6.6 2.5zm8.5-12.5c-.5 1.6-2.2 4.3-3.7 6.1-2.4 2.9-2.9 3.1-4.6 1.8-1.7-1.2-1.5-1.6 2.9-6 5.4-5.4 6.8-5.9 5.4-1.9zM407.4 461.7c-.4-.6-13-19.7-28-42.3-24.7-37.1-28.6-43.4-26.9-43.4 1.9 0 51.2 11.8 60.5 14.5 6.3 1.9 17 4.3 23.7 5.5 6.7 1.1 12.9 2.3 13.7 2.6 1.8.7 3.1-1.7 3.9-7.1.4-2.2 1.5-4.6 2.5-5.5 1.5-1.1 1.8-2.4 1.5-5.2-.4-3.1-1-3.8-3.3-4.3-1.9-.4-5-3-8.7-7.3-3.1-3.7-10.4-12-16.2-18.6-5.7-6.5-10-11.7-9.4-11.5.5.2 12.2 6.8 26 14.7 13.7 7.8 25.5 14.2 26 14.2.6 0 2.1-2.3 3.3-5.2 1.2-2.8 3.4-6.9 4.8-9 1.5-2.3 2.1-4.2 1.6-4.8-2-1.9-44.9-26.8-60.9-35.2-30.5-16.2-46.1-25.6-49-29.4-3.6-4.7-6-4.1-13.7 3.6-5.6 5.5-5.9 6-5.2 9.4.5 2.9 1.5 4.2 4.9 6.1 2.4 1.5 6.8 5.9 10.6 10.7 3.5 4.6 11.1 13.2 16.9 19.3 5.8 6 14.2 15.6 18.8 21.2 4.5 5.6 8.7 10.5 9.2 10.8.6.3 1 1 1 1.4 0 .5-3.7-.2-8.2-1.5-4.6-1.3-14.8-3.3-22.8-4.5-23.9-3.4-47-9.4-49.8-12.9-1.5-1.9-2.2-2.1-3.9-1.2-1.1.6-3.6.9-5.5.6-3.2-.6-3.6-.4-4.2 2.2-.4 1.6-2.1 4.1-3.9 5.6l-3.2 2.7 1.8 2.9c.9 1.7 1.4 3.8 1.1 4.7-.5 1.1 0 1.8 1.5 2.2 1.4.3 3.7 3.6 6.9 9.7 2.7 5.1 9.6 15.9 15.4 24.2 5.8 8.2 17.3 25.5 25.5 38.4s16.6 26.1 18.7 29.3c2 3.1 4 5.7 4.4 5.7s4.9-2.7 10-6c6.2-4 9.1-6.4 8.6-7.3zm44.2-70.1c-.3.8-.6 2.2-.6 3 0 1.4-.2 1.5-3.2.7-2.6-.6-2.2-1.6 1.3-3.6 2.7-1.5 3.1-1.5 2.5-.1zM368 302.5c.6-.3 1-1.2 1-1.8-.1-.7-.9-.1-2 1.1l-2 2.4-3.7-2.3c-2.1-1.2-4-2.4-4.1-2.5-.7-.5 6.2-12.6 7.4-13.1.6-.2 9 4 18.5 9.5 9.6 5.5 23.9 13.4 31.9 17.7 21 11.2 64 36 64 36.9 0 .2-1.6 3.4-3.6 7.2-2 3.8-3.7 6.9-3.7 7-.1 0-2-1-4.2-2.2-2.2-1.3-4.4-2.5-4.9-2.7s-.1-1.5.9-3c2.1-3.2 1.1-3.6-1.4-.5l-1.8 2.1-3.7-2.3c-4-2.4-3.9-1.9-2.1-10 .5-2.2.4-2.1-.9.5-.8 1.7-1.7 3.8-2 4.8-.5 1.7-.8 1.6-4.6-.5-3.4-1.9-4-2.7-3.5-4.8.5-2.3.4-2.4-.9-.7-1.4 1.8-1.6 1.8-5.6-.3l-4.1-2.1 2.2-3.5c1.2-1.9 1.9-3.7 1.6-4-.2-.3-1.5 1.1-2.7 3.1l-2.2 3.5-3.9-2.2c-3.4-1.9-3.9-2.6-3.4-4.8.5-2.4.5-2.4-1-.6-1.4 1.9-1.5 1.9-5.1 0-1.9-1-3.7-2.2-3.9-2.5-.2-.3.8-2.2 2.2-4.2 1.4-2.1 2.4-3.9 2.1-4.2-.3-.3-1.7 1.3-3.3 3.4l-2.7 4-3.9-2c-3.8-1.9-5-4.1-2.9-5.4.6-.3 1-1.2 1-1.8-.1-.7-.9-.2-2 1.1-2.1 2.6-3.9 2.4-7.9-.7-2.3-1.8-2.3-1.9-.6-4.5 1-1.5 1.5-2.9 1.2-3.2-.3-.3-1.3.8-2.2 2.5-.8 1.7-1.7 3.1-2 3.1-.2 0-2-.9-3.9-2.1-3-1.7-3.4-2.4-2.6-3.9 1.6-3 1.1-3.7-.9-1.1l-1.8 2.3-4.2-2.6-4.2-2.7 2.1-2.8c2.2-3.2 2.5-4.1 1.1-4.1-.5 0-1.4 1.4-2.1 3-1.5 3.5-2.4 3.7-6.7 1-3.4-2-4.1-3.4-2.3-4.5zm5.2 12.5c-1.7-2.1-3.2-4.1-3.2-4.4 0-.9 10 4.8 10 5.6 0 .4-.8 1.2-1.8 1.7-1.4.7-2.4.2-5-2.9zm40.8 46.2l3.6-2.2c2-1.1 3.4-2.3 3.2-2.6-.3-.3-2.2.5-4.2 1.7s-3.8 2-3.9 1.8-1.5-1.9-3.1-3.6c-2.9-3.2-2.9-3.3-1.1-5.3 1-1.1 1.3-2 .7-2-.6 0-1.4.5-1.7 1-1 1.7-2.2 1.1-4.9-2.5l-2.7-3.5 3.3-3.1c3.5-3.3 1.8-3-1.9.4-1.3 1.1-2.4 1.8-2.5 1.6-.2-.2-1.6-1.9-3.2-3.6-2.9-3.2-2.9-3.3-1.1-5.3 2.1-2.3 1-2.7-1.5-.5-1.5 1.3-2 1.1-5-2l-3.3-3.4 2.6-2.1c1.5-1.2 2.7-2.6 2.7-3.3 0-.6-1.4.2-3.1 1.9l-3 2.9-2.9-3.5c-3.5-4.2-3.5-4.2-.9-5.8 1.8-1.1 3.4-.5 14.7 5.9 7 4 14.1 8.2 15.8 9.5 3.1 2.3 43.5 48.5 43.8 50 0 .4-2.6 2.7-5.9 5.1-3.3 2.3-6.2 4.2-6.6 4.3-.3 0-2-1.5-3.7-3.3l-3.2-3.3 2.5-2.4c1.4-1.3 2.3-2.6 2-2.8-.2-.3-1.3.6-2.4 1.9l-2 2.4-3.5-3.4-3.6-3.5 3.2-3.3c3.7-3.9 2.7-4.5-1.2-.8l-2.7 2.6-3.2-3.7c-3.1-3.4-3.1-3.7-1.5-5.5.9-1.1 1.5-2.1 1.2-2.4s-1.1.1-1.8 1c-1.8 2.2-2.4 1.9-5.4-1.9l-2.6-3.4zm-92.8-3.4c1.1-4 2.2-7.5 2.4-7.7.3-.4 9.1 1.8 10.6 2.6.4.2.3 1.5-.2 2.8-.5 1.4-.6 2.5-.1 2.5s1.2-1.1 1.5-2.4c.6-2.4.7-2.4 4.9-1.2 4 1.2 4.2 1.4 4 4.9-.1 2 .2 3.7.7 3.7.6 0 1-1.3 1-2.8 0-3.9.4-4.1 5.5-2.9 3.5.8 4.5 1.5 4.5 3.1 0 1.7.2 1.8 1.3.4 1-1.2 2.1-1.3 5.5-.6l4.4.9-.7 4c-.4 2.5-.3 3.9.4 3.9.6 0 1.1-1.6 1.1-3.5 0-3.8.7-4.1 6.9-2.9 2.5.5 3 1 2.6 2.5-.4 1.1-.2 1.9.4 1.9s1.1-.9 1.1-2c0-1.9.4-2 3.8-1.5 6.2 1.1 6.2 1.1 5.1 4.4-.6 1.7-.9 3.6-.6 4.3.2.7 1-.7 1.6-3.1l1.2-4.3 4.1.6c5.5.9 5.9 1.3 4.8 4.1-.6 1.6-.6 2.5 0 2.5s1-.6 1-1.2c.1-3.3 1.6-4 5.8-2.7 4.1 1.2 4.2 1.3 3.7 5.3l-.4 4.1 1.1-3.8c1.2-3.7 1.3-3.8 4.7-3.2 3.9.7 6.3 2.9 5.4 5.1-.3.9 0 1.2.9.9 1.2-.5 4 2.3 13.6 13.7 2.1 2.5 2.2 2.8.5 2.7-3.7-.2-10.5-1.9-22-5.3-6.5-1.9-29.8-7.6-51.8-12.6s-40.5-9.2-41.1-9.4c-.8-.3-.6-2.6.8-7.8zm4.4 15.6l-1.7-3.7 4.2.7c6.9 1.1 7.6 2 3.6 4.5-1.9 1.1-3.6 2.1-3.9 2.1-.2 0-1.2-1.6-2.2-3.6zm64.1 97.6c-.8 0-7-9-6.5-9.4.1-.2 1.4-.9 2.6-1.5 1.3-.7 2.1-1.5 1.9-1.8-.3-.2-1.5.1-2.7.7-2.5 1.3-3.7.6-6.3-3.8l-1.7-3 3.5-2.2c2-1.2 3.4-2.5 3-2.8-.3-.3-1.9.4-3.5 1.6s-3.1 2.2-3.3 2.2c-.3 0-1.6-1.8-3.1-4l-2.6-4 2.7-1.1c1.6-.6 2.3-1.3 1.6-1.6-.7-.2-2 0-3.1.6-1.6.9-2.3.4-4.5-3l-2.6-4 3.5-2.1c1.9-1.1 3.3-2.3 3-2.5-.3-.3-2 .3-3.8 1.4l-3.3 2-2.7-4-2.6-4 2.1-1.8c1.2-1 1.7-1.8 1-1.9-.6 0-1.5.5-1.8 1-1.1 1.8-2.2 1.1-4.8-2.9l-2.6-4 3.4-1.1c1.9-.6 3.5-1.6 3.5-2.1s-1.6-.2-3.7.6c-2 .8-3.7 1.4-3.7 1.3-.1-.2-1.4-1.9-2.9-4l-2.7-3.6 2.6-1.7c1.4-.9 2.3-1.9 2.1-2.2-.3-.2-1.6.2-2.9 1-2.2 1.5-2.4 1.4-5-2.3l-2.7-3.9 3-2.2c1.7-1.2 2.8-2.3 2.5-2.6-.3-.3-1.8.4-3.4 1.6l-3 2.1-2.6-4.1-2.7-4 2.3-1.9c1.3-1.1 1.8-1.9 1.1-2-.6 0-1.5.5-1.8 1-1.2 1.9-3.4 1-5.4-2.4-1.2-1.8-2.1-3.6-2.1-3.8 0-.3 1.9-1.8 4.2-3.3 3.7-2.5 4.6-2.7 8.6-1.9l4.4.9 28.9 43.5c15.9 23.9 28.9 43.7 28.9 44s-3.1 2.4-6.9 4.8c-3.7 2.3-7.1 4.2-7.4 4.2z"/><path class="st1" d="M392.6 458c-1.8 0-2.9 1.6-2.1 3 1.1 1.8 3.5 1.1 3.5-1 0-1.1-.6-2-1.4-2zM328 361.5c1 1.2 1.6 1.3 2.7.3 1.2-1 1.2-1.3-.1-2.7-2.2-2.1-4.6 0-2.6 2.4zM445.7 384.8c1.2-1 1.2-1.3-.1-2.7-2.2-2.1-4.6 0-2.6 2.4 1 1.2 1.6 1.3 2.7.3zM470.7 354.8c1.2-1 1.2-1.3-.1-2.7-2.2-2.1-4.6 0-2.6 2.4 1 1.2 1.6 1.3 2.7.3zM366.9 293.6c-.5.3-.9 1.2-.9 2 0 1.4 2.1 1.9 3.3.7.9-.9-1.3-3.4-2.4-2.7zM489.1 471.2c.6 1.1 2 2.3 3.2 2.8 2.9 1.2 3.5 1.2 5.8 0 4-2.2.9-7-4.5-7-4.1 0-5.9 1.6-4.5 4.2zm8.4-.2c0 .8-.7 1.5-1.5 1.6-2.7.3-5-.7-5-2.2 0-1.1.9-1.4 3.3-1.2 2 .2 3.2.8 3.2 1.8zM34.5 468c-.3.5.1 1.1.7 1.3 2.2.9 5.9.7 5.4-.2-.8-1.2-5.5-2-6.1-1.1zM45.6 464.1c-.3-.4-1.8-1.1-3.3-1.4-1.6-.3-3.6-.9-4.5-1.2-1.1-.4-1.8-.3-1.8.4 0 .6 1.5 1.5 3.3 2 4.2 1.2 7 1.3 6.3.2zM47 459.2c0-.9-8.7-3.2-11.8-3.2-2.9 0 .1 1.8 4.8 2.8 6 1.3 7 1.4 7 .4zM20 352.7c17.6-.2 32.1 11.1 31.9 24.7 0 2.8-1.3 10.5-2.8 17.1-2.8 11.9-2.9 12-5.5 11.7-6.4-.7-13.6 4.5-13.6 9.9 0 1.4-1.7 1.1-11.7-1.8-6.4-1.9-12.9-4.1-14.4-4.9-3.6-1.8-3.9-1.8-3.9.6 0 1.1.3 1.9.8 1.8.4-.1 8.4 2.3 17.7 5.4 9.4 3.1 18.7 5.9 20.8 6.3 3.4.7 3.8.5 5.4-2.4 2.1-3.7 1.4-3.7 16.3 1.3 5.8 1.9 15.4 4.5 21.3 5.7 10.1 2 10.8 2.3 10.3 4.3-.3 1.2-.9 3.8-1.2 6-1.1 6.4 1.7 3.9 3.6-3.3 2.1-7.5 3-6.8-13.5-10.1-6.1-1.2-14.8-3.6-19.5-5.2s-10-3.5-11.8-4.1c-2.2-.7-3.1-1.5-2.7-2.6.2-.9 2.1-8.5 4-16.8 2.8-12.2 4.1-15.8 6.1-17.8 3-3 2.7-5.9-1.2-14.1-3.1-6.5-4.6-7.9-7.2-6.5-1.6.9-3.1.4-7.7-2.4-7.2-4.3-14-5.8-23.7-5.4-6.3.4-8.2.9-11.9 3.4-2.4 1.6-4.6 2.9-4.9 2.8s-.7 1.3-.8 3l-.3 3.2 3.3-3.2c5.2-4.9 9.5-6.6 16.8-6.6zm24.1 62.1c-1.9 6.2-3 6.9-8.8 5-2.7-.9-3.3-1.6-3.3-4 0-4.3 4-7.8 8.8-7.8 2.1 0 4.1.2 4.4.5.3.4-.2 3.2-1.1 6.3zm7-55.8c1.6 0 7.1 12.7 6.7 15.6-.4 3.5-2.8 4.5-2.8 1.1 0-3.2-1.9-8.6-4.2-11.9-1.9-2.7-1.7-4.8.3-4.8zM512.9 365.4c.4.3.8-1.1.9-3.1.1-3.5.1-3.5-1.8-1.8-3.7 3.4-8.8 12-10.5 17.9-3 10.4-.2 21 7.3 27.9 2.3 2 4.4 3.7 4.7 3.7s.4-1.1.3-2.4c-.1-1.4-.5-2.3-.9-2-.4.2-2.3-1.4-4.2-3.5-3.5-3.9-5.7-10.5-5.7-17.1 0-6 7.6-21 9.9-19.6z"/><path class="st1" d="M14.4 407.2c10.1 4.6 20.6-2.9 26.6-18.9 1.1-3 2-6.5 2-8 0-3.9-3.7-9.1-8.1-11.4-2.1-1-3.9-2.6-3.9-3.3 0-2.2-6.5-2.9-12.3-1.2-8 2.3-13.4 8.9-15.7 19-2.1 9.5 2.8 19.7 11.4 23.8zm-2.2-35.9c5-4.7 16.2-7.3 15.6-3.6-.2 1.1.7 1.9 2.9 2.5 1.7.4 4.5 2.2 6.2 3.9 4 4 4 7.9.1 16.7-3.5 7.6-7.1 11.8-11.7 13.8-4.1 1.8-6.1 1.8-9.8-.2-4.7-2.4-7.3-5.3-9.1-10.1-2.8-7.2-.2-17.5 5.8-23zM220.3 375.2l27.2-.4 5.8-3.1c3.2-1.8 5.9-3.6 6-4.2 0-.5-2.6-2.5-5.9-4.3-5.6-3.1-6.3-3.2-13.4-2.7-4.1.2-16.2.6-26.8.6-12.7.2-19.5.6-20.1 1.3-.7.8-.8 11.8-.1 13.2 0 0 12.3-.1 27.3-.4zm33-7.9c.4-.3 1-.3 1.4 0 .3.4 0 .7-.7.7s-1-.3-.7-.7zm-7.4-3.1c.6-1 1.3-1.1 3.4-.1 3.2 1.5 3.4 3.2.7 5.9-2.5 2.5-4 2.6-4 .1 0-1.1-.2-2.5-.5-3.3-.3-.7-.1-1.9.4-2.6zm-50.9 4.7c0-2.3.5-4.1 1.3-4.4.6-.2 11.3-.5 23.7-.7l22.5-.3.2 3.8c.2 2.3-.2 3.9-1 4.2-.6.2-11.4.6-23.9.8l-22.8.6v-4zM127.1 367c1-.6 1.9-1.9 1.9-2.9 0-2.9.8-3 7.8-1 14.3 4.2 20.3 5.1 25.9 3.9 15.9-3.5 14.2-18.9-2.5-22.5-3.9-.8-5.6-3.3-7.1-10.3-1.6-7.7-3.6-10.9-8.8-14.2-6.2-3.9-11.3-4.5-21.2-2.5-4.5.9-8.9 1.4-9.7 1.1-.8-.3-1.4-1.9-1.4-3.6v-3.1l22.8.3c22.5.3 22.7.3 27.7-2.2 10-5 11.2-10 10.1-45-.7-24.4-1.4-27.4-6.7-31.3-4.5-3.2-16.3-3.9-70-4.1-56.3-.1-54.9-.3-58.5 5.7-1.7 3-1.8 5.2-1.5 30.6.3 27.9 1 37.1 3.3 39.9.7.8 3.1 2.3 5.3 3.3 3.4 1.6 6.9 1.9 24.5 1.9 25.2.1 28.4.6 28.8 4.1.4 3.6-2.5 5.7-9.4 7.1-10.5 2-13.1 2.8-15.8 4.9-4.9 3.9-2.4 7 7.8 9.6 5.9 1.4 9.4 1.5 30.4.6 13-.6 24.5-1.4 25.5-1.8 2.2-.9 2.2-5.3.1-8.4-2.1-2.9-7.2-5.1-12.1-5.1-7.4 0-6.5-1.6 1.6-2.9 10.2-1.5 15.1-.4 20.2 4.8 3.3 3.2 3.9 4.6 4.5 9.9.9 8.1 3 10.7 10.2 12.8 6.4 1.9 11.2 6 11.2 9.8s-3.9 7.6-8.8 8.7c-5.1 1.1-7.8.8-22.4-2.9-10.4-2.6-10.8-2.8-10.8-5.4 0-4.8-3.8-6.3-15.6-6.3-8.9 0-10.6.3-13.1 2.1-5.7 4.2-5.3 11.1.7 14.1 3.1 1.6 22.3 1.7 25.1.3zm-29.5-58.1c-43.5-.8-49.3-1.1-52.5-2.6-5.7-2.8-6.1-5.5-6.2-37.2-.1-30.7.4-34.1 5.8-36.2 3.4-1.4 103.6-.4 112.7 1 9.6 1.6 10.7 3.3 11.8 18.3.6 6.8.8 20.3.6 30-.4 19.8-.9 21.4-7.9 24.9-5.1 2.6-10.8 2.7-64.3 1.8zM120 324c4.7.6 9.9 1.9 11.5 2.9 3.1 1.8 4.6 5.8 2.3 6.5-.7.3-11.2.7-23.3.9-25.9.6-37.2-.6-36.2-3.6.9-2.7 5.7-4.7 13.2-5.6 7.1-.9 8.3-1.3 10.8-4.2 2.2-2.3 2.8-3.9 2.5-6-.4-2.8-.3-2.9 3.9-2.9h4.3v4.4c0 2.4.6 4.8 1.3 5.4.6.6 5 1.6 9.7 2.2zm1.3 29.5c3.4.8 5.7 2.2 5.7 3.6 0 .5-2 .9-4.5.9-4.2 0-4.5-.2-4.5-2.6s.2-2.5 3.3-1.9zm-3.9 9.9c.3-.9.6-1.8.6-2s1.8-.4 4-.4c4.1 0 5.7 2.1 2.4 3.4-.9.3-2.9.6-4.6.6-2.3 0-2.9-.4-2.4-1.6zm-2.9.7c-.4.5-2.6.9-5 .9-5.7 0-10.1-3.4-9.2-7.2.8-3.1 4.5-4.8 10.6-4.8h4.9l-.4 5.1c-.2 2.7-.6 5.4-.9 6z"/><path class="st1" d="M161.4 272.5c0-19.5-.3-23.5-1.7-26.2-3.4-6.5-2.8-6.4-55.7-6.6-46.9-.2-47.9-.2-50.6 1.9-6.8 5-6.9 5.4-6.9 28.9 0 20.1.2 21.6 2.1 24.2 3.7 4.9 7.5 6.4 18.6 7.2 15.9 1.2 82.7 1.3 87.1 0 6.9-1.9 7.2-3.3 7.1-29.4zm-48.9 27.3c-43-.1-54.2-.7-57.9-3.1-4.8-3.2-5.1-4.8-5.1-26.9V249l3-3c2.2-2.2 4.5-3.3 8-3.8 7.7-1.1 90.9.4 93.4 1.7 3.9 2.1 4.4 4.8 4.8 26.1.4 18.4.2 20.9-1.4 24-1 1.9-2.9 4-4.3 4.7-1.9 1-11.9 1.2-40.5 1.1z"/><path class="st1" d="M130 272.5c-1.3-.4-2-1.7-2.2-4.3-.2-2.9-1-4.1-3.8-6-2.2-1.5-4.5-2.2-6.2-2-2.3.4-2.7 0-3.2-2.7-.9-4.8-4.5-7.5-10.8-8.2-4.8-.5-5.7-.3-8.6 2.2-2.2 1.9-3.4 3.9-3.8 6.6-.6 3.8-.8 3.9-4.6 3.9-5.7 0-11.6 3.4-13.5 7.7-1.3 3.2-1.3 4 .2 7.9 1.7 4.5 4.2 6.7 9.6 8.2 1.9.6 13.6 1.1 26.2 1.1 21.4.1 22.8 0 24.7-1.9 1.1-1.1 2-3.1 2-4.4 0-2.8-3.3-7.2-6-8.1zm-27 8.5v3h-8.7c-6.4 0-9.7-.5-12.2-1.8-6.8-3.4-5.2-4.2 8.3-4.2H103v3zm0-10.5v5.5H89.6c-14.5 0-15.5-.4-13.6-5.5 1.7-4.6 7.6-6.2 21.3-5.7l5.7.2v5.5zm0-7.5h-4.5c-4.4 0-4.5-.1-4.5-3.3 0-4 3.1-7.7 6.5-7.7 2.4 0 2.5.3 2.5 5.5v5.5zm12 16v5h-10v-10h10v5zm1-14c-.5 0-1 1.6-1 3.5v3.5h-10v-9.9c0-9.5.1-9.9 2-9.4 2.9.8 5 4.2 5 8 0 3.5 1.6 5.1 3.3 3.4 3.1-3.1 9.7.3 9.7 5 0 2.7-.2 2.9-4 2.9-3.9 0-4-.1-4-3.5 0-1.9-.4-3.5-1-3.5zm16.8 15.9c-.3 2.5-.6 2.6-8 2.9l-7.8.3v-10.4l6.2.7c7.1.7 10 2.7 9.6 6.5zM300.7 350.4c2.4 2.3 4.3-.9 5.8-10 .9-4.9 1.8-9.6 2.1-10.4.6-1.6 7.9-40.2 11.4-59.9 2.4-13.2 2.2-14-2.5-14.1-1.1 0-23.1-3.9-49-8.6-25.8-4.7-48.6-8.6-50.5-8.7l-3.5-.2-7.2 36c-6.8 34.2-10.1 54-9.1 55 .2.3 10.3 2.3 22.4 4.5 19.4 3.5 53 10.1 72.7 14.3 3.7.8 7.1 1.8 7.4 2.1zm4.8-18.5c-.8 4.9.1 4.9-17 .5-7.1-1.8-15.5-3.8-18.7-4.4l-5.6-1.1.9-3.1c.4-1.7 1.1-3.3 1.3-3.5.7-.7 37.9 5.8 39 6.8.4.4.5 2.6.1 4.8zm2-10.1c-.3 1.2-.9 2.2-1.3 2.1-3.4-.4-38.8-7.1-39.1-7.4-.2-.2 1.1-6.2 2.8-13.3l3.2-12.8 19 3.7c10.5 2 19.2 3.9 19.4 4.1.4.4-2.4 16.4-4 23.6zM276 252c.8 0 8.7 1.3 17.5 2.9 8.8 1.6 18.2 3.3 20.8 3.6 4.3.7 4.8 1 4.4 2.9-.3 1.1-1.8 9.2-3.3 17.9-2.2 12.5-3.1 15.7-4.3 15.6-.9-.1-9.7-1.8-19.6-3.8l-18-3.7.3-3.1c.3-2.6-.2-3.5-2.5-4.9-1.5-1-3-1.9-3.1-2-.2-.2 1.1-5.9 3-12.8 2.3-9 3.7-12.6 4.8-12.6zm-18.3-2.5l3.4.1c1.9 0 5 .4 7 .8l3.7.6-2 7.8c-1 4.2-2.6 10.1-3.4 13-1.1 3.8-1.9 5.2-3.2 5.1-1.7-.1-10.5-1.9-10.9-2.3-.1-.1 1.1-5.8 2.6-12.6l2.8-12.5zm-3.1-1.2c.1.1-1 5.8-2.4 12.6-1.5 6.8-3.1 12.5-3.7 12.6-1.1.2-13.8-1.6-14.3-2-.3-.2 4.8-25.4 5.2-26.2.1-.2 14.9 2.7 15.2 3zm-31 64.2c-.3.8-1.1 5.3-1.7 10-.7 4.9-1.7 8.4-2.3 8.4-7.6-.9-18.1-3.6-18.3-4.9-.2-.8.3-5.3 1-10l1.2-8.5 4.7.2c6.9.2 16.1 3.1 15.4 4.8zm-.4-4.6c-.4-.1-3.6-1-7.2-2s-7.5-1.8-8.7-1.8c-1.3-.1-2.3-.7-2.3-1.4 0-2.2 11.7-60.7 12.2-61.3.9-.9 19.3 3.3 19.1 4.4-2.1 9.5-8.6 42-9.8 49.2-.9 5.2-1.8 10.3-2.1 11.3-.3.9-.8 1.6-1.2 1.6zm34 30c-5.4-.4-33.2-6.6-33.3-7.4-.2-2.8 8.5-53.7 9.5-55.4.6-.9 16.1 1.6 27.8 4.4 10.2 2.5 10.4 2.9 7.3 17.1-2.8 13-8.3 36.9-9.1 39.7-.3.9-1.3 1.6-2.2 1.6zm5.5-3.6c.9-3.8.9-3.8 5.4-3.5 4 .3 34.6 7.6 35.5 8.4.2.2.1 2.1-.3 4.1-.4 3-1 3.7-2.7 3.6-2.7-.2-37.9-7.8-38.4-8.4-.2-.2 0-2.1.5-4.2zM3.4 313.9c-1 1.7-2 2.8-2.3 2.6-.3-.1-.6 2.5-.6 6s.2 6.2.4 5.9c.3-.2 1.2.8 2.2 2.2.9 1.4 3 3.5 4.5 4.5 9.2 6 22.4-1.9 22.4-13.4 0-13.2-20-19-26.6-7.8zm23.2 4.7c1.4 3.3 1.3 3.9-.5 7.7-1.1 2.3-3 4.8-4.3 5.6-8.9 5.5-17.9.5-18-10.3-.1-5 1.1-7.1 4.7-8 1.4-.4 2.5-1.1 2.5-1.6 0-1.8 7.4-1.1 10.8 1 1.8 1.1 4 3.6 4.8 5.6z"/><path class="st1" d="M11 316.5c-1.2 1.5-1.2 2.1.3 4.7 1.7 3 2.3 8.8.9 8.8-.4 0-1.3-.5-1.9-1.1-.7-.7-1.3-.7-1.7 0-.4.5.6 1.6 2 2.4 2.8 1.4 5.9 1.2 8.2-.6 1.9-1.5 1.4-5.5-.8-6.9-2.1-1.4-2.5-3.4-1.1-5.7.8-1.2 1.2-1.2 2.4-.2 2.6 2.1 2.8-.5.2-2.7-2.7-2.4-5.9-1.9-8.5 1.3zm5.3 8.8c.6.2 1.2 1.2 1.2 2.2s-.6 2-1.2 2.3c-.8.2-1.3-.6-1.3-2.3s.5-2.5 1.3-2.2zM14 317c.5 0 .7.7.4 1.5-.4.8-.8 1.5-1 1.5s-.4-.7-.4-1.5.4-1.5 1-1.5zM446.8 278.6c-42.7-18.5-40.5-17.9-45-10.8-1.6 2.6-1.9 4.4-1.6 8.3.3 2.7.7 5.1.9 5.3.2.2 18 8 39.4 17.4 44.6 19.5 43.8 19.3 47.7 10.5 2.2-5.1 1.8-10.1-1-12.5-.9-.8-19.1-9-40.4-18.2zm31 22.9c-.2.3-9.2-3.3-19.8-8-10.6-4.7-19.5-8.5-19.7-8.5-.1 0-.3.3-.3.8 0 .4 8.8 4.5 19.5 9.2 16.4 7.1 19.5 8.8 19.4 10.5-.1 1.1-.4 2.9-.7 4-.7 1.9-3.2 1-36.9-13.8-31.8-14-38.7-17.6-36.9-19.4.2-.3 5.7 1.8 12.1 4.6 11 4.8 15.2 6.2 12.9 4.3-.5-.5-6.4-3.2-13.2-6.2-11-4.8-12.2-5.5-11.6-7.4.4-1.2.8-2.3 1-2.5s4.9 1.5 10.4 3.9c5.6 2.3 10.3 4 10.7 3.7.3-.4-.5-1.1-1.8-1.6s-5.9-2.5-10.2-4.4c-6.6-2.9-7.5-3.6-6.2-4.7.8-.7 2.3-1 3.2-.7 2 .5 71.6 30.7 72.2 31.2.1.2-.3 1-1 1.8-1.1 1.2-3.5.4-15.9-5.1-15.2-6.7-19.2-8.2-17.5-6.4.6.5 7.5 3.8 15.5 7.3 15.8 6.8 15.6 6.7 14.8 7.4zm7.1 8.9c-2.2 2.7-5.4 3.5-6.2 1.4-1.4-4.3 4.6-15 7.4-13.3 1.8 1.2 1 9.1-1.2 11.9zM513.5 264c.2 0 .3-19.9.1-20.1-.1 0-12.7-.9-28.1-1.9-18.4-1.2-28.4-1.5-29.2-.8-.7.5-1.7 2.6-2.4 4.5-1.3 4 0 10.1 2.5 12.2.9.8 11.7 1.9 28.6 3 14.9 1 27.4 2.1 27.7 2.5.4.3.7.6.8.6zm-31.5-5.5c-9.1-.7-18.2-1.3-20.3-1.4-3-.1-4-.6-4.9-2.6-.6-1.4-.9-2.8-.6-3.1 1-1 53.2 1.7 54.3 2.8.7.7-1.6.8-7.2.3-5.7-.4-8.3-.3-8.3.4s2.3 1.1 5.8 1.1c6.9 0 9.9.7 10.6 2.6.7 1.7-5.3 1.7-29.4-.1zm29.1-9.1c-.6 1.4-1.6 2.5-2.3 2.4-.7 0-12.1-.7-25.3-1.4-13.2-.6-24.8-1.2-25.7-1.3-1-.1-1.8-.4-1.8-.9 0-.4 5.2-.5 11.6-.3 8.4.2 11.5 0 11-.8-.5-.7-4.6-1.1-11.2-1.1-10.6 0-13.8-1.3-6.1-2.4 4-.6 49.5 1.8 50.3 2.7.3.2 0 1.6-.5 3.1zM.9 246.5c1.6-.9 4.1 3.7 4.1 7.6 0 3.9-3.3 8.3-4.3 5.7-.3-.7-.6-.3-.6 1-.1 2.8 1.6 2.8 4.6 0 3.1-2.9 3.2-10.4.2-14.2-2.3-2.9-4.9-3.5-4.9-1 0 .8.4 1.3.9.9zM358.2 221.4c-4.5-2.2-22.2-3.4-22.2-1.4 0 .6-2.2 3.3-4.9 5.9-5.8 5.6-7.6 10.6-6 16.4 1.9 7.1 7.9 11.8 17.2 13.6 7.4 1.5 14.1-.4 18.3-5.1 8.7-9.5 7.5-24.6-2.4-29.4zm2.6 22.6c-1.3 2.5-3.8 5.5-5.7 6.7-9.3 6.2-27.1-1.2-27.1-11.3 0-4.4 2-8.4 5.9-11.7 15.4-12.9 35.7-.7 26.9 16.3z"/><path class="st1" d="M351.2 230.8c1.5 1.5 2.8 1.6 2.8.2 0-.6-1.1-1.6-2.5-2.2-1.4-.6-2.5-1.8-2.5-2.6 0-1.3-.3-1.3-1.8.1-1 1-2.5 1.7-3.3 1.7-4.3 0-5.3 6.1-1.4 8.6 1.9 1.2 2.5 2.5 2.5 5 0 3.8-.8 4.1-5 1.9-2.6-1.4-3-1.4-3-.1 0 .9 1.7 2 4 2.7 2.2.7 4 1.8 4 2.6 0 1.6.6 1.7 2.6.1 7.3-5.9 8-8 3.4-10.6-3-1.7-3.8-4.4-2-7.2.7-1.2 1.2-1.2 2.2-.2zm-5 2.2c-.5 3.3-1.3 3.7-3.2 1.5-1.6-1.9-.6-4.5 1.8-4.5 1.5 0 1.8.6 1.4 3zm4.4 10.5c-1 2.8-3.6 1.7-3.6-1.5 0-1.6.4-3 .9-3 1.5 0 3.3 2.9 2.7 4.5zM199.4 235.6c3.9-1.6 6.3-4.6 7.7-9.9 2.2-8.1-2.4-13.8-12.6-16l-5.5-1.1-4.5 4.6c-3.9 4.1-4.5 5.2-4.5 9 0 5.5 2.8 10.1 7.7 12.7 4.5 2.4 7.2 2.6 11.7.7zm-14.1-19.1c5.9-6.9 19.7-2.6 19.7 6.1 0 3.1-3.3 8.5-6.1 9.9-3.4 1.8-5.5 1.8-9.4.1-6.4-2.8-8.6-11.1-4.2-16.1z"/><path class="st1" d="M196.2 222.5c-2.9-1.3-3.1-4.9-.2-4 2.8.9 2.5-1-.5-2.9-2.3-1.5-2.7-1.5-4.1-.1-.8.8-2 1.5-2.5 1.5-1.8 0-.9 4.9 1.1 6 1.1.6 2 2 2 3.1 0 1.6-.5 1.8-2.5 1.3-1.6-.4-2.5-.2-2.5.5 0 .6 1.4 1.4 3 1.8 1.7.3 3.3.9 3.6 1.4s1.7-.2 3.1-1.5c2.9-2.7 2.8-5.7-.5-7.1zM191 221c-.5 0-1-.4-1-.9 0-.6.5-1.3 1-1.6.6-.3 1 .1 1 .9 0 .9-.4 1.6-1 1.6zm3.4 5.6c-.8-2.2.3-3.3 1.8-1.8.9.9.9 1.5 0 2.4-.9.9-1.3.7-1.8-.6zM411.4 90.1c-.3.5 0 1.8.6 3 1.7 3 .5 3.5-2.6 1-3.5-2.7-9.4-2.7-15 0-5.9 2.8-7.1 4.4-5 6.7.9 1 1.6 2.1 1.6 2.4 0 .2-2.4.3-5.2.1-4.1-.3-6.1.1-8.5 1.6-3.7 2.3-9.4 10.2-7.7 10.8.6.2 2 1 3 1.8 1.8 1.4 1.7 1.4-.9 1.5-7.4.1-13.6 6.3-14 14.1-.2 3.7.1 4.2 2 4.4 3.4.3 3.9 1.3.9 2.1-1.4.3-4 2.2-5.6 4.1-2.9 3.3-3.1 3.9-2.8 10.6l.3 7.2 3.5-.3c3.5-.3 3.5-.3 1.4 1.5-5.5 4.6-5.8 13.2-.8 21.7 1.1 1.8 1.2 1.8 3.8.1 3-2 3.1-1.9 1.1 2.9-2.1 5-.7 10 4.4 15.7l3.9 4.4 2.2-2.2c2.7-2.9 3.2-2.9 2.4.1-1.4 5.7 3.5 13 10.9 16.1 4.2 1.7 5.7 1.3 5.7-1.5 0-1 .5-2.2 1-2.5.6-.3 1 .3 1 1.5 0 6.7 7.6 12.3 15.8 11.8 4.5-.3 4.7-.4 4.4-3-.4-3.7.9-3.5 3 .2 1 1.7 2.8 3.5 4 4 3.2 1.2 10.9 1.2 14.7-.1 3-1.1 4.1-3.2 2.1-4.4-.5-.3-1-1.3-1-2 0-1 1-.8 3.6 1 2 1.4 5.1 2.5 6.8 2.5 3.9 0 10.5-3 13.1-5.9 1.8-2.1 1.8-2.3.2-3.2-.9-.6-1.7-1.7-1.7-2.5 0-1.1.4-1.2 1.9-.4 2.8 1.4 6.7 1.3 10-.5 2.9-1.5 10.1-9.1 10.1-10.7 0-.5-1.1-1.4-2.5-2-3.5-1.6-3.1-2.4 1.1-2.5 6.5-.2 11.7-5.8 13-14.1.6-4 .5-4.2-1.9-4.2-1.4 0-2.9-.4-3.2-1-.3-.5.1-1 1-1 2.6 0 7.1-3.7 8.4-6.8.7-1.6 1.1-5.5.9-8.8l-.3-5.9-3.2.3c-4 .4-4.1-.2-.7-3.1 3.4-3 4.2-8.9 1.9-15.6-1.8-5.5-3.1-6.9-4.8-5.2-.6.6-2 1.1-3.1 1.1-1.8 0-1.8-.1-.3-1.8 2-2.1 2.3-9.2.6-12.5-1.4-2.8-7-8.7-8.2-8.7-.5 0-1.8 1-2.8 2.3l-2 2.2.6-3.1c1.2-6-3.4-13-10.4-16-4.5-1.9-5-1.8-6.2 1.4l-1.1 2.7-1.3-3.8c-2.2-6.4-5.4-8.9-13.2-10.1-5.5-.8-7.4 0-6.7 2.9.3 1.3.1 2.6-.5 2.9-.6.4-1.1.1-1.1-.8 0-2.2-5.6-6.4-9.6-7.2-3.5-.6-12 1.1-13 2.7zm2.2 9.4c.8-1 1.4-3.3 1.4-5.1 0-3.1.2-3.3 4.4-3.9 5.8-.9 9.6.9 11.9 5.8 2.4 4.8 4.4 4.7 6.5-.2 1.6-3.6 2-3.9 4.7-3.4 7.4 1.4 10.5 4.6 10.5 10.7 0 4.4 2.5 4.9 6 1.1 3-3.2 3.9-3.2 8.5.8 4 3.5 4.7 6.5 3 13-.7 2.4-.5 2.7 1.7 2.7 1.3 0 3.4-.7 4.6-1.6 2.2-1.5 2.5-1.5 4.4.3 2.2 1.9 4.8 7.2 4.8 9.6 0 .8-1.2 3.1-2.6 5.2-3 4.5-2 5.8 3.7 5.2 3.1-.4 3.8-.1 4.8 2 .6 1.3 1.1 4.2 1.1 6.4 0 4-1.8 6.6-6.6 9.6-1.9 1.2-1.8 1.3.5 3.3 1.3 1.1 3.4 2 4.7 2 2.1 0 2.4.4 2.4 4 0 6.4-2.3 9.8-7.5 11.2-2.5.7-4.5 1.7-4.5 2.3 0 1.5 4.3 5.5 5.9 5.5 1.4 0 .8 2.6-1.5 7.2-1.9 3.7-6.7 6.1-10.4 5.3-1.6-.4-3.4-.4-3.9 0-1.3.8.4 5.6 2.7 7.3 1.5 1.2 1.3 1.7-2.5 5.3-4.7 4.3-9.1 5.1-13.1 2.3-1.2-.8-2.7-1.2-3.2-.9-1.3.8-1.3 5.1 0 7.5s-2.7 5.1-8.7 5.8c-3.8.4-4.6.1-7.2-2.7-1.6-1.7-3.4-3.1-3.9-3.1-1.2 0-2.5 3.5-2.6 7-.1 2.3-.5 2.5-5.8 2.8-5.1.3-6.1 0-8.3-2.2-1.4-1.4-2.5-3.4-2.5-4.5 0-3.3-2.2-3.6-4.7-.7-1.2 1.5-2.3 3.4-2.3 4.2 0 1.9-4.3 1.8-8.5-.1-3.7-1.8-5.3-4.5-5.7-9.4-.4-4.6-2.1-4.9-5.9-1.2-2.8 2.9-3.2 3-5.7 1.7-6-3.1-8.1-8.6-5.7-15.3.6-2 .4-2.3-2.2-2.3-1.6 0-3.8.7-5 1.5-2 1.4-2.3 1.3-4.8-1.9-3.9-5.1-4.3-9.5-1.1-13.3 1.4-1.7 2.6-3.4 2.6-3.7 0-1.4-5.1-2.5-7.4-1.6-2 .7-2.5.5-3.5-1.6-1.4-3-1.4-9.9-.1-12.3.5-1 2.3-2.4 4-3.1 1.6-.7 3-1.6 3-2.1 0-1.4-4.3-3.9-6.7-3.9-2.1 0-2.3-.5-2.3-5.1 0-4.3.5-5.5 2.9-8 2-1.9 4-2.9 6-2.9 4.2 0 4-2.1-.5-5.8-3.5-2.9-3.5-3-2.1-6.4 2.3-5.5 6.3-8.1 11.5-7.4 3.9.5 4.2.4 4.2-1.8 0-1.3-.9-3.5-2-4.9-2-2.5-2-2.5.2-5.2 4.1-5.3 10.8-6.5 15-2.8.9.8 2.2 1.2 2.8.8 1.2-.7 1-5.5-.4-8.6-.5-1.2.3-2 3.4-3.4 6-2.7 9.9-2.2 13.4 1.6 2.7 3.1 2.9 3.1 4.2 1.4z"/><path class="st1" d="M427 163.2c1.6-1.3 2.1-2.4 1.6-4-1-2.9-4.3-3.8-6.7-1.6-2.3 2.1-2.4 3.7-.3 5.8 2 2 2.7 2 5.4-.2zm-3.8-2.3c.2-.7 1-1.5 1.7-1.7.8-.3 1.2.1.9.9-.2.7-1 1.5-1.7 1.7-.8.3-1.2-.1-.9-.9zM229.9 161.5c2.7-.6 2.9-.4 3.3 2.9.2 2-.1 4.1-.7 4.7-.7.8-.6 1.3.3 1.6 1.5.6 1.6 3.9 0 4.9-.8.5-.6 1.1.7 2 1.2.9 1.6 2 1.1 3.8-.4 1.5-.2 2.6.4 2.6 1.4 0 1.2 3.7-.2 4.3-.9.4-1 .8-.2 1.4 1.6 1.2 2.4 4.2 1.3 4.9-.7.4-.6 1 .1 1.9.6.8 1 2.2.9 3.2s.1 2.6.6 3.6c.4 1 .2 2.4-.6 3.3-1.1 1.3-1 1.7.4 2.5.9.6 1.7 1.8 1.7 2.9 0 1 .9 3.9 2 6.4 1 2.5 2.3 4.6 2.8 4.6 2 0 4.2-16.5 2.8-20.9-.6-1.6-.4-2.6.5-3.2 1-.6 1.1-1.1.3-1.6-1.8-1.3-2.3-4-1.1-5.3.9-1 .9-1.4 0-1.7-1.6-.6-1.7-3.5-.1-5.1.9-.9.8-1.2-.5-1.2-2 0-2.4-3.6-.4-4.3.8-.3.6-.9-.8-2-1.6-1.3-1.8-1.9-.9-3.4s.8-2.3-.2-3.8c-1.1-1.5-1.1-2.1-.1-3.3.9-1.2.9-1.6 0-1.9-.7-.3-1.3-1.6-1.3-2.9 0-2.1.5-2.4 3.5-2.4 3.1 0 3.5-.3 3.5-2.5 0-4.3-3.3-6.5-9.5-6.5-7.2 0-12.2 2.1-13.1 5.4-1 4.2.1 5.9 3.5 5.1zm5.7 4.9c-1.3-3.5-.7-5.4 1.9-5.4 2 0 2.5.5 2.5 2.5 0 3-3.5 5.3-4.4 2.9zm.4 5.2c0-1.8 3.1-2.9 4.4-1.6.8.8.7 1.4-.4 2-2.2 1.4-4 1.2-4-.4zm1 6.4c0-1 .9-2.4 2-3 1.7-.9 2-.8 2 1.4 0 1.3-.7 2.7-1.6 3-2.3.9-2.4.8-2.4-1.4zm.7 6.6c-.6-1.6 1.1-3.6 3-3.6s1.6 3.7-.3 4.4c-2.1.8-2.1.8-2.7-.8zm7.2 25.2c-.1 4.8-1.3 9-2.2 7.6-.3-.6-1-3-1.6-5.3-.8-3.6-.6-4.3.9-5.1 2.8-1.5 3-1.3 2.9 2.8zm-.9-8c0 1.1-.7 2.3-1.6 2.6-2.4.9-2.6.8-2.2-1.6.4-2.9 3.8-3.8 3.8-1zm-.7-6.8c.3 1.3-.1 2.4-1.3 3-2.6 1.4-3 1.3-3-1 0-1 .9-2.4 1.9-2.9 1.5-.9 2-.7 2.4.9zm-.3-6c0 2.7-3.8 4.7-4.7 2.4-.4-1.1.1-2.2 1.2-3 2.6-1.9 3.5-1.7 3.5.6zm-14-32c2.4-4.5 12.5-5.5 16.3-1.7l2.2 2.2-5.5.7c-3 .3-7.4.6-9.8.7-4 .1-4.2 0-3.2-1.9zM66.8 217.5c.3.3 6.8.3 14.6 0 13.2-.3 14.5-.6 20.9-3.4 3.7-1.7 6.7-3.6 6.7-4.2 0-.5-3.4-2.6-7.6-4.6l-7.7-3.7-27.6-.5c-15.2-.3-34.3-.6-42.6-.6h-15v15.6l29 .5c15.9.3 29.1.7 29.3.9zm35.8-8.5c.8 0 1.2.5.9 1-.3.6-1 1-1.6 1-.5 0-.9-.4-.9-1 0-.5.7-1 1.6-1zm-11.5-3.2c.9-1.6 1.2-1.6 4.4-.1 4.5 2.2 4.8 5.6.5 7.8-4 2-5.3 1.9-4.5-.5.3-1.1.2-2.7-.4-3.7-.6-1.1-.6-2.4 0-3.5zm-73.3 7.8l-6.8.6v-9.9l5.1-.6c2.7-.4 20.1-.3 38.5 0 27.5.5 33.4.9 33 2-.3.7-.1 2.5.4 3.9.7 1.9.7 3.1-.1 4-1.3 1.6-9.9 1.6-43.4.3-11-.5-23-.6-26.7-.3zM303.8 112.2l-32.3.3-.9 39c-.5 21.5-.9 42.6-1 47l-.1 8 28 1.1c15.4.6 29.7 1.1 31.8 1l3.7-.1.4-27c.1-15.2 1.1-35.6 2.1-46.7 1-10.8 1.5-20.4 1.2-21.3-.6-1.3-4.4-1.5-32.9-1.3zm27.9 25.6c-1 11.9-1.9 31.9-2 44.4l-.2 22.8-7-.2c-3.8-.1-16.5-.4-28.2-.7-11.6-.3-21.4-.8-21.6-1.1-.3-.3-.1-5.9.4-12.5.4-6.6 1.1-26.1 1.5-43.2l.7-31.3h58.3l-1.9 21.8z"/><path class="st1" d="M280 178.3c0 .8.3 1.7.7 2 .9.9 3.4-1.3 2.7-2.4-.8-1.4-3.4-1.1-3.4.4zM318.8 177c-1.2 0-4.7-.5-7.9-1.2-5-1-6-.9-8.3.5-2.4 1.6-2.9 1.6-5.6.2-4-2-7.7-1.9-8.9.4-1.3 2.4-.4 3.3 2 1.8 1.4-.9 2.8-.8 6.1.4 3.8 1.4 4.6 1.5 7.1.2 2.4-1.2 3.7-1.2 7.6-.2 4.9 1.2 10.1.7 10.1-1.1 0-.6-1-1-2.2-1zM292.5 166.5c3.1-1.1 21.7-2.6 24.3-2 1.5.4 2.2.1 2.2-.9 0-2-4.1-2.5-15-1.9-6.4.4-10.1 1.1-11.2 2.1-1.6 1.3-1.8 1.3-2.4-.2-.3-.9-1.2-1.6-2-1.6-1.9 0-1.8.9.3 3.2 1.2 1.3 2.4 1.7 3.8 1.3zM281.1 161.8c.6-.2 1.1-.8 1.1-1.3s-.5-1.1-1.1-1.3-1.1.4-1.1 1.3.5 1.5 1.1 1.3zM303 145.6c-3.6-.2-7.4-.6-8.5-1-2.1-.7-6.5 1.7-5.3 2.9.3.4 4.3.8 8.7.9 4.5.2 8.3.5 8.6.8.8.8 16.5.5 16.5-.3 0-1.5-5.8-2.5-20-3.3zM281 146.9c0 1.2.6 2.1 1.6 2.1.9 0 1.4-.7 1.2-1.7-.5-2.5-2.8-2.8-2.8-.4zM296.5 129c-1-1.7-5.1-1.1-7 1-2.2 2.4-1.4 3.6 1.2 1.9 1.6-.9 2.5-.8 4.9.4 1.6.9 3.6 1.3 4.4 1 2-.9 6-.9 15.8 0 5.6.6 8.2.5 8.2-.2 0-.6-.9-1.1-1.9-1.1-1.1 0-2.3-.5-2.6-1-.4-.6-3.2-1.1-6.3-1.1-14.4.1-16.2 0-16.7-.9zM282.3 132.1c1.3-1.3.3-2.6-1.2-1.6-.6.3-.8 1.1-.5 1.7.4.6 1 .6 1.7-.1zM117.5 191.5c45.7 3 85.3 5.6 88 5.8 2.8.2 6.1.4 7.3.5 3 .3 2.4-2.2-.6-2.6-1.2-.2-2-.7-1.8-1.1.3-.4 2.8-37.1 5.6-81.6 2.8-44.6 5.3-81.6 5.6-82.4.2-.7 1.1-1.1 1.9-.7 1.6.6 3.1-.9 1.7-1.8-.5-.3-20.2-1.4-43.8-2.6-46.2-2.2-52.3-2.6-109.8-7-41.5-3.3-47-3.5-46.1-2 .3.5 1.5 1 2.6 1 2.4 0 2.4-.1-.1 27-4.1 45.7-5.1 59.7-6.5 96.5-.8 20.9-1.5 39-1.5 40.3 0 1.6-.6 2.2-2.1 2.2-1.1 0-1.8.4-1.5.9.7 1.1-3.1.8 101.1 7.6zm-95.1-16.7c.4-4.6 1.1-21.8 1.6-38.3.6-16.5 2-41 3.1-54.5 1.2-13.5 2.8-33.5 3.8-44.5l1.6-19.9 5 .2c2.8.2 22.1 1.6 43 3.2 48.6 3.7 62.5 4.6 104 6.5 18.7.9 34.1 1.7 34.2 1.9.1.1-2.1 37.4-5 82.9l-5.2 82.7-4.5-.1c-2.5-.1-43-2.7-90-6-47-3.2-87-5.8-88.8-5.8l-3.4-.1.6-8.2z"/><path class="st1" d="M35.8 174c21 .2 150.7 9.2 157.7 10.9 1.6.4 4 .5 5.2.3 2.3-.4 3.7-3.9 2.7-6.6-.3-.8.1-9.1 1-18.3 2.4-25.2 6.1-84.7 6.8-110.3l.3-9.5-8.5-.3c-4.7-.1-35.3-2-68-4.2-75-5-88.5-5.6-89.4-4.2-.4.6-2 20.6-3.6 44.4s-3.4 49.2-4 56.3c-1.1 14.1-1.2 41.5-.2 41.5zm9.8-136.9l.5-3.4 15.7.7c8.6.4 38.4 2.2 66 4.1 27.7 1.9 56.9 3.8 64.9 4.2l14.5.6-.6 6.6c-.3 3.6-.8 13.2-1.2 21.4l-.6 14.7-8.2-.2c-9.9-.2-7.6-.1-70.6-4.4-28.3-1.9-58.6-3.7-67.2-4.1-13.4-.5-15.8-.8-15.8-2.2 0-3.8 2.1-34.9 2.6-38zm-3 45.3c.4-3 .4-3 6.2-2.7 26.5 1.4 49.9 2.8 86.7 5.3 23.7 1.6 48.9 3.2 56 3.6l13 .6-1.2 18.2c-.6 9.9-1.2 19.8-1.2 21.9-.1 4.3 1.8 4.1-18.6 2.1-21.2-2-80.3-6.2-113.5-8-16.2-.8-29.6-1.7-29.8-1.9-.4-.4 1.7-34.5 2.4-39.1zm-4.3 65.8c.3-12.3.8-22.6 1.1-22.9 1.3-1.4 144.5 7.9 158.4 10.2 3.1.6 3.2.8 3.2 5.3 0 2.6-.7 11.9-1.5 20.7-.9 8.8-1.3 17-1 18.3.7 2.7 1.3 2.7-27 .2-38.9-3.5-107.1-8-122-8-3.8 0-8.1-.3-9.4-.7l-2.4-.6.6-22.5z"/><path class="st1" d="M121 146.4c15.6 2 22.8 1.7 23.7-1.1.3-.9-.5-.9-3.2 0-4.3 1.3-21.3-.3-36.4-3.4-10.6-2.2-11.9-2.3-10.6-1 1.4 1.3 14.2 4 26.5 5.5zM120 99.5c11.6 1.6 32 1.9 32 .5 0-.6-4.3-1-10.7-1-13.4 0-33.9-2.7-43.5-5.6-1-.3-1.8-.1-1.8.5 0 1.2 11.3 3.8 24 5.6zM112.5 54.3c8.3 1.4 18.9 2.6 23.7 2.6 9.4.1 18.8-1.4 18.8-3.1 0-.6-1.2-.8-3.2-.3-9 2-22.8 1.6-38.4-1-13.4-2.3-18-2.6-16.3-1.1.2.2 7.2 1.5 15.4 2.9zM234 70.9c1.4 5.4 3.9 7.2 10.9 8 8.3 1 10.1 2.8 10.1 10.3v5.9l4.3 1.9c6.2 2.9 7.9 2.5 11.7-2.1 3.3-4.1 3.3-4.1 8.7-3.6 5.9.6 8 1.8 9.4 5.5.8 2.2 1.4 2.4 4.8 1.9 6.6-.8 8.9-3.1 9.7-9.5.9-7.6 4.4-11.2 10.7-11.2 5.1 0 6.9-1.5 9.2-7.9 1.7-4.8 1.3-6.1-3.4-10.4-4-3.7-3.9-6.2.4-12.3 4.1-5.8 4.5-9.7 1.2-14.5-2.2-3.2-2.6-3.4-8.1-3.4-5.1 0-6.1-.3-7.7-2.5-1.1-1.4-2.2-4.3-2.5-6.5-1.1-8.1-1.4-8.6-5.7-10.5-5.9-2.7-7.5-2.5-11.1 1.5-1.8 2-4.2 3.5-5.6 3.6-6.3.5-8.3-.2-11.5-3.7s-3.3-3.5-7.4-2.3c-5.4 1.6-7.1 3.7-7.5 9.4-.5 6.7-4.6 10.7-11.7 11.5-6.2.6-9.1 3.6-9.3 9.6-.1 3.2.3 4 2.9 5.3 1.7.9 3.3 2.1 3.7 2.6 1.6 2.1.7 7.3-1.7 10.6-5.1 7.1-5.6 8.6-4.5 12.8zM244 52c0-5.9-1.5-9-4.5-9-2.2 0-2.7-1.8-1.5-5.5 1-3 1.6-3.5 4.3-3.5 4.2 0 11.1-3.5 14.3-7.3 2.2-2.6 2.5-3.8 2.1-7.5-.4-4.2-.3-4.5 2.7-5.8 2.9-1.2 3.2-1.1 5.1 1 3.1 3.6 5.8 4.6 13 4.6 5.6 0 7-.4 8.9-2.3 1.3-1.3 2.5-3 2.8-3.8.4-1.2 1-1.2 4 .3 3.2 1.5 3.6 2.1 4.1 6.7.7 6.1 3.2 10 8.1 12.6 3 1.6 4.1 1.8 6.5.8 2.7-1 3.2-.8 4.6 1.3 2.2 3.4 1.9 6.5-1.4 11-2.7 3.7-3.6 6.9-3.3 12.1.1 1.2 1.8 3.7 3.9 5.6l3.6 3.5-1.9 3.3c-1.6 2.6-2.9 3.5-7.2 4.4-8 1.8-12.2 6.7-12.2 14.2 0 3.6-.3 4-3.6 5.2-1.9.7-3.7 1.1-3.8.9-.1-.1-1-1.5-1.9-3-1.2-2-3-3-7.1-3.9-7.7-1.7-12.3-.6-14.8 3.7-1.5 2.6-2.7 3.4-4.8 3.4-3.7 0-5-1.9-5.9-8.6-.7-4.7-1.4-6.3-4-8.6-2.7-2.4-4-2.9-8-2.7-5.8.3-6.6-.2-8.1-4.5-1-3.2-.9-3.8 2.4-8.1 3.2-4.1 3.6-5.3 3.6-10.5z"/><path class="st1" d="M272 75.1c13.9 4.2 28.9-6.8 29-21.2 0-9.5-10.6-19.8-21.4-20.7-10.1-.8-16.9 3.1-21.2 12.3-6 12.6-.1 25.4 13.6 29.6zM266.5 40c2.4-2.2 3.5-2.5 10.4-2.5 6.8 0 8.3.3 11.9 2.8 11.8 7.7 10.3 24.8-2.5 30.3-8 3.4-19.4.3-24-6.6-4.5-6.5-2.5-17.8 4.2-24z"/><path class="st1" d="M272.4 67c3.4 1.4 6.8 1.1 11.3-.9 4.8-2.2 7.6-6.7 7.6-12.3 0-5.1-2.5-8.5-7.2-9.9-5.6-1.7-10.8-.4-14.8 3.6-2.8 2.8-3.3 4-3.3 8.3 0 5.3 2.4 9.6 6.4 11.2zm7-20c3.3 0 5.2.6 6.6 2 3.6 3.6 2.1 10.3-3 13.3-4.4 2.6-9.5 2.2-11.9-.9-4.9-6.3-.2-14.4 8.3-14.4zM358.6 82.2c7.1 4.3 14.1 7.7 15.5 7.8 3.4 0 5.8-2.8 17-19.5 26-39.1 26.6-40.4 20.7-44.8-8.2-6-27.1-16.9-30.3-17.4-3.3-.5-4-.2-8.3 4.4-5.3 5.6-33.3 49.1-34 52.9-.6 3.5 3.9 7.4 19.4 16.6zm-16.2-19.3c2.5-4.8 23.1-36.6 28.3-43.7 7.5-10.2 8.8-10.6 17.7-5.8 11.2 6 23.4 14.5 24.1 16.6.3 1-.1 3.3-1 5.1-2.9 5.6-32.6 50.4-34.3 51.7-2.7 2.1-4.3 1.5-16.7-6.1-18.8-11.3-20.6-13.1-18.1-17.8z"/><path class="st1" d="M369.9 74.7c6.2 3.7 9.1 4.1 11.3 1.6s21.7-33 24.2-37.7c1.7-3.5 1.8-4.1.5-6.5-.8-1.4-5.9-5.6-11.4-9.3-11-7.5-14.6-8.4-18.2-4.5-2.9 3.1-23.3 34.5-24.9 38.3-2.1 4.9-.3 6.6 18.5 18.1zm-13.5-23.1c1.8-2.8 6.4-9.8 10.1-15.6 9.4-14.6 12.2-18 15-18 2.3 0 18.9 10.3 21.4 13.3 2.4 3 1.5 6.1-4.6 15.2-3.3 5-8.5 13.1-11.7 18.1-3.3 5.3-6.7 9.6-8.2 10.3-1.4.6-2.6 1.1-2.8 1.1-.6 0-19.1-12.1-20.8-13.6-2.6-2.4-2.2-5 1.6-10.8zM359 71c-2.5 0-3.1 2.1-1.2 4.3 1.8 2 2.4 2.1 4 .5 1.5-1.5-.3-4.8-2.8-4.8zm.7 3.7c-.4.3-.7 0-.7-.7s.3-1 .7-.7c.3.4.3 1 0 1.4zM439.2 61c10.7 1.9 20.5 4.2 35.3 8.3 8.8 2.5 16.9 4.7 18 5s4.3.5 7.1.6c8.5.2 12.6-4.9 12.1-14.9-.1-3 .2-4.4 1-4.3.9.2 1.2-5.5 1.1-22.5 0-21.8 0-22.4-1.4-16.7-.8 3.3-1.3 10.3-1.3 15.5.2 14.3.7 13.4-5 9.9-6.2-3.7-11.1-9.2-11.1-12.3 0-1.3 1-3.7 2.3-5.4 1.2-1.7 3.7-5.2 5.6-7.8 3.6-5 5.2-12.5 3.2-15.4-1.6-2.3-2.2-.6-1 2.7 1.3 3.9-.3 8-5.5 14.2-4.6 5.5-6.6 9.3-6.6 12.5 0 3.8 5.9 9.8 13.5 13.6 3.6 1.8 6.5 3.7 6.5 4.2 0 2.2-2.2 4.8-4.1 4.8-1.8 0-2 .4-1.2 3.3.4 1.7.8 5.2.8 7.6-.1 9.7-6.8 10.3-33 2.7-8.8-2.6-21.1-5.6-27.4-6.7-6.5-1.1-12.2-2.6-13.2-3.5-2.7-2.5-3.1-6.1-1.2-12.7 2.4-8.8 8.4-14.6 17.8-17.7 6.4-2 8.2-2.2 20.2-1.6l13.3.7 2-3.3c1.6-2.7 2-5 2-12.5 0-8.2-.2-9.3-1.7-9.3-1.6 0-1.8.9-1.5 7.1.7 14.1-.2 14.9-15.1 14.2-9.9-.5-12.3-.3-19.1 1.7-13.8 4.1-21.6 14-21.6 27.4 0 6.4 2.7 9.5 9.2 10.6z"/><path class="st1" d="M455.6 43.9c-12.1-3.6-15.9-3.7-18-.7-2.1 2.9-2 5.1.2 7.7 1.3 1.7 7.5 3.6 29.2 9 15.1 3.8 28.4 6.7 29.5 6.4 3.5-.9 5.5-3.5 5.5-7 0-3-.4-3.6-4.2-5.2-4.8-2-10-3.3-23.3-5.6-4.9-.9-13.5-2.9-18.9-4.6zm44.2 14.9c.2 1.3-.2 3-.8 3.8-2 2.4-8.3 1.5-32-4.5-23.6-5.9-26.3-6.9-28-10.1-.8-1.5-.6-2.2 1.2-3.4 3-2.1 4.9-2 13.2.8 3.9 1.4 13.5 3.6 21.4 5.1 18.9 3.4 24.6 5.3 25 8.3zM.2 49c0 1.9.2 2.7.5 1.8.2-1 .2-2.6 0-3.5-.3-1-.5-.2-.5 1.7zM.2 19.5l1.4-7C2.4 8.7 3.5 4.3 4 2.8 4.7.4 4.5 0 3 0 .7 0 0 2.8.1 12l.1 7.5z"/></g></svg>